{
.appVersion = "1352";
DisplayStrings = (

glyphs = (
{
color = 6;
glyphname = .notdef;
lastChange = "2021-11-13 22:45:36 +0000";
layers = (
{
hints = (
{
horizontal = 1;
place = "{0, 16}";
type = Stem;
},
{
horizontal = 1;
place = "{49, 67}";
type = Stem;
},
{
horizontal = 1;
place = "{514, 63}";
type = Stem;
},
{
horizontal = 1;
place = "{613, 17}";
type = Stem;
},
{
place = "{50, 17}";
type = Stem;
},
{
place = "{102, 52}";
type = Stem;
},
{
place = "{373, 64}";
type = Stem;
},
{
place = "{471, 17}";
type = Stem;
}
);
layerId = "5E1A2ACF-25BB-4872-A226-5327BC7330DB";
paths = (
{
closed = 1;
nodes = (
"58 0 LINE",
"479 0 LINE",
"488 8 LINE",
"488 621 LINE",
"479 630 LINE",
"58 630 LINE",
"50 620 LINE",
"50 9 LINE"
);
},
{
closed = 1;
nodes = (
"67 613 LINE",
"471 613 LINE",
"471 16 LINE",
"67 16 LINE"
);
},
{
closed = 1;
nodes = (
"102 49 LINE",
"437 49 LINE",
"437 577 LINE",
"102 577 LINE"
);
},
{
closed = 1;
nodes = (
"154 150 LINE",
"244 316 LINE",
"154 479 LINE",
"173 514 LINE",
"263 350 LINE",
"354 514 LINE",
"373 479 LINE",
"283 314 LINE",
"373 150 LINE",
"354 116 LINE",
"263 279 LINE",
"173 116 LINE"
);
}
);
width = 538;
},
{
layerId = "9AA098C0-EDBC-463F-BC21-AFCD07A070D0";
paths = (
{
closed = 1;
nodes = (
"479 0 LINE",
"488 8 LINE",
"488 621 LINE",
"479 630 LINE",
"58 630 LINE",
"50 620 LINE",
"50 9 LINE",
"58 0 LINE"
);
},
{
closed = 1;
nodes = (
"471 613 LINE",
"471 16 LINE",
"67 16 LINE",
"67 613 LINE"
);
},
{
closed = 1;
nodes = (
"437 49 LINE",
"437 577 LINE",
"102 577 LINE",
"102 49 LINE"
);
},
{
closed = 1;
nodes = (
"244 316 LINE",
"154 479 LINE",
"173 514 LINE",
"263 350 LINE",
"354 514 LINE",
"373 479 LINE",
"283 314 LINE",
"373 150 LINE",
"354 116 LINE",
"263 279 LINE",
"173 116 LINE",
"154 150 LINE"
);
}
);
userData = {
assembly = "SVTCA[0]	/* SetFreedomAndProjectionVectorToAxis */\012PUSHW[ ]	/* 1 value pushed */\0122 \012MDAP[1]	/* MoveDirectAbsPt */\012PUSHW[ ]	/* 1 value pushed */\0120 \012RCVT[ ]	/* ReadCVT */\012IF[ ]	/* If */\012PUSHW[ ]	/* 1 value pushed */\0126 \012MDAP[1]	/* MoveDirectAbsPt */\012ELSE[ ]	/* Else */\012PUSHW[ ]	/* 2 values pushed */\0126 5 \012MIAP[0]	/* MoveIndirectAbsPt */\012EIF[ ]	/* EndIf */\012PUSHW[ ]	/* 3 values pushed */\01216 6 2 \012SRP1[ ]	/* SetRefPoint1 */\012SRP2[ ]	/* SetRefPoint2 */\012IP[ ]	/* InterpolatePts */\012PUSHW[ ]	/* 3 values pushed */\01217 6 2 \012SRP1[ ]	/* SetRefPoint1 */\012SRP2[ ]	/* SetRefPoint2 */\012IP[ ]	/* InterpolatePts */\012PUSHW[ ]	/* 3 values pushed */\01218 6 2 \012SRP1[ ]	/* SetRefPoint1 */\012SRP2[ ]	/* SetRefPoint2 */\012IP[ ]	/* InterpolatePts */\012PUSHW[ ]	/* 3 values pushed */\01222 6 2 \012SRP1[ ]	/* SetRefPoint1 */\012SRP2[ ]	/* SetRefPoint2 */\012IP[ ]	/* InterpolatePts */\012PUSHW[ ]	/* 3 values pushed */\01223 6 2 \012SRP1[ ]	/* SetRefPoint1 */\012SRP2[ ]	/* SetRefPoint2 */\012IP[ ]	/* InterpolatePts */\012PUSHW[ ]	/* 3 values pushed */\01224 6 2 \012SRP1[ ]	/* SetRefPoint1 */\012SRP2[ ]	/* SetRefPoint2 */\012IP[ ]	/* InterpolatePts */\012IUP[0]	/* InterpolateUntPts */\012IUP[1]	/* InterpolateUntPts */";
};
width = 538;
}
);
note = .notdef;
},
{
color = 6;
glyphname = A;
lastChange = "2021-11-13 22:45:36 +0000";
layers = (
{
hints = (
{
horizontal = 1;
place = "{0, 21}";
target = up;
type = BottomGhost;
},
{
horizontal = 1;
place = "{162, 11}";
type = Stem;
},
{
horizontal = 1;
place = "{572, 19}";
type = Stem;
},
{
place = "{10, 315}";
type = Stem;
}
);
layerId = "5E1A2ACF-25BB-4872-A226-5327BC7330DB";
paths = (
{
closed = 1;
nodes = (
"22 0 LINE",
"63 162 LINE",
"271 162 LINE",
"313 0 LINE",
"325 0 LINE",
"174 591 LINE",
"161 591 LINE",
"10 0 LINE"
);
},
{
closed = 1;
nodes = (
"159 534 LINE",
"167 572 LINE",
"177 532 LINE",
"268 173 LINE",
"66 173 LINE"
);
}
);
width = 334;
},
{
layerId = "9AA098C0-EDBC-463F-BC21-AFCD07A070D0";
paths = (
{
closed = 1;
nodes = (
"50 162 LINE",
"258 162 LINE",
"278 0 LINE",
"290 0 LINE",
"222 591 LINE",
"209 591 LINE",
"-25 0 LINE",
"-13 0 LINE"
);
},
{
closed = 1;
nodes = (
"212 572 LINE",
"216 532 LINE",
"257 173 LINE",
"55 173 LINE",
"199 534 LINE"
);
}
);
width = 335;
}
);
leftKerningGroup = A;
note = A;
rightKerningGroup = A;
unicode = 0041;
},
{
color = 11;
glyphname = Aacute;
lastChange = "2021-11-13 22:48:03 +0000";
layers = (
{
hints = (
{
horizontal = 1;
place = "{0, 21}";
target = up;
type = BottomGhost;
},
{
horizontal = 1;
place = "{162, 11}";
type = Stem;
},
{
horizontal = 1;
place = "{572, 19}";
type = Stem;
},
{
place = "{50, 315}";
type = Stem;
}
);
layerId = "5E1A2ACF-25BB-4872-A226-5327BC7330DB";
paths = (
{
closed = 1;
nodes = (
"62 0 LINE",
"103 162 LINE",
"311 162 LINE",
"353 0 LINE",
"365 0 LINE",
"214 591 LINE",
"201 591 LINE",
"50 0 LINE"
);
},
{
closed = 1;
nodes = (
"199 534 LINE",
"207 572 LINE",
"217 532 LINE",
"308 173 LINE",
"106 173 LINE"
);
},
{
closed = 1;
nodes = (
"251 750 LINE",
"229 750 LINE",
"167 664 LINE",
"178 664 LINE"
);
}
);
width = 415;
},
{
layerId = "9AA098C0-EDBC-463F-BC21-AFCD07A070D0";
paths = (
{
closed = 1;
nodes = (
"95 162 LINE",
"303 162 LINE",
"323 0 LINE",
"335 0 LINE",
"267 591 LINE",
"254 591 LINE",
"20 0 LINE",
"32 0 LINE"
);
},
{
closed = 1;
nodes = (
"257 572 LINE",
"261 532 LINE",
"302 173 LINE",
"100 173 LINE",
"244 534 LINE"
);
},
{
closed = 1;
nodes = (
"304 750 LINE",
"230 664 LINE",
"241 664 LINE",
"326 750 LINE"
);
}
);
userData = {
assembly = "SVTCA[0]	/* SetFreedomAndProjectionVectorToAxis */\012PUSHW[ ]	/* 4 values pushed */\01215 3 13 4 \012CALL[ ]	/* CallFunction */\012IUP[0]	/* InterpolateUntPts */\012IUP[1]	/* InterpolateUntPts */";
};
width = 420;
}
);
note = Aacute;
unicode = 00C1;
},
{
color = 11;
glyphname = Abreve;
lastChange = "2021-11-13 22:48:06 +0000";
layers = (
{
hints = (
{
horizontal = 1;
place = "{0, 21}";
target = up;
type = BottomGhost;
},
{
horizontal = 1;
place = "{162, 11}";
type = Stem;
},
{
horizontal = 1;
place = "{572, 19}";
type = Stem;
},
{
horizontal = 1;
place = "{630, 8}";
type = Stem;
},
{
place = "{119, 11}";
type = Stem;
}
);
layerId = "5E1A2ACF-25BB-4872-A226-5327BC7330DB";
paths = (
{
closed = 1;
nodes = (
"62 0 LINE",
"103 162 LINE",
"311 162 LINE",
"353 0 LINE",
"365 0 LINE",
"214 591 LINE",
"201 591 LINE",
"50 0 LINE"
);
},
{
closed = 1;
nodes = (
"199 534 LINE",
"207 572 LINE",
"217 532 LINE",
"308 173 LINE",
"106 173 LINE"
);
},
{
closed = 1;
nodes = (
"168 638 OFFCURVE",
"137 659 OFFCURVE",
"130 707 CURVE",
"119 707 LINE",
"125 674 OFFCURVE",
"144 630 OFFCURVE",
"208 630 CURVE SMOOTH",
"274 630 OFFCURVE",
"291 674 OFFCURVE",
"297 707 CURVE",
"286 707 LINE",
"279 659 OFFCURVE",
"248 638 OFFCURVE",
"208 638 CURVE SMOOTH"
);
}
);
width = 415;
},
{
layerId = "9AA098C0-EDBC-463F-BC21-AFCD07A070D0";
paths = (
{
closed = 1;
nodes = (
"95 162 LINE",
"303 162 LINE",
"323 0 LINE",
"335 0 LINE",
"267 591 LINE",
"254 591 LINE",
"20 0 LINE",
"32 0 LINE"
);
},
{
closed = 1;
nodes = (
"257 572 LINE",
"261 532 LINE",
"302 173 LINE",
"100 173 LINE",
"244 534 LINE"
);
},
{
closed = 1;
nodes = (
"199 671 OFFCURVE",
"199 707 QCURVE",
"188 707 LINE",
"188 695 OFFCURVE",
"195 667 OFFCURVE",
"212 645 OFFCURVE",
"242 630 OFFCURVE",
"266 630 QCURVE SMOOTH",
"290 630 OFFCURVE",
"325 645 OFFCURVE",
"349 667 OFFCURVE",
"363 695 OFFCURVE",
"366 707 QCURVE",
"355 707 LINE",
"344 671 OFFCURVE",
"297 638 OFFCURVE",
"267 638 QCURVE SMOOTH",
"237 638 OFFCURVE"
);
}
);
width = 420;
}
);
note = Abreve;
unicode = 0102;
},
{
color = 11;
glyphname = Acircumflex;
lastChange = "2021-11-13 22:45:36 +0000";
layers = (
{
hints = (
{
horizontal = 1;
place = "{0, 21}";
target = up;
type = BottomGhost;
},
{
horizontal = 1;
place = "{162, 11}";
type = Stem;
},
{
horizontal = 1;
place = "{572, 19}";
type = Stem;
},
{
horizontal = 1;
place = "{743, 7}";
type = Stem;
},
{
place = "{50, 315}";
type = Stem;
}
);
layerId = "5E1A2ACF-25BB-4872-A226-5327BC7330DB";
paths = (
{
closed = 1;
nodes = (
"62 0 LINE",
"103 162 LINE",
"311 162 LINE",
"353 0 LINE",
"365 0 LINE",
"214 591 LINE",
"201 591 LINE",
"50 0 LINE"
);
},
{
closed = 1;
nodes = (
"199 534 LINE",
"207 572 LINE",
"217 532 LINE",
"308 173 LINE",
"106 173 LINE"
);
},
{
closed = 1;
nodes = (
"201 750 LINE",
"172 719 OFFCURVE",
"139 688 OFFCURVE",
"110 656 CURVE",
"123 656 LINE",
"208 743 LINE",
"292 656 LINE",
"306 656 LINE",
"252 712 OFFCURVE",
"235 729 OFFCURVE",
"217 750 CURVE"
);
}
);
width = 414;
},
{
layerId = "9AA098C0-EDBC-463F-BC21-AFCD07A070D0";
paths = (
{
closed = 1;
nodes = (
"95 162 LINE",
"303 162 LINE",
"323 0 LINE",
"335 0 LINE",
"267 591 LINE",
"254 591 LINE",
"20 0 LINE",
"32 0 LINE"
);
},
{
closed = 1;
nodes = (
"257 572 LINE",
"261 532 LINE",
"302 173 LINE",
"100 173 LINE",
"244 534 LINE"
);
},
{
closed = 1;
nodes = (
"251 727 OFFCURVE",
"197 680 OFFCURVE",
"172 656 QCURVE",
"185 656 LINE",
"282 743 LINE",
"354 656 LINE",
"368 656 LINE",
"351 677 OFFCURVE",
"327 706 OFFCURVE",
"310 727 OFFCURVE",
"298 742 OFFCURVE",
"292 750 QCURVE",
"276 750 LINE"
);
}
);
userData = {
assembly = "SVTCA[0]	/* SetFreedomAndProjectionVectorToAxis */\012PUSHW[ ]	/* 4 values pushed */\01213 3 19 4 \012CALL[ ]	/* CallFunction */\012PUSHW[ ]	/* 1 value pushed */\01219 \012SRP0[ ]	/* SetRefPoint0 */\012PUSHW[ ]	/* 1 value pushed */\01221 \012MDRP[10000]	/* MoveDirectRelPt */\012IUP[0]	/* InterpolateUntPts */\012IUP[1]	/* InterpolateUntPts */";
};
width = 414;
}
);
note = Acircumflex;
unicode = 00C2;
},
{
color = 11;
glyphname = Adieresis;
lastChange = "2021-11-13 22:45:36 +0000";
layers = (
{
hints = (
{
horizontal = 1;
place = "{0, 21}";
target = up;
type = BottomGhost;
},
{
horizontal = 1;
place = "{162, 11}";
type = Stem;
},
{
horizontal = 1;
place = "{572, 19}";
type = Stem;
},
{
horizontal = 1;
place = "{718, 32}";
type = Stem;
},
{
place = "{158, 32}";
type = Stem;
},
{
place = "{254, 32}";
type = Stem;
}
);
layerId = "5E1A2ACF-25BB-4872-A226-5327BC7330DB";
paths = (
{
closed = 1;
nodes = (
"62 0 LINE",
"103 162 LINE",
"311 162 LINE",
"353 0 LINE",
"365 0 LINE",
"214 591 LINE",
"201 591 LINE",
"50 0 LINE"
);
},
{
closed = 1;
nodes = (
"199 534 LINE",
"207 572 LINE",
"217 532 LINE",
"308 173 LINE",
"106 173 LINE"
);
},
{
closed = 1;
nodes = (
"254 723 OFFCURVE",
"259 718 OFFCURVE",
"270 718 CURVE SMOOTH",
"281 718 OFFCURVE",
"286 723 OFFCURVE",
"286 734 CURVE SMOOTH",
"286 745 OFFCURVE",
"281 750 OFFCURVE",
"270 750 CURVE SMOOTH",
"259 750 OFFCURVE",
"254 745 OFFCURVE",
"254 734 CURVE SMOOTH"
);
},
{
closed = 1;
nodes = (
"158 723 OFFCURVE",
"163 718 OFFCURVE",
"174 718 CURVE SMOOTH",
"185 718 OFFCURVE",
"190 723 OFFCURVE",
"190 734 CURVE SMOOTH",
"190 745 OFFCURVE",
"185 750 OFFCURVE",
"174 750 CURVE SMOOTH",
"163 750 OFFCURVE",
"158 745 OFFCURVE",
"158 734 CURVE SMOOTH"
);
}
);
width = 364;
},
{
layerId = "9AA098C0-EDBC-463F-BC21-AFCD07A070D0";
paths = (
{
closed = 1;
nodes = (
"95 162 LINE",
"303 162 LINE",
"323 0 LINE",
"335 0 LINE",
"267 591 LINE",
"254 591 LINE",
"20 0 LINE",
"32 0 LINE"
);
},
{
closed = 1;
nodes = (
"257 572 LINE",
"261 532 LINE",
"302 173 LINE",
"100 173 LINE",
"244 534 LINE"
);
},
{
closed = 1;
nodes = (
"333 718 OFFCURVE",
"340 718 QCURVE SMOOTH",
"355 718 OFFCURVE",
"359 734 QCURVE SMOOTH",
"361 750 OFFCURVE",
"345 750 QCURVE SMOOTH",
"329 750 OFFCURVE",
"327 734 QCURVE",
"325 727 OFFCURVE"
);
},
{
closed = 1;
nodes = (
"237 718 OFFCURVE",
"244 718 QCURVE SMOOTH",
"259 718 OFFCURVE",
"263 734 QCURVE SMOOTH",
"265 750 OFFCURVE",
"249 750 QCURVE SMOOTH",
"233 750 OFFCURVE",
"231 734 QCURVE",
"229 727 OFFCURVE"
);
}
);
width = 364;
}
);
note = Adieresis;
unicode = 00C4;
},
{
color = 11;
glyphname = Agrave;
lastChange = "2021-11-13 22:45:36 +0000";
layers = (
{
hints = (
{
horizontal = 1;
place = "{0, 21}";
target = up;
type = BottomGhost;
},
{
horizontal = 1;
place = "{162, 11}";
type = Stem;
},
{
horizontal = 1;
place = "{572, 19}";
type = Stem;
},
{
place = "{50, 315}";
type = Stem;
}
);
layerId = "5E1A2ACF-25BB-4872-A226-5327BC7330DB";
paths = (
{
closed = 1;
nodes = (
"62 0 LINE",
"103 162 LINE",
"311 162 LINE",
"353 0 LINE",
"365 0 LINE",
"214 591 LINE",
"201 591 LINE",
"50 0 LINE"
);
},
{
closed = 1;
nodes = (
"199 534 LINE",
"207 572 LINE",
"217 532 LINE",
"308 173 LINE",
"106 173 LINE"
);
},
{
closed = 1;
nodes = (
"209 664 LINE",
"220 664 LINE",
"158 750 LINE",
"136 750 LINE"
);
}
);
width = 414;
},
{
layerId = "9AA098C0-EDBC-463F-BC21-AFCD07A070D0";
paths = (
{
closed = 1;
nodes = (
"95 162 LINE",
"303 162 LINE",
"323 0 LINE",
"335 0 LINE",
"267 591 LINE",
"254 591 LINE",
"20 0 LINE",
"32 0 LINE"
);
},
{
closed = 1;
nodes = (
"257 572 LINE",
"261 532 LINE",
"302 173 LINE",
"100 173 LINE",
"244 534 LINE"
);
},
{
closed = 1;
nodes = (
"283 664 LINE",
"233 750 LINE",
"211 750 LINE",
"272 664 LINE"
);
}
);
userData = {
assembly = "SVTCA[0]	/* SetFreedomAndProjectionVectorToAxis */\012PUSHW[ ]	/* 4 values pushed */\01214 3 16 4 \012CALL[ ]	/* CallFunction */\012IUP[0]	/* InterpolateUntPts */\012IUP[1]	/* InterpolateUntPts */";
};
width = 414;
}
);
note = Agrave;
unicode = 00C0;
},
{
color = 11;
glyphname = Amacron;
lastChange = "2021-11-13 22:45:36 +0000";
layers = (
{
hints = (
{
horizontal = 1;
place = "{0, 21}";
target = up;
type = BottomGhost;
},
{
horizontal = 1;
place = "{162, 11}";
type = Stem;
},
{
horizontal = 1;
place = "{572, 19}";
type = Stem;
},
{
horizontal = 1;
place = "{685, 9}";
type = Stem;
},
{
place = "{50, 315}";
type = Stem;
}
);
layerId = "5E1A2ACF-25BB-4872-A226-5327BC7330DB";
paths = (
{
closed = 1;
nodes = (
"62 0 LINE",
"103 162 LINE",
"311 162 LINE",
"353 0 LINE",
"365 0 LINE",
"214 591 LINE",
"201 591 LINE",
"50 0 LINE"
);
},
{
closed = 1;
nodes = (
"199 534 LINE",
"207 572 LINE",
"217 532 LINE",
"308 173 LINE",
"106 173 LINE"
);
},
{
closed = 1;
nodes = (
"111 685 LINE",
"312 685 LINE",
"312 694 LINE",
"111 694 LINE"
);
}
);
width = 414;
},
{
layerId = "9AA098C0-EDBC-463F-BC21-AFCD07A070D0";
paths = (
{
closed = 1;
nodes = (
"95 162 LINE",
"303 162 LINE",
"323 0 LINE",
"335 0 LINE",
"267 591 LINE",
"254 591 LINE",
"20 0 LINE",
"32 0 LINE"
);
},
{
closed = 1;
nodes = (
"257 572 LINE",
"261 532 LINE",
"302 173 LINE",
"100 173 LINE",
"244 534 LINE"
);
},
{
closed = 1;
nodes = (
"366 685 LINE",
"367 694 LINE",
"166 694 LINE",
"165 685 LINE"
);
}
);
width = 414;
}
);
note = Amacron;
unicode = 0100;
},
{
color = 11;
glyphname = Aogonek;
lastChange = "2021-11-13 22:45:36 +0000";
layers = (
{
hints = (
{
horizontal = 1;
place = "{-240, 11}";
type = Stem;
},
{
horizontal = 1;
place = "{0, 21}";
target = up;
type = BottomGhost;
},
{
horizontal = 1;
place = "{162, 11}";
type = Stem;
},
{
horizontal = 1;
place = "{572, 19}";
type = Stem;
},
{
place = "{257, 12}";
type = Stem;
}
);
layerId = "5E1A2ACF-25BB-4872-A226-5327BC7330DB";
paths = (
{
closed = 1;
nodes = (
"62 0 LINE",
"103 162 LINE",
"311 162 LINE",
"353 0 LINE",
"357 0 LINE",
"306 -29 OFFCURVE",
"257 -95 OFFCURVE",
"257 -156 CURVE SMOOTH",
"257 -216 OFFCURVE",
"302 -240 OFFCURVE",
"352 -240 CURVE SMOOTH",
"384 -240 OFFCURVE",
"414 -233 OFFCURVE",
"433 -222 CURVE",
"430 -212 LINE",
"407 -223 OFFCURVE",
"380 -229 OFFCURVE",
"351 -229 CURVE SMOOTH",
"300 -229 OFFCURVE",
"269 -199 OFFCURVE",
"269 -154 CURVE SMOOTH",
"269 -106 OFFCURVE",
"317 -34 OFFCURVE",
"367 0 CURVE",
"365 0 LINE",
"214 591 LINE",
"201 591 LINE",
"50 0 LINE"
);
},
{
closed = 1;
nodes = (
"199 534 LINE",
"207 572 LINE",
"217 532 LINE",
"308 173 LINE",
"106 173 LINE"
);
}
);
width = 477;
},
{
layerId = "9AA098C0-EDBC-463F-BC21-AFCD07A070D0";
paths = (
{
closed = 1;
nodes = (
"129 162 LINE",
"337 162 LINE",
"356 0 LINE",
"360 0 LINE",
"339 -11 OFFCURVE",
"299 -46 OFFCURVE",
"265 -87 OFFCURVE",
"241 -133 OFFCURVE",
"238 -156 QCURVE SMOOTH",
"235 -179 OFFCURVE",
"246 -210 OFFCURVE",
"270 -231 OFFCURVE",
"303 -240 OFFCURVE",
"322 -240 QCURVE SMOOTH",
"346 -240 OFFCURVE",
"391 -230 OFFCURVE",
"405 -222 QCURVE",
"403 -212 LINE",
"366 -229 OFFCURVE",
"322 -229 QCURVE SMOOTH",
"284 -229 OFFCURVE",
"246 -188 OFFCURVE",
"251 -154 QCURVE SMOOTH",
"253 -136 OFFCURVE",
"276 -93 OFFCURVE",
"309 -51 OFFCURVE",
"349 -13 OFFCURVE",
"370 0 QCURVE",
"368 0 LINE",
"300 591 LINE",
"287 591 LINE",
"53 0 LINE",
"65 0 LINE"
);
},
{
closed = 1;
nodes = (
"291 572 LINE",
"295 532 LINE",
"336 173 LINE",
"134 173 LINE",
"277 534 LINE"
);
}
);
userData = {
assembly = "SVTCA[0]	/* SetFreedomAndProjectionVectorToAxis */\012PUSHW[ ]	/* 1 value pushed */\0120 \012RCVT[ ]	/* ReadCVT */\012IF[ ]	/* If */\012PUSHW[ ]	/* 1 value pushed */\0120 \012MDAP[1]	/* MoveDirectAbsPt */\012ELSE[ ]	/* Else */\012PUSHW[ ]	/* 2 values pushed */\0120 5 \012MIAP[0]	/* MoveIndirectAbsPt */\012EIF[ ]	/* EndIf */\012PUSHW[ ]	/* 1 value pushed */\0120 \012RCVT[ ]	/* ReadCVT */\012IF[ ]	/* If */\012PUSHW[ ]	/* 1 value pushed */\0123 \012MDAP[1]	/* MoveDirectAbsPt */\012ELSE[ ]	/* Else */\012PUSHW[ ]	/* 2 values pushed */\0123 5 \012MIAP[0]	/* MoveIndirectAbsPt */\012EIF[ ]	/* EndIf */\012PUSHW[ ]	/* 1 value pushed */\0120 \012RCVT[ ]	/* ReadCVT */\012IF[ ]	/* If */\012PUSHW[ ]	/* 1 value pushed */\01228 \012MDAP[1]	/* MoveDirectAbsPt */\012ELSE[ ]	/* Else */\012PUSHW[ ]	/* 2 values pushed */\01228 5 \012MIAP[0]	/* MoveIndirectAbsPt */\012EIF[ ]	/* EndIf */\012IUP[0]	/* InterpolateUntPts */\012IUP[1]	/* InterpolateUntPts */";
};
width = 477;
}
);
note = Aogonek;
rightKerningGroup = parenright;
unicode = 0104;
},
{
color = 11;
glyphname = Aring;
lastChange = "2021-11-13 22:45:36 +0000";
layers = (
{
hints = (
{
horizontal = 1;
place = "{0, 21}";
target = up;
type = BottomGhost;
},
{
horizontal = 1;
place = "{162, 11}";
type = Stem;
},
{
horizontal = 1;
place = "{587, 10}";
type = Stem;
},
{
horizontal = 1;
place = "{727, 10}";
type = Stem;
},
{
place = "{131, 12}";
type = Stem;
},
{
place = "{269, 12}";
type = Stem;
}
);
layerId = "5E1A2ACF-25BB-4872-A226-5327BC7330DB";
paths = (
{
closed = 1;
nodes = (
"131 623 OFFCURVE",
"161 590 OFFCURVE",
"200 587 CURVE",
"50 0 LINE",
"62 0 LINE",
"103 162 LINE",
"311 162 LINE",
"353 0 LINE",
"365 0 LINE",
"215 587 LINE",
"252 592 OFFCURVE",
"281 623 OFFCURVE",
"281 662 CURVE SMOOTH",
"281 703 OFFCURVE",
"247 737 OFFCURVE",
"206 737 CURVE SMOOTH",
"165 737 OFFCURVE",
"131 703 OFFCURVE",
"131 662 CURVE SMOOTH"
);
},
{
closed = 1;
nodes = (
"199 534 LINE",
"207 572 LINE",
"217 532 LINE",
"308 173 LINE",
"106 173 LINE"
);
},
{
closed = 1;
nodes = (
"143 699 OFFCURVE",
"169 727 OFFCURVE",
"206 727 CURVE SMOOTH",
"243 727 OFFCURVE",
"269 699 OFFCURVE",
"269 662 CURVE SMOOTH",
"269 625 OFFCURVE",
"243 597 OFFCURVE",
"206 597 CURVE SMOOTH",
"169 597 OFFCURVE",
"143 625 OFFCURVE",
"143 662 CURVE SMOOTH"
);
}
);
width = 414;
},
{
layerId = "9AA098C0-EDBC-463F-BC21-AFCD07A070D0";
paths = (
{
closed = 1;
nodes = (
"199 621 OFFCURVE",
"214 601 OFFCURVE",
"238 588 OFFCURVE",
"252 587 QCURVE",
"20 0 LINE",
"32 0 LINE",
"95 162 LINE",
"303 162 LINE",
"323 0 LINE",
"335 0 LINE",
"267 587 LINE",
"296 591 OFFCURVE",
"339 633 OFFCURVE",
"344 662 QCURVE SMOOTH",
"348 693 OFFCURVE",
"310 737 OFFCURVE",
"279 737 QCURVE SMOOTH",
"248 737 OFFCURVE",
"198 693 OFFCURVE",
"194 662 QCURVE SMOOTH",
"192 647 OFFCURVE"
);
},
{
closed = 1;
nodes = (
"257 572 LINE",
"261 532 LINE",
"302 173 LINE",
"100 173 LINE",
"244 534 LINE"
);
},
{
closed = 1;
nodes = (
"250 727 OFFCURVE",
"278 727 QCURVE SMOOTH",
"306 727 OFFCURVE",
"336 690 OFFCURVE",
"332 662 QCURVE SMOOTH",
"327 634 OFFCURVE",
"287 597 OFFCURVE",
"259 597 QCURVE SMOOTH",
"231 597 OFFCURVE",
"201 634 OFFCURVE",
"206 662 QCURVE SMOOTH",
"210 690 OFFCURVE"
);
}
);
userData = {
assembly = "SVTCA[0]	/* SetFreedomAndProjectionVectorToAxis */\012PUSHW[ ]	/* 1 value pushed */\0120 \012RCVT[ ]	/* ReadCVT */\012IF[ ]	/* If */\012PUSHW[ ]	/* 1 value pushed */\0129 \012MDAP[1]	/* MoveDirectAbsPt */\012ELSE[ ]	/* Else */\012PUSHW[ ]	/* 2 values pushed */\0129 11 \012MIAP[0]	/* MoveIndirectAbsPt */\012EIF[ ]	/* EndIf */\012PUSHW[ ]	/* 1 value pushed */\0120 \012RCVT[ ]	/* ReadCVT */\012IF[ ]	/* If */\012PUSHW[ ]	/* 1 value pushed */\01216 \012MDAP[1]	/* MoveDirectAbsPt */\012ELSE[ ]	/* Else */\012PUSHW[ ]	/* 2 values pushed */\01216 11 \012MIAP[0]	/* MoveIndirectAbsPt */\012EIF[ ]	/* EndIf */\012IUP[0]	/* InterpolateUntPts */\012IUP[1]	/* InterpolateUntPts */";
};
width = 414;
}
);
note = Aring;
unicode = 00C5;
},
{
color = 11;
glyphname = Atilde;
lastChange = "2021-11-13 22:45:36 +0000";
layers = (
{
hints = (
{
horizontal = 1;
place = "{0, 21}";
target = up;
type = BottomGhost;
},
{
horizontal = 1;
place = "{162, 11}";
type = Stem;
},
{
horizontal = 1;
place = "{572, 19}";
type = Stem;
},
{
horizontal = 1;
place = "{700, 9}";
type = Stem;
},
{
horizontal = 1;
place = "{742, 8}";
type = Stem;
},
{
place = "{96, 10}";
type = Stem;
},
{
place = "{311, 9}";
type = Stem;
}
);
layerId = "5E1A2ACF-25BB-4872-A226-5327BC7330DB";
paths = (
{
closed = 1;
nodes = (
"62 0 LINE",
"103 162 LINE",
"311 162 LINE",
"353 0 LINE",
"365 0 LINE",
"214 591 LINE",
"201 591 LINE",
"50 0 LINE"
);
},
{
closed = 1;
nodes = (
"199 534 LINE",
"207 572 LINE",
"217 532 LINE",
"308 173 LINE",
"106 173 LINE"
);
},
{
closed = 1;
nodes = (
"295 700 OFFCURVE",
"316 721 OFFCURVE",
"320 748 CURVE",
"311 748 LINE",
"307 716 OFFCURVE",
"286 709 OFFCURVE",
"262 709 CURVE SMOOTH",
"221 709 OFFCURVE",
"194 750 OFFCURVE",
"154 750 CURVE SMOOTH",
"119 750 OFFCURVE",
"100 731 OFFCURVE",
"96 704 CURVE",
"106 704 LINE",
"110 735 OFFCURVE",
"130 742 OFFCURVE",
"154 742 CURVE SMOOTH",
"170 742 OFFCURVE",
"186 733 OFFCURVE",
"198 725 CURVE SMOOTH",
"225 708 OFFCURVE",
"246 700 OFFCURVE",
"262 700 CURVE SMOOTH"
);
}
);
width = 414;
},
{
layerId = "9AA098C0-EDBC-463F-BC21-AFCD07A070D0";
paths = (
{
closed = 1;
nodes = (
"95 162 LINE",
"303 162 LINE",
"323 0 LINE",
"335 0 LINE",
"267 591 LINE",
"254 591 LINE",
"20 0 LINE",
"32 0 LINE"
);
},
{
closed = 1;
nodes = (
"257 572 LINE",
"261 532 LINE",
"302 173 LINE",
"100 173 LINE",
"244 534 LINE"
);
},
{
closed = 1;
nodes = (
"389 728 OFFCURVE",
"395 748 QCURVE",
"386 748 LINE",
"379 724 OFFCURVE",
"349 709 OFFCURVE",
"331 709 QCURVE SMOOTH",
"316 709 OFFCURVE",
"291 722 OFFCURVE",
"268 737 OFFCURVE",
"244 750 OFFCURVE",
"229 750 QCURVE SMOOTH",
"203 750 OFFCURVE",
"170 724 OFFCURVE",
"164 704 QCURVE",
"174 704 LINE",
"181 727 OFFCURVE",
"210 742 OFFCURVE",
"228 742 QCURVE SMOOTH",
"240 742 OFFCURVE",
"261 731 OFFCURVE",
"269 725 QCURVE SMOOTH",
"306 700 OFFCURVE",
"330 700 QCURVE SMOOTH",
"355 700 OFFCURVE"
);
}
);
width = 414;
}
);
note = Atilde;
unicode = 00C3;
},
{
color = 6;
glyphname = AE;
lastChange = "2021-11-13 22:45:36 +0000";
layers = (
{
hints = (
{
horizontal = 1;
place = "{0, 11}";
type = Stem;
},
{
horizontal = 1;
place = "{162, 11}";
type = Stem;
},
{
horizontal = 1;
place = "{306, 11}";
type = Stem;
},
{
horizontal = 1;
place = "{580, 11}";
type = Stem;
},
{
place = "{50, 387}";
type = Stem;
},
{
horizontal = 1;
place = "{568, 23}";
type = Stem;
}
);
layerId = "5E1A2ACF-25BB-4872-A226-5327BC7330DB";
paths = (
{
closed = 1;
nodes = (
"285 0 LINE",
"437 0 LINE",
"437 11 LINE",
"297 11 LINE",
"253 306 LINE",
"386 306 LINE",
"386 317 LINE",
"252 317 LINE",
"216 580 LINE",
"437 580 LINE",
"437 591 LINE",
"200 591 LINE",
"50 0 LINE",
"62 0 LINE",
"103 162 LINE",
"261 162 LINE"
);
},
{
closed = 1;
nodes = (
"205 568 LINE",
"260 173 LINE",
"106 173 LINE"
);
}
);
width = 567;
},
{
layerId = "9AA098C0-EDBC-463F-BC21-AFCD07A070D0";
paths = (
{
closed = 1;
nodes = (
"407 0 LINE",
"408 11 LINE",
"268 11 LINE",
"266 306 LINE",
"399 306 LINE",
"400 317 LINE",
"266 317 LINE",
"267 580 LINE",
"488 580 LINE",
"490 591 LINE",
"253 591 LINE",
"20 0 LINE",
"32 0 LINE",
"95 162 LINE",
"253 162 LINE",
"255 0 LINE"
);
},
{
closed = 1;
nodes = (
"254 173 LINE",
"100 173 LINE",
"254 568 LINE"
);
}
);
width = 567;
}
);
note = AE;
unicode = 00C6;
},
{
color = 6;
glyphname = B;
lastChange = "2021-11-13 22:45:36 +0000";
layers = (
{
hints = (
{
horizontal = 1;
place = "{0, 11}";
type = Stem;
},
{
horizontal = 1;
place = "{306, 11}";
type = Stem;
},
{
horizontal = 1;
place = "{580, 11}";
type = Stem;
},
{
place = "{50, 12}";
type = Stem;
},
{
place = "{311, 12}";
type = Stem;
},
{
place = "{306, 12}";
type = Stem;
}
);
layerId = "5E1A2ACF-25BB-4872-A226-5327BC7330DB";
paths = (
{
closed = 1;
nodes = (
"195 306 LINE SMOOTH",
"259 306 OFFCURVE",
"311 287 OFFCURVE",
"311 214 CURVE SMOOTH",
"311 125 LINE SMOOTH",
"311 26 OFFCURVE",
"269 11 OFFCURVE",
"199 11 CURVE SMOOTH",
"62 11 LINE",
"62 306 LINE"
);
},
{
closed = 1;
nodes = (
"211 580 LINE SMOOTH",
"266 580 OFFCURVE",
"306 553 OFFCURVE",
"306 496 CURVE SMOOTH",
"306 420 LINE SMOOTH",
"306 355 OFFCURVE",
"267 317 OFFCURVE",
"190 317 CURVE SMOOTH",
"62 317 LINE",
"62 580 LINE"
);
},
{
closed = 1;
nodes = (
"50 591 LINE",
"50 0 LINE",
"202 0 LINE SMOOTH",
"275 0 OFFCURVE",
"323 16 OFFCURVE",
"323 120 CURVE SMOOTH",
"323 209 LINE SMOOTH",
"323 269 OFFCURVE",
"290 312 OFFCURVE",
"230 312 CURVE",
"286 321 OFFCURVE",
"318 363 OFFCURVE",
"318 419 CURVE SMOOTH",
"318 494 LINE SMOOTH",
"318 566 OFFCURVE",
"270 591 OFFCURVE",
"211 591 CURVE SMOOTH"
);
}
);
width = 373;
},
{
layerId = "9AA098C0-EDBC-463F-BC21-AFCD07A070D0";
paths = (
{
closed = 1;
nodes = (
"232 306 OFFCURVE",
"273 298 OFFCURVE",
"301 277 OFFCURVE",
"315 241 OFFCURVE",
"311 214 QCURVE SMOOTH",
"298 125 LINE SMOOTH",
"293 88 OFFCURVE",
"271 43 OFFCURVE",
"239 19 OFFCURVE",
"196 11 OFFCURVE",
"170 11 QCURVE SMOOTH",
"33 11 LINE",
"75 306 LINE",
"208 306 LINE SMOOTH"
);
},
{
closed = 1;
nodes = (
"303 580 OFFCURVE",
"351 539 OFFCURVE",
"345 496 QCURVE SMOOTH",
"335 420 LINE SMOOTH",
"327 371 OFFCURVE",
"262 317 OFFCURVE",
"204 317 QCURVE SMOOTH",
"76 317 LINE",
"113 580 LINE",
"262 580 LINE SMOOTH"
);
},
{
closed = 1;
nodes = (
"20 0 LINE",
"172 0 LINE SMOOTH",
"199 0 OFFCURVE",
"245 8 OFFCURVE",
"280 34 OFFCURVE",
"304 81 OFFCURVE",
"309 120 QCURVE SMOOTH",
"322 209 LINE SMOOTH",
"328 254 OFFCURVE",
"288 312 OFFCURVE",
"243 312 QCURVE",
"287 319 OFFCURVE",
"341 377 OFFCURVE",
"346 419 QCURVE SMOOTH",
"357 494 LINE SMOOTH",
"361 521 OFFCURVE",
"349 558 OFFCURVE",
"323 581 OFFCURVE",
"286 591 OFFCURVE",
"264 591 QCURVE SMOOTH",
"103 591 LINE"
);
}
);
userData = {
assembly = "PUSHW[ ]	/* 4 values pushed */\01219 4 13 4 \012CALL[ ]	/* CallFunction */\012PUSHW[ ]	/* 3 values pushed */\01233 13 19 \012SRP1[ ]	/* SetRefPoint1 */\012SRP2[ ]	/* SetRefPoint2 */\012IP[ ]	/* InterpolatePts */\012PUSHW[ ]	/* 1 value pushed */\01219 \012SRP0[ ]	/* SetRefPoint0 */\012PUSHW[ ]	/* 1 value pushed */\01246 \012MDRP[11100]	/* MoveDirectRelPt */\012IUP[0]	/* InterpolateUntPts */\012IUP[1]	/* InterpolateUntPts */";
};
width = 373;
}
);
note = B;
rightKerningGroup = parenright;
unicode = 0042;
},
{
color = 6;
glyphname = C;
lastChange = "2021-11-13 22:45:36 +0000";
layers = (
{
hints = (
{
horizontal = 1;
place = "{-12, 9}";
type = Stem;
},
{
horizontal = 1;
place = "{589, 10}";
type = Stem;
},
{
place = "{50, 12}";
type = Stem;
},
{
place = "{311, 12}";
type = Stem;
}
);
layerId = "5E1A2ACF-25BB-4872-A226-5327BC7330DB";
paths = (
{
closed = 1;
nodes = (
"311 189 LINE",
"311 116 LINE SMOOTH",
"311 12 OFFCURVE",
"256 -3 OFFCURVE",
"186 -3 CURVE SMOOTH",
"117 -3 OFFCURVE",
"62 12 OFFCURVE",
"62 116 CURVE SMOOTH",
"62 467 LINE SMOOTH",
"62 572 OFFCURVE",
"111 589 OFFCURVE",
"186 589 CURVE SMOOTH",
"261 589 OFFCURVE",
"311 574 OFFCURVE",
"311 473 CURVE SMOOTH",
"311 381 LINE",
"323 381 LINE",
"323 469 LINE SMOOTH",
"323 583 OFFCURVE",
"264 599 OFFCURVE",
"187 599 CURVE SMOOTH",
"110 599 OFFCURVE",
"50 585 OFFCURVE",
"50 469 CURVE SMOOTH",
"50 118 LINE SMOOTH",
"50 4 OFFCURVE",
"109 -12 OFFCURVE",
"185 -12 CURVE SMOOTH",
"265 -12 OFFCURVE",
"323 2 OFFCURVE",
"323 118 CURVE SMOOTH",
"323 189 LINE"
);
}
);
width = 373;
},
{
layerId = "9AA098C0-EDBC-463F-BC21-AFCD07A070D0";
paths = (
{
closed = 1;
nodes = (
"298 116 LINE SMOOTH",
"293 77 OFFCURVE",
"267 30 OFFCURVE",
"230 5 OFFCURVE",
"183 -3 OFFCURVE",
"157 -3 QCURVE SMOOTH",
"131 -3 OFFCURVE",
"87 5 OFFCURVE",
"57 30 OFFCURVE",
"44 77 OFFCURVE",
"49 116 QCURVE SMOOTH",
"99 467 LINE SMOOTH",
"104 506 OFFCURVE",
"129 554 OFFCURVE",
"165 581 OFFCURVE",
"212 589 OFFCURVE",
"240 589 QCURVE SMOOTH",
"268 589 OFFCURVE",
"313 581 OFFCURVE",
"343 557 OFFCURVE",
"354 511 OFFCURVE",
"349 473 QCURVE SMOOTH",
"336 381 LINE",
"348 381 LINE",
"360 469 LINE SMOOTH",
"366 512 OFFCURVE",
"353 563 OFFCURVE",
"320 590 OFFCURVE",
"271 599 OFFCURVE",
"242 599 QCURVE SMOOTH",
"213 599 OFFCURVE",
"161 591 OFFCURVE",
"121 564 OFFCURVE",
"93 512 OFFCURVE",
"87 469 QCURVE SMOOTH",
"38 118 LINE SMOOTH",
"32 75 OFFCURVE",
"45 24 OFFCURVE",
"78 -3 OFFCURVE",
"126 -12 OFFCURVE",
"155 -12 QCURVE SMOOTH",
"185 -12 OFFCURVE",
"236 -4 OFFCURVE",
"277 23 OFFCURVE",
"305 74 OFFCURVE",
"311 118 QCURVE SMOOTH",
"321 189 LINE",
"309 189 LINE"
);
}
);
width = 373;
}
);
note = C;
unicode = 0043;
},
{
color = 11;
glyphname = Cacute;
lastChange = "2021-11-13 22:45:36 +0000";
layers = (
{
hints = (
{
horizontal = 1;
place = "{-12, 9}";
type = Stem;
},
{
horizontal = 1;
place = "{589, 10}";
type = Stem;
},
{
place = "{50, 12}";
type = Stem;
},
{
place = "{311, 12}";
type = Stem;
}
);
layerId = "5E1A2ACF-25BB-4872-A226-5327BC7330DB";
paths = (
{
closed = 1;
nodes = (
"311 189 LINE",
"311 116 LINE SMOOTH",
"311 12 OFFCURVE",
"256 -3 OFFCURVE",
"186 -3 CURVE SMOOTH",
"117 -3 OFFCURVE",
"62 12 OFFCURVE",
"62 116 CURVE SMOOTH",
"62 467 LINE SMOOTH",
"62 572 OFFCURVE",
"111 589 OFFCURVE",
"186 589 CURVE SMOOTH",
"261 589 OFFCURVE",
"311 574 OFFCURVE",
"311 473 CURVE SMOOTH",
"311 381 LINE",
"323 381 LINE",
"323 469 LINE SMOOTH",
"323 583 OFFCURVE",
"264 599 OFFCURVE",
"187 599 CURVE SMOOTH",
"110 599 OFFCURVE",
"50 585 OFFCURVE",
"50 469 CURVE SMOOTH",
"50 118 LINE SMOOTH",
"50 4 OFFCURVE",
"109 -12 OFFCURVE",
"185 -12 CURVE SMOOTH",
"265 -12 OFFCURVE",
"323 2 OFFCURVE",
"323 118 CURVE SMOOTH",
"323 189 LINE"
);
},
{
closed = 1;
nodes = (
"230 716 LINE",
"208 716 LINE",
"146 630 LINE",
"157 630 LINE"
);
}
);
width = 373;
},
{
layerId = "9AA098C0-EDBC-463F-BC21-AFCD07A070D0";
paths = (
{
closed = 1;
nodes = (
"298 116 LINE SMOOTH",
"293 77 OFFCURVE",
"267 30 OFFCURVE",
"230 5 OFFCURVE",
"183 -3 OFFCURVE",
"157 -3 QCURVE SMOOTH",
"131 -3 OFFCURVE",
"87 5 OFFCURVE",
"57 30 OFFCURVE",
"44 77 OFFCURVE",
"49 116 QCURVE SMOOTH",
"99 467 LINE SMOOTH",
"104 506 OFFCURVE",
"129 554 OFFCURVE",
"165 581 OFFCURVE",
"212 589 OFFCURVE",
"240 589 QCURVE SMOOTH",
"268 589 OFFCURVE",
"313 581 OFFCURVE",
"343 557 OFFCURVE",
"354 511 OFFCURVE",
"349 473 QCURVE SMOOTH",
"336 381 LINE",
"348 381 LINE",
"360 469 LINE SMOOTH",
"366 512 OFFCURVE",
"353 563 OFFCURVE",
"320 590 OFFCURVE",
"271 599 OFFCURVE",
"242 599 QCURVE SMOOTH",
"213 599 OFFCURVE",
"161 591 OFFCURVE",
"121 564 OFFCURVE",
"93 512 OFFCURVE",
"87 469 QCURVE SMOOTH",
"38 118 LINE SMOOTH",
"32 75 OFFCURVE",
"45 24 OFFCURVE",
"78 -3 OFFCURVE",
"126 -12 OFFCURVE",
"155 -12 QCURVE SMOOTH",
"185 -12 OFFCURVE",
"236 -4 OFFCURVE",
"277 23 OFFCURVE",
"305 74 OFFCURVE",
"311 118 QCURVE SMOOTH",
"321 189 LINE",
"309 189 LINE"
);
},
{
closed = 1;
nodes = (
"280 716 LINE",
"206 630 LINE",
"217 630 LINE",
"302 716 LINE"
);
}
);
userData = {
assembly = "SVTCA[0]	/* SetFreedomAndProjectionVectorToAxis */\012PUSHW[ ]	/* 4 values pushed */\01250 3 48 4 \012CALL[ ]	/* CallFunction */\012IUP[0]	/* InterpolateUntPts */\012IUP[1]	/* InterpolateUntPts */";
};
width = 373;
}
);
note = Cacute;
unicode = 0106;
},
{
color = 11;
glyphname = Ccaron;
lastChange = "2021-11-13 22:45:36 +0000";
layers = (
{
hints = (
{
horizontal = 1;
place = "{-12, 9}";
type = Stem;
},
{
horizontal = 1;
place = "{589, 10}";
type = Stem;
},
{
horizontal = 1;
place = "{630, 7}";
type = Stem;
},
{
place = "{50, 12}";
type = Stem;
},
{
place = "{311, 12}";
type = Stem;
}
);
layerId = "5E1A2ACF-25BB-4872-A226-5327BC7330DB";
paths = (
{
closed = 1;
nodes = (
"311 189 LINE",
"311 116 LINE SMOOTH",
"311 12 OFFCURVE",
"256 -3 OFFCURVE",
"186 -3 CURVE SMOOTH",
"117 -3 OFFCURVE",
"62 12 OFFCURVE",
"62 116 CURVE SMOOTH",
"62 467 LINE SMOOTH",
"62 572 OFFCURVE",
"111 589 OFFCURVE",
"186 589 CURVE SMOOTH",
"261 589 OFFCURVE",
"311 574 OFFCURVE",
"311 473 CURVE SMOOTH",
"311 381 LINE",
"323 381 LINE",
"323 469 LINE SMOOTH",
"323 583 OFFCURVE",
"264 599 OFFCURVE",
"187 599 CURVE SMOOTH",
"110 599 OFFCURVE",
"50 585 OFFCURVE",
"50 469 CURVE SMOOTH",
"50 118 LINE SMOOTH",
"50 4 OFFCURVE",
"109 -12 OFFCURVE",
"185 -12 CURVE SMOOTH",
"265 -12 OFFCURVE",
"323 2 OFFCURVE",
"323 118 CURVE SMOOTH",
"323 189 LINE"
);
},
{
closed = 1;
nodes = (
"194 630 LINE",
"223 661 OFFCURVE",
"256 692 OFFCURVE",
"285 724 CURVE",
"272 724 LINE",
"187 637 LINE",
"103 724 LINE",
"89 724 LINE",
"142 668 OFFCURVE",
"159 649 OFFCURVE",
"178 630 CURVE"
);
}
);
width = 373;
},
{
layerId = "9AA098C0-EDBC-463F-BC21-AFCD07A070D0";
paths = (
{
closed = 1;
nodes = (
"298 116 LINE SMOOTH",
"293 77 OFFCURVE",
"267 30 OFFCURVE",
"230 5 OFFCURVE",
"183 -3 OFFCURVE",
"157 -3 QCURVE SMOOTH",
"131 -3 OFFCURVE",
"87 5 OFFCURVE",
"57 30 OFFCURVE",
"44 77 OFFCURVE",
"49 116 QCURVE SMOOTH",
"99 467 LINE SMOOTH",
"104 506 OFFCURVE",
"129 554 OFFCURVE",
"165 581 OFFCURVE",
"212 589 OFFCURVE",
"240 589 QCURVE SMOOTH",
"268 589 OFFCURVE",
"313 581 OFFCURVE",
"343 557 OFFCURVE",
"354 511 OFFCURVE",
"349 473 QCURVE SMOOTH",
"336 381 LINE",
"348 381 LINE",
"360 469 LINE SMOOTH",
"366 512 OFFCURVE",
"353 563 OFFCURVE",
"320 590 OFFCURVE",
"271 599 OFFCURVE",
"242 599 QCURVE SMOOTH",
"213 599 OFFCURVE",
"161 591 OFFCURVE",
"121 564 OFFCURVE",
"93 512 OFFCURVE",
"87 469 QCURVE SMOOTH",
"38 118 LINE SMOOTH",
"32 75 OFFCURVE",
"45 24 OFFCURVE",
"78 -3 OFFCURVE",
"126 -12 OFFCURVE",
"155 -12 QCURVE SMOOTH",
"185 -12 OFFCURVE",
"236 -4 OFFCURVE",
"277 23 OFFCURVE",
"305 74 OFFCURVE",
"311 118 QCURVE SMOOTH",
"321 189 LINE",
"309 189 LINE"
);
},
{
closed = 1;
nodes = (
"279 653 OFFCURVE",
"332 700 OFFCURVE",
"358 724 QCURVE",
"345 724 LINE",
"248 637 LINE",
"176 724 LINE",
"162 724 LINE",
"179 703 OFFCURVE",
"203 674 OFFCURVE",
"220 653 OFFCURVE",
"232 637 OFFCURVE",
"238 630 QCURVE",
"254 630 LINE"
);
}
);
userData = {
assembly = "SVTCA[0]	/* SetFreedomAndProjectionVectorToAxis */\012PUSHW[ ]	/* 4 values pushed */\01254 3 48 4 \012CALL[ ]	/* CallFunction */\012PUSHW[ ]	/* 1 value pushed */\01254 \012SRP0[ ]	/* SetRefPoint0 */\012PUSHW[ ]	/* 1 value pushed */\01256 \012MDRP[10000]	/* MoveDirectRelPt */\012IUP[0]	/* InterpolateUntPts */\012IUP[1]	/* InterpolateUntPts */";
};
width = 373;
}
);
note = Ccaron;
unicode = 010C;
},
{
color = 11;
glyphname = Ccedilla;
lastChange = "2021-11-13 22:45:36 +0000";
layers = (
{
hints = (
{
horizontal = 1;
place = "{-247, 7}";
type = Stem;
},
{
horizontal = 1;
place = "{-96, 9}";
type = Stem;
},
{
horizontal = 1;
place = "{-12, 9}";
type = Stem;
},
{
horizontal = 1;
place = "{589, 10}";
type = Stem;
},
{
place = "{50, 12}";
type = Stem;
},
{
place = "{266, 11}";
type = Stem;
},
{
place = "{311, 12}";
type = Stem;
},
{
horizontal = 1;
place = "{-115, 21}";
target = up;
type = BottomGhost;
}
);
layerId = "5E1A2ACF-25BB-4872-A226-5327BC7330DB";
paths = (
{
closed = 1;
nodes = (
"109 -115 LINE",
"115 -119 LINE",
"130 -110 OFFCURVE",
"158 -96 OFFCURVE",
"189 -96 CURVE SMOOTH",
"236 -96 OFFCURVE",
"266 -128 OFFCURVE",
"266 -168 CURVE SMOOTH",
"266 -208 OFFCURVE",
"233 -240 OFFCURVE",
"173 -240 CURVE SMOOTH",
"148 -240 OFFCURVE",
"120 -232 OFFCURVE",
"104 -223 CURVE",
"100 -231 LINE",
"123 -240 OFFCURVE",
"146 -247 OFFCURVE",
"173 -247 CURVE SMOOTH",
"248 -247 OFFCURVE",
"277 -210 OFFCURVE",
"277 -162 CURVE SMOOTH",
"277 -123 OFFCURVE",
"247 -87 OFFCURVE",
"192 -87 CURVE SMOOTH",
"179 -87 OFFCURVE",
"149 -92 OFFCURVE",
"126 -104 CURVE",
"180 -12 LINE",
"185 -12 LINE SMOOTH",
"265 -12 OFFCURVE",
"323 2 OFFCURVE",
"323 118 CURVE SMOOTH",
"323 189 LINE",
"311 189 LINE",
"311 116 LINE SMOOTH",
"311 12 OFFCURVE",
"256 -3 OFFCURVE",
"186 -3 CURVE SMOOTH",
"117 -3 OFFCURVE",
"62 12 OFFCURVE",
"62 116 CURVE SMOOTH",
"62 467 LINE SMOOTH",
"62 572 OFFCURVE",
"111 589 OFFCURVE",
"186 589 CURVE SMOOTH",
"261 589 OFFCURVE",
"311 574 OFFCURVE",
"311 473 CURVE SMOOTH",
"311 381 LINE",
"323 381 LINE",
"323 469 LINE SMOOTH",
"323 583 OFFCURVE",
"264 599 OFFCURVE",
"187 599 CURVE SMOOTH",
"110 599 OFFCURVE",
"50 585 OFFCURVE",
"50 469 CURVE SMOOTH",
"50 118 LINE SMOOTH",
"50 12 OFFCURVE",
"100 -9 OFFCURVE",
"168 -12 CURVE"
);
}
);
width = 373;
},
{
layerId = "9AA098C0-EDBC-463F-BC21-AFCD07A070D0";
paths = (
{
closed = 1;
nodes = (
"102 -119 LINE",
"114 -112 OFFCURVE",
"157 -96 OFFCURVE",
"180 -96 QCURVE SMOOTH",
"215 -96 OFFCURVE",
"251 -138 OFFCURVE",
"247 -168 QCURVE SMOOTH",
"242 -198 OFFCURVE",
"188 -240 OFFCURVE",
"143 -240 QCURVE SMOOTH",
"124 -240 OFFCURVE",
"88 -230 OFFCURVE",
"77 -223 QCURVE",
"72 -231 LINE",
"87 -238 OFFCURVE",
"123 -247 OFFCURVE",
"143 -247 QCURVE SMOOTH",
"199 -247 OFFCURVE",
"253 -198 OFFCURVE",
"258 -162 QCURVE SMOOTH",
"263 -133 OFFCURVE",
"225 -87 OFFCURVE",
"184 -87 QCURVE SMOOTH",
"174 -87 OFFCURVE",
"134 -95 OFFCURVE",
"116 -104 QCURVE",
"183 -12 LINE",
"188 -12 LINE SMOOTH",
"218 -12 OFFCURVE",
"269 -4 OFFCURVE",
"310 23 OFFCURVE",
"338 74 OFFCURVE",
"344 118 QCURVE SMOOTH",
"354 189 LINE",
"342 189 LINE",
"332 116 LINE SMOOTH",
"326 77 OFFCURVE",
"300 30 OFFCURVE",
"263 5 OFFCURVE",
"216 -3 OFFCURVE",
"190 -3 QCURVE SMOOTH",
"164 -3 OFFCURVE",
"120 5 OFFCURVE",
"90 30 OFFCURVE",
"77 77 OFFCURVE",
"83 116 QCURVE SMOOTH",
"132 467 LINE SMOOTH",
"137 506 OFFCURVE",
"162 554 OFFCURVE",
"198 581 OFFCURVE",
"245 589 OFFCURVE",
"273 589 QCURVE SMOOTH",
"301 589 OFFCURVE",
"346 581 OFFCURVE",
"376 557 OFFCURVE",
"387 511 OFFCURVE",
"382 473 QCURVE SMOOTH",
"369 381 LINE",
"381 381 LINE",
"393 469 LINE SMOOTH",
"399 512 OFFCURVE",
"386 563 OFFCURVE",
"353 590 OFFCURVE",
"304 599 OFFCURVE",
"275 599 QCURVE SMOOTH",
"246 599 OFFCURVE",
"194 591 OFFCURVE",
"154 564 OFFCURVE",
"126 512 OFFCURVE",
"120 469 QCURVE SMOOTH",
"71 118 LINE SMOOTH",
"65 78 OFFCURVE",
"76 29 OFFCURVE",
"104 0 OFFCURVE",
"145 -11 OFFCURVE",
"171 -12 QCURVE",
"97 -115 LINE"
);
}
);
userData = {
assembly = "SVTCA[0]	/* SetFreedomAndProjectionVectorToAxis */\012PUSHW[ ]	/* 3 values pushed */\01272 76 3 \012CALL[ ]	/* CallFunction */\012PUSHW[ ]	/* 3 values pushed */\01250 76 72 \012SRP1[ ]	/* SetRefPoint1 */\012SRP2[ ]	/* SetRefPoint2 */\012IP[ ]	/* InterpolatePts */\012IUP[0]	/* InterpolateUntPts */\012IUP[1]	/* InterpolateUntPts */";
};
width = 373;
}
);
note = Ccedilla;
unicode = 00C7;
},
{
color = 11;
glyphname = Ccircumflex;
lastChange = "2021-11-13 22:45:36 +0000";
layers = (
{
hints = (
{
horizontal = 1;
place = "{-12, 9}";
type = Stem;
},
{
horizontal = 1;
place = "{589, 10}";
type = Stem;
},
{
horizontal = 1;
place = "{717, 7}";
type = Stem;
},
{
place = "{50, 12}";
type = Stem;
},
{
place = "{311, 12}";
type = Stem;
}
);
layerId = "5E1A2ACF-25BB-4872-A226-5327BC7330DB";
paths = (
{
closed = 1;
nodes = (
"311 189 LINE",
"311 116 LINE SMOOTH",
"311 12 OFFCURVE",
"256 -3 OFFCURVE",
"186 -3 CURVE SMOOTH",
"117 -3 OFFCURVE",
"62 12 OFFCURVE",
"62 116 CURVE SMOOTH",
"62 467 LINE SMOOTH",
"62 572 OFFCURVE",
"111 589 OFFCURVE",
"186 589 CURVE SMOOTH",
"261 589 OFFCURVE",
"311 574 OFFCURVE",
"311 473 CURVE SMOOTH",
"311 381 LINE",
"323 381 LINE",
"323 469 LINE SMOOTH",
"323 583 OFFCURVE",
"264 599 OFFCURVE",
"187 599 CURVE SMOOTH",
"110 599 OFFCURVE",
"50 585 OFFCURVE",
"50 469 CURVE SMOOTH",
"50 118 LINE SMOOTH",
"50 4 OFFCURVE",
"109 -12 OFFCURVE",
"185 -12 CURVE SMOOTH",
"265 -12 OFFCURVE",
"323 2 OFFCURVE",
"323 118 CURVE SMOOTH",
"323 189 LINE"
);
},
{
closed = 1;
nodes = (
"180 724 LINE",
"151 693 OFFCURVE",
"118 662 OFFCURVE",
"89 630 CURVE",
"102 630 LINE",
"187 717 LINE",
"271 630 LINE",
"285 630 LINE",
"231 686 OFFCURVE",
"214 703 OFFCURVE",
"196 724 CURVE"
);
}
);
width = 373;
},
{
layerId = "9AA098C0-EDBC-463F-BC21-AFCD07A070D0";
paths = (
{
closed = 1;
nodes = (
"298 116 LINE SMOOTH",
"293 77 OFFCURVE",
"267 30 OFFCURVE",
"230 5 OFFCURVE",
"183 -3 OFFCURVE",
"157 -3 QCURVE SMOOTH",
"131 -3 OFFCURVE",
"87 5 OFFCURVE",
"57 30 OFFCURVE",
"44 77 OFFCURVE",
"49 116 QCURVE SMOOTH",
"99 467 LINE SMOOTH",
"104 506 OFFCURVE",
"129 554 OFFCURVE",
"165 581 OFFCURVE",
"212 589 OFFCURVE",
"240 589 QCURVE SMOOTH",
"268 589 OFFCURVE",
"313 581 OFFCURVE",
"343 557 OFFCURVE",
"354 511 OFFCURVE",
"349 473 QCURVE SMOOTH",
"336 381 LINE",
"348 381 LINE",
"360 469 LINE SMOOTH",
"366 512 OFFCURVE",
"353 563 OFFCURVE",
"320 590 OFFCURVE",
"271 599 OFFCURVE",
"242 599 QCURVE SMOOTH",
"213 599 OFFCURVE",
"161 591 OFFCURVE",
"121 564 OFFCURVE",
"93 512 OFFCURVE",
"87 469 QCURVE SMOOTH",
"38 118 LINE SMOOTH",
"32 75 OFFCURVE",
"45 24 OFFCURVE",
"78 -3 OFFCURVE",
"126 -12 OFFCURVE",
"155 -12 QCURVE SMOOTH",
"185 -12 OFFCURVE",
"236 -4 OFFCURVE",
"277 23 OFFCURVE",
"305 74 OFFCURVE",
"311 118 QCURVE SMOOTH",
"321 189 LINE",
"309 189 LINE"
);
},
{
closed = 1;
nodes = (
"228 701 OFFCURVE",
"174 654 OFFCURVE",
"149 630 QCURVE",
"162 630 LINE",
"259 717 LINE",
"331 630 LINE",
"345 630 LINE",
"328 651 OFFCURVE",
"304 680 OFFCURVE",
"287 701 OFFCURVE",
"275 716 OFFCURVE",
"269 724 QCURVE",
"253 724 LINE"
);
}
);
userData = {
assembly = "SVTCA[0]	/* SetFreedomAndProjectionVectorToAxis */\012PUSHW[ ]	/* 4 values pushed */\01248 3 54 4 \012CALL[ ]	/* CallFunction */\012PUSHW[ ]	/* 1 value pushed */\01254 \012SRP0[ ]	/* SetRefPoint0 */\012PUSHW[ ]	/* 1 value pushed */\01256 \012MDRP[10000]	/* MoveDirectRelPt */\012IUP[0]	/* InterpolateUntPts */\012IUP[1]	/* InterpolateUntPts */";
};
width = 373;
}
);
note = Ccircumflex;
unicode = 0108;
},
{
color = 11;
glyphname = Cdotaccent;
lastChange = "2021-11-13 22:45:36 +0000";
layers = (
{
hints = (
{
horizontal = 1;
place = "{-12, 9}";
type = Stem;
},
{
horizontal = 1;
place = "{589, 10}";
type = Stem;
},
{
place = "{50, 12}";
type = Stem;
},
{
place = "{311, 12}";
type = Stem;
},
{
horizontal = 1;
place = "{629, 32}";
type = Stem;
},
{
place = "{172, 32}";
type = Stem;
}
);
layerId = "5E1A2ACF-25BB-4872-A226-5327BC7330DB";
paths = (
{
closed = 1;
nodes = (
"311 189 LINE",
"311 116 LINE SMOOTH",
"311 12 OFFCURVE",
"256 -3 OFFCURVE",
"186 -3 CURVE SMOOTH",
"117 -3 OFFCURVE",
"62 12 OFFCURVE",
"62 116 CURVE SMOOTH",
"62 467 LINE SMOOTH",
"62 572 OFFCURVE",
"111 589 OFFCURVE",
"186 589 CURVE SMOOTH",
"261 589 OFFCURVE",
"311 574 OFFCURVE",
"311 473 CURVE SMOOTH",
"311 381 LINE",
"323 381 LINE",
"323 469 LINE SMOOTH",
"323 583 OFFCURVE",
"264 599 OFFCURVE",
"187 599 CURVE SMOOTH",
"110 599 OFFCURVE",
"50 585 OFFCURVE",
"50 469 CURVE SMOOTH",
"50 118 LINE SMOOTH",
"50 4 OFFCURVE",
"109 -12 OFFCURVE",
"185 -12 CURVE SMOOTH",
"265 -12 OFFCURVE",
"323 2 OFFCURVE",
"323 118 CURVE SMOOTH",
"323 189 LINE"
);
},
{
closed = 1;
nodes = (
"172 634 OFFCURVE",
"177 629 OFFCURVE",
"188 629 CURVE SMOOTH",
"199 629 OFFCURVE",
"204 634 OFFCURVE",
"204 645 CURVE SMOOTH",
"204 656 OFFCURVE",
"199 661 OFFCURVE",
"188 661 CURVE SMOOTH",
"177 661 OFFCURVE",
"172 656 OFFCURVE",
"172 645 CURVE SMOOTH"
);
}
);
width = 373;
},
{
layerId = "9AA098C0-EDBC-463F-BC21-AFCD07A070D0";
paths = (
{
closed = 1;
nodes = (
"298 116 LINE SMOOTH",
"293 77 OFFCURVE",
"267 30 OFFCURVE",
"230 5 OFFCURVE",
"183 -3 OFFCURVE",
"157 -3 QCURVE SMOOTH",
"131 -3 OFFCURVE",
"87 5 OFFCURVE",
"57 30 OFFCURVE",
"44 77 OFFCURVE",
"49 116 QCURVE SMOOTH",
"99 467 LINE SMOOTH",
"104 506 OFFCURVE",
"129 554 OFFCURVE",
"165 581 OFFCURVE",
"212 589 OFFCURVE",
"240 589 QCURVE SMOOTH",
"268 589 OFFCURVE",
"313 581 OFFCURVE",
"343 557 OFFCURVE",
"354 511 OFFCURVE",
"349 473 QCURVE SMOOTH",
"336 381 LINE",
"348 381 LINE",
"360 469 LINE SMOOTH",
"366 512 OFFCURVE",
"353 563 OFFCURVE",
"320 590 OFFCURVE",
"271 599 OFFCURVE",
"242 599 QCURVE SMOOTH",
"213 599 OFFCURVE",
"161 591 OFFCURVE",
"121 564 OFFCURVE",
"93 512 OFFCURVE",
"87 469 QCURVE SMOOTH",
"38 118 LINE SMOOTH",
"32 75 OFFCURVE",
"45 24 OFFCURVE",
"78 -3 OFFCURVE",
"126 -12 OFFCURVE",
"155 -12 QCURVE SMOOTH",
"185 -12 OFFCURVE",
"236 -4 OFFCURVE",
"277 23 OFFCURVE",
"305 74 OFFCURVE",
"311 118 QCURVE SMOOTH",
"321 189 LINE",
"309 189 LINE"
);
},
{
closed = 1;
nodes = (
"248 629 QCURVE SMOOTH",
"264 629 OFFCURVE",
"266 645 QCURVE SMOOTH",
"268 661 OFFCURVE",
"252 661 QCURVE SMOOTH",
"236 661 OFFCURVE",
"234 645 QCURVE SMOOTH",
"232 629 OFFCURVE"
);
}
);
userData = {
assembly = "PUSHW[ ]	/* 4 values pushed */\01248 4 12 4 \012CALL[ ]	/* CallFunction */\012IUP[0]	/* InterpolateUntPts */\012IUP[1]	/* InterpolateUntPts */";
};
width = 373;
}
);
note = Cdotaccent;
unicode = 010A;
},
{
color = 6;
glyphname = D;
lastChange = "2021-11-13 22:45:36 +0000";
layers = (
{
hints = (
{
horizontal = 1;
place = "{0, 11}";
type = Stem;
},
{
horizontal = 1;
place = "{582, 9}";
type = Stem;
},
{
place = "{50, 12}";
type = Stem;
},
{
place = "{311, 12}";
type = Stem;
}
);
layerId = "5E1A2ACF-25BB-4872-A226-5327BC7330DB";
paths = (
{
closed = 1;
nodes = (
"202 0 LINE SMOOTH",
"278 0 OFFCURVE",
"323 25 OFFCURVE",
"323 130 CURVE SMOOTH",
"323 461 LINE SMOOTH",
"323 566 OFFCURVE",
"273 591 OFFCURVE",
"202 591 CURVE SMOOTH",
"50 591 LINE",
"50 0 LINE"
);
},
{
closed = 1;
nodes = (
"62 582 LINE",
"202 582 LINE SMOOTH",
"271 582 OFFCURVE",
"311 552 OFFCURVE",
"311 461 CURVE SMOOTH",
"311 130 LINE SMOOTH",
"311 34 OFFCURVE",
"270 11 OFFCURVE",
"202 11 CURVE SMOOTH",
"62 11 LINE"
);
}
);
width = 373;
},
{
layerId = "9AA098C0-EDBC-463F-BC21-AFCD07A070D0";
paths = (
{
closed = 1;
nodes = (
"200 0 OFFCURVE",
"247 11 OFFCURVE",
"282 40 OFFCURVE",
"305 91 OFFCURVE",
"311 130 QCURVE SMOOTH",
"357 461 LINE SMOOTH",
"363 500 OFFCURVE",
"352 551 OFFCURVE",
"324 580 OFFCURVE",
"282 591 OFFCURVE",
"255 591 QCURVE SMOOTH",
"103 591 LINE",
"20 0 LINE",
"172 0 LINE SMOOTH"
);
},
{
closed = 1;
nodes = (
"253 582 LINE SMOOTH",
"305 582 OFFCURVE",
"355 529 OFFCURVE",
"345 461 QCURVE SMOOTH",
"299 130 LINE SMOOTH",
"294 94 OFFCURVE",
"272 48 OFFCURVE",
"241 21 OFFCURVE",
"199 11 OFFCURVE",
"173 11 QCURVE SMOOTH",
"33 11 LINE",
"113 582 LINE"
);
}
);
width = 373;
}
);
note = D;
unicode = 0044;
},
{
color = 6;
glyphname = Eth;
lastChange = "2021-11-13 22:45:36 +0000";
layers = (
{
hints = (
{
horizontal = 1;
place = "{0, 11}";
type = Stem;
},
{
horizontal = 1;
place = "{219, 10}";
type = Stem;
},
{
horizontal = 1;
place = "{582, 9}";
type = Stem;
},
{
place = "{95, 12}";
type = Stem;
},
{
place = "{356, 12}";
type = Stem;
}
);
layerId = "5E1A2ACF-25BB-4872-A226-5327BC7330DB";
paths = (
{
closed = 1;
nodes = (
"50 219 LINE",
"95 219 LINE",
"95 0 LINE",
"247 0 LINE SMOOTH",
"318 0 OFFCURVE",
"368 25 OFFCURVE",
"368 130 CURVE SMOOTH",
"368 461 LINE SMOOTH",
"368 566 OFFCURVE",
"318 591 OFFCURVE",
"247 591 CURVE SMOOTH",
"95 591 LINE",
"95 229 LINE",
"50 229 LINE"
);
},
{
closed = 1;
nodes = (
"107 582 LINE",
"255 582 LINE SMOOTH",
"316 582 OFFCURVE",
"356 552 OFFCURVE",
"356 461 CURVE SMOOTH",
"356 126 LINE SMOOTH",
"356 34 OFFCURVE",
"316 11 OFFCURVE",
"255 11 CURVE SMOOTH",
"107 11 LINE",
"107 219 LINE",
"181 219 LINE",
"181 229 LINE",
"107 229 LINE"
);
}
);
width = 435;
},
{
layerId = "9AA098C0-EDBC-463F-BC21-AFCD07A070D0";
paths = (
{
closed = 1;
nodes = (
"95 219 LINE",
"65 0 LINE",
"217 0 LINE SMOOTH",
"244 0 OFFCURVE",
"289 11 OFFCURVE",
"325 40 OFFCURVE",
"350 91 OFFCURVE",
"356 130 QCURVE SMOOTH",
"402 461 LINE SMOOTH",
"408 500 OFFCURVE",
"397 551 OFFCURVE",
"369 580 OFFCURVE",
"327 591 OFFCURVE",
"300 591 QCURVE SMOOTH",
"148 591 LINE",
"97 229 LINE",
"52 229 LINE",
"50 219 LINE"
);
},
{
closed = 1;
nodes = (
"306 582 LINE SMOOTH",
"352 582 OFFCURVE",
"400 529 OFFCURVE",
"390 461 QCURVE SMOOTH",
"343 126 LINE SMOOTH",
"338 92 OFFCURVE",
"317 47 OFFCURVE",
"287 21 OFFCURVE",
"249 11 OFFCURVE",
"226 11 QCURVE SMOOTH",
"78 11 LINE",
"107 219 LINE",
"181 219 LINE",
"183 229 LINE",
"109 229 LINE",
"158 582 LINE"
);
}
);
userData = {
assembly = "PUSHW[ ]	/* 4 values pushed */\0129 4 21 4 \012CALL[ ]	/* CallFunction */\012PUSHW[ ]	/* 1 value pushed */\01221 \012SRP0[ ]	/* SetRefPoint0 */\012PUSHW[ ]	/* 1 value pushed */\01218 \012MDRP[10000]	/* MoveDirectRelPt */\012PUSHW[ ]	/* 1 value pushed */\01218 \012MDAP[1]	/* MoveDirectAbsPt */\012PUSHW[ ]	/* 1 value pushed */\0129 \012SRP0[ ]	/* SetRefPoint0 */\012PUSHW[ ]	/* 1 value pushed */\01235 \012MDRP[11100]	/* MoveDirectRelPt */\012SVTCA[0]	/* SetFreedomAndProjectionVectorToAxis */\012PUSHW[ ]	/* 1 value pushed */\01232 \012MDAP[1]	/* MoveDirectAbsPt */\012PUSHW[ ]	/* 1 value pushed */\0120 \012RCVT[ ]	/* ReadCVT */\012IF[ ]	/* If */\012PUSHW[ ]	/* 1 value pushed */\01214 \012MDAP[1]	/* MoveDirectAbsPt */\012ELSE[ ]	/* Else */\012PUSHW[ ]	/* 2 values pushed */\01214 5 \012MIAP[0]	/* MoveIndirectAbsPt */\012EIF[ ]	/* EndIf */\012IUP[0]	/* InterpolateUntPts */\012IUP[1]	/* InterpolateUntPts */";
};
width = 435;
}
);
note = Eth;
rightKerningGroup = parenright;
unicode = 00D0;
},
{
color = 11;
glyphname = Dcaron;
lastChange = "2021-11-13 22:45:36 +0000";
layers = (
{
hints = (
{
horizontal = 1;
place = "{0, 11}";
type = Stem;
},
{
horizontal = 1;
place = "{582, 9}";
type = Stem;
},
{
horizontal = 1;
place = "{630, 7}";
type = Stem;
},
{
place = "{50, 12}";
type = Stem;
},
{
place = "{311, 12}";
type = Stem;
}
);
layerId = "5E1A2ACF-25BB-4872-A226-5327BC7330DB";
paths = (
{
closed = 1;
nodes = (
"202 0 LINE SMOOTH",
"278 0 OFFCURVE",
"323 25 OFFCURVE",
"323 130 CURVE SMOOTH",
"323 461 LINE SMOOTH",
"323 566 OFFCURVE",
"273 591 OFFCURVE",
"202 591 CURVE SMOOTH",
"50 591 LINE",
"50 0 LINE"
);
},
{
closed = 1;
nodes = (
"62 582 LINE",
"202 582 LINE SMOOTH",
"271 582 OFFCURVE",
"311 552 OFFCURVE",
"311 461 CURVE SMOOTH",
"311 130 LINE SMOOTH",
"311 34 OFFCURVE",
"270 11 OFFCURVE",
"202 11 CURVE SMOOTH",
"62 11 LINE"
);
},
{
closed = 1;
nodes = (
"189 630 LINE",
"218 661 OFFCURVE",
"251 692 OFFCURVE",
"280 724 CURVE",
"267 724 LINE",
"182 637 LINE",
"98 724 LINE",
"84 724 LINE",
"137 668 OFFCURVE",
"154 649 OFFCURVE",
"173 630 CURVE"
);
}
);
width = 373;
},
{
layerId = "9AA098C0-EDBC-463F-BC21-AFCD07A070D0";
paths = (
{
closed = 1;
nodes = (
"200 0 OFFCURVE",
"247 11 OFFCURVE",
"282 40 OFFCURVE",
"305 91 OFFCURVE",
"311 130 QCURVE SMOOTH",
"357 461 LINE SMOOTH",
"363 500 OFFCURVE",
"352 551 OFFCURVE",
"324 580 OFFCURVE",
"282 591 OFFCURVE",
"255 591 QCURVE SMOOTH",
"103 591 LINE",
"20 0 LINE",
"172 0 LINE SMOOTH"
);
},
{
closed = 1;
nodes = (
"253 582 LINE SMOOTH",
"305 582 OFFCURVE",
"355 529 OFFCURVE",
"345 461 QCURVE SMOOTH",
"299 130 LINE SMOOTH",
"294 94 OFFCURVE",
"272 48 OFFCURVE",
"241 21 OFFCURVE",
"199 11 OFFCURVE",
"173 11 QCURVE SMOOTH",
"33 11 LINE",
"113 582 LINE"
);
},
{
closed = 1;
nodes = (
"272 653 OFFCURVE",
"326 700 OFFCURVE",
"351 724 QCURVE",
"338 724 LINE",
"241 637 LINE",
"169 724 LINE",
"155 724 LINE",
"172 703 OFFCURVE",
"196 674 OFFCURVE",
"213 653 OFFCURVE",
"225 637 OFFCURVE",
"231 630 QCURVE",
"247 630 LINE"
);
}
);
userData = {
assembly = "SVTCA[0]	/* SetFreedomAndProjectionVectorToAxis */\012PUSHW[ ]	/* 4 values pushed */\01232 3 26 4 \012CALL[ ]	/* CallFunction */\012PUSHW[ ]	/* 1 value pushed */\01232 \012SRP0[ ]	/* SetRefPoint0 */\012PUSHW[ ]	/* 1 value pushed */\01234 \012MDRP[10000]	/* MoveDirectRelPt */\012IUP[0]	/* InterpolateUntPts */\012IUP[1]	/* InterpolateUntPts */";
};
width = 373;
}
);
note = Dcaron;
unicode = 010E;
},
{
color = 11;
glyphname = Dcroat;
lastChange = "2021-11-13 22:45:36 +0000";
layers = (
{
hints = (
{
horizontal = 1;
place = "{0, 11}";
type = Stem;
},
{
horizontal = 1;
place = "{219, 10}";
type = Stem;
},
{
horizontal = 1;
place = "{582, 9}";
type = Stem;
},
{
place = "{95, 12}";
type = Stem;
},
{
place = "{356, 12}";
type = Stem;
}
);
layerId = "5E1A2ACF-25BB-4872-A226-5327BC7330DB";
paths = (
{
closed = 1;
nodes = (
"50 219 LINE",
"95 219 LINE",
"95 0 LINE",
"247 0 LINE SMOOTH",
"318 0 OFFCURVE",
"368 25 OFFCURVE",
"368 130 CURVE SMOOTH",
"368 461 LINE SMOOTH",
"368 566 OFFCURVE",
"318 591 OFFCURVE",
"247 591 CURVE SMOOTH",
"95 591 LINE",
"95 229 LINE",
"50 229 LINE"
);
},
{
closed = 1;
nodes = (
"107 582 LINE",
"255 582 LINE SMOOTH",
"316 582 OFFCURVE",
"356 552 OFFCURVE",
"356 461 CURVE SMOOTH",
"356 126 LINE SMOOTH",
"356 34 OFFCURVE",
"316 11 OFFCURVE",
"255 11 CURVE SMOOTH",
"107 11 LINE",
"107 219 LINE",
"181 219 LINE",
"181 229 LINE",
"107 229 LINE"
);
}
);
width = 435;
},
{
layerId = "9AA098C0-EDBC-463F-BC21-AFCD07A070D0";
paths = (
{
closed = 1;
nodes = (
"95 219 LINE",
"65 0 LINE",
"217 0 LINE SMOOTH",
"244 0 OFFCURVE",
"289 11 OFFCURVE",
"325 40 OFFCURVE",
"350 91 OFFCURVE",
"356 130 QCURVE SMOOTH",
"402 461 LINE SMOOTH",
"408 500 OFFCURVE",
"397 551 OFFCURVE",
"369 580 OFFCURVE",
"327 591 OFFCURVE",
"300 591 QCURVE SMOOTH",
"148 591 LINE",
"97 229 LINE",
"52 229 LINE",
"50 219 LINE"
);
},
{
closed = 1;
nodes = (
"306 582 LINE SMOOTH",
"352 582 OFFCURVE",
"400 529 OFFCURVE",
"390 461 QCURVE SMOOTH",
"343 126 LINE SMOOTH",
"338 92 OFFCURVE",
"317 47 OFFCURVE",
"287 21 OFFCURVE",
"249 11 OFFCURVE",
"226 11 QCURVE SMOOTH",
"78 11 LINE",
"107 219 LINE",
"181 219 LINE",
"183 229 LINE",
"109 229 LINE",
"158 582 LINE"
);
}
);
userData = {
assembly = "PUSHW[ ]	/* 4 values pushed */\0129 4 21 4 \012CALL[ ]	/* CallFunction */\012PUSHW[ ]	/* 1 value pushed */\01221 \012SRP0[ ]	/* SetRefPoint0 */\012PUSHW[ ]	/* 1 value pushed */\01218 \012MDRP[10000]	/* MoveDirectRelPt */\012PUSHW[ ]	/* 1 value pushed */\01218 \012MDAP[1]	/* MoveDirectAbsPt */\012PUSHW[ ]	/* 1 value pushed */\0129 \012SRP0[ ]	/* SetRefPoint0 */\012PUSHW[ ]	/* 1 value pushed */\01235 \012MDRP[11100]	/* MoveDirectRelPt */\012SVTCA[0]	/* SetFreedomAndProjectionVectorToAxis */\012PUSHW[ ]	/* 1 value pushed */\01232 \012MDAP[1]	/* MoveDirectAbsPt */\012PUSHW[ ]	/* 1 value pushed */\0120 \012RCVT[ ]	/* ReadCVT */\012IF[ ]	/* If */\012PUSHW[ ]	/* 1 value pushed */\01214 \012MDAP[1]	/* MoveDirectAbsPt */\012ELSE[ ]	/* Else */\012PUSHW[ ]	/* 2 values pushed */\01214 5 \012MIAP[0]	/* MoveIndirectAbsPt */\012EIF[ ]	/* EndIf */\012IUP[0]	/* InterpolateUntPts */\012IUP[1]	/* InterpolateUntPts */";
};
width = 435;
}
);
note = Dcroat;
rightKerningGroup = parenright;
unicode = 0110;
},
{
color = 6;
glyphname = E;
lastChange = "2021-11-13 22:45:36 +0000";
layers = (
{
hints = (
{
horizontal = 1;
place = "{0, 11}";
type = Stem;
},
{
horizontal = 1;
place = "{306, 11}";
type = Stem;
},
{
horizontal = 1;
place = "{580, 11}";
type = Stem;
},
{
place = "{50, 12}";
type = Stem;
}
);
layerId = "5E1A2ACF-25BB-4872-A226-5327BC7330DB";
paths = (
{
closed = 1;
nodes = (
"50 0 LINE",
"291 0 LINE",
"291 11 LINE",
"62 11 LINE",
"62 306 LINE",
"240 306 LINE",
"240 317 LINE",
"62 317 LINE",
"62 580 LINE",
"291 580 LINE",
"291 591 LINE",
"50 591 LINE"
);
}
);
width = 331;
},
{
layerId = "9AA098C0-EDBC-463F-BC21-AFCD07A070D0";
paths = (
{
closed = 1;
nodes = (
"261 0 LINE",
"262 11 LINE",
"33 11 LINE",
"75 306 LINE",
"253 306 LINE",
"254 317 LINE",
"76 317 LINE",
"113 580 LINE",
"342 580 LINE",
"344 591 LINE",
"103 591 LINE",
"20 0 LINE"
);
}
);
width = 331;
}
);
note = E;
unicode = 0045;
},
{
color = 11;
glyphname = Eacute;
lastChange = "2021-11-13 22:45:36 +0000";
layers = (
{
hints = (
{
horizontal = 1;
place = "{0, 11}";
type = Stem;
},
{
horizontal = 1;
place = "{306, 11}";
type = Stem;
},
{
horizontal = 1;
place = "{580, 11}";
type = Stem;
},
{
place = "{50, 12}";
type = Stem;
}
);
layerId = "5E1A2ACF-25BB-4872-A226-5327BC7330DB";
paths = (
{
closed = 1;
nodes = (
"50 0 LINE",
"291 0 LINE",
"291 11 LINE",
"62 11 LINE",
"62 306 LINE",
"240 306 LINE",
"240 317 LINE",
"62 317 LINE",
"62 580 LINE",
"291 580 LINE",
"291 591 LINE",
"50 591 LINE"
);
},
{
closed = 1;
nodes = (
"200 750 LINE",
"178 750 LINE",
"116 664 LINE",
"127 664 LINE"
);
}
);
width = 341;
},
{
layerId = "9AA098C0-EDBC-463F-BC21-AFCD07A070D0";
paths = (
{
closed = 1;
nodes = (
"261 0 LINE",
"262 11 LINE",
"33 11 LINE",
"75 306 LINE",
"253 306 LINE",
"254 317 LINE",
"76 317 LINE",
"113 580 LINE",
"342 580 LINE",
"344 591 LINE",
"103 591 LINE",
"20 0 LINE"
);
},
{
closed = 1;
nodes = (
"253 750 LINE",
"179 664 LINE",
"190 664 LINE",
"275 750 LINE"
);
}
);
userData = {
assembly = "SVTCA[0]	/* SetFreedomAndProjectionVectorToAxis */\012PUSHW[ ]	/* 4 values pushed */\01214 3 12 4 \012CALL[ ]	/* CallFunction */\012IUP[0]	/* InterpolateUntPts */\012IUP[1]	/* InterpolateUntPts */";
};
width = 341;
}
);
note = Eacute;
unicode = 00C9;
},
{
color = 11;
glyphname = Ecaron;
lastChange = "2021-11-13 22:45:36 +0000";
layers = (
{
hints = (
{
horizontal = 1;
place = "{0, 11}";
type = Stem;
},
{
horizontal = 1;
place = "{306, 11}";
type = Stem;
},
{
horizontal = 1;
place = "{580, 11}";
type = Stem;
},
{
horizontal = 1;
place = "{630, 7}";
type = Stem;
},
{
place = "{50, 12}";
type = Stem;
}
);
layerId = "5E1A2ACF-25BB-4872-A226-5327BC7330DB";
paths = (
{
closed = 1;
nodes = (
"50 0 LINE",
"291 0 LINE",
"291 11 LINE",
"62 11 LINE",
"62 306 LINE",
"240 306 LINE",
"240 317 LINE",
"62 317 LINE",
"62 580 LINE",
"291 580 LINE",
"291 591 LINE",
"50 591 LINE"
);
},
{
closed = 1;
nodes = (
"163 630 LINE",
"192 661 OFFCURVE",
"225 692 OFFCURVE",
"254 724 CURVE",
"241 724 LINE",
"156 637 LINE",
"72 724 LINE",
"58 724 LINE",
"111 668 OFFCURVE",
"128 649 OFFCURVE",
"147 630 CURVE"
);
}
);
width = 341;
},
{
layerId = "9AA098C0-EDBC-463F-BC21-AFCD07A070D0";
paths = (
{
closed = 1;
nodes = (
"261 0 LINE",
"262 11 LINE",
"33 11 LINE",
"75 306 LINE",
"253 306 LINE",
"254 317 LINE",
"76 317 LINE",
"113 580 LINE",
"342 580 LINE",
"344 591 LINE",
"103 591 LINE",
"20 0 LINE"
);
},
{
closed = 1;
nodes = (
"246 653 OFFCURVE",
"300 700 OFFCURVE",
"325 724 QCURVE",
"312 724 LINE",
"215 637 LINE",
"143 724 LINE",
"129 724 LINE",
"146 703 OFFCURVE",
"170 674 OFFCURVE",
"187 653 OFFCURVE",
"199 637 OFFCURVE",
"205 630 QCURVE",
"221 630 LINE"
);
}
);
userData = {
assembly = "SVTCA[0]	/* SetFreedomAndProjectionVectorToAxis */\012PUSHW[ ]	/* 4 values pushed */\01218 3 12 4 \012CALL[ ]	/* CallFunction */\012PUSHW[ ]	/* 1 value pushed */\01218 \012SRP0[ ]	/* SetRefPoint0 */\012PUSHW[ ]	/* 1 value pushed */\01220 \012MDRP[10000]	/* MoveDirectRelPt */\012IUP[0]	/* InterpolateUntPts */\012IUP[1]	/* InterpolateUntPts */";
};
width = 341;
}
);
note = Ecaron;
unicode = 011A;
},
{
color = 11;
glyphname = Ecircumflex;
lastChange = "2021-11-13 22:45:36 +0000";
layers = (
{
hints = (
{
horizontal = 1;
place = "{0, 11}";
type = Stem;
},
{
horizontal = 1;
place = "{306, 11}";
type = Stem;
},
{
horizontal = 1;
place = "{580, 11}";
type = Stem;
},
{
horizontal = 1;
place = "{743, 7}";
type = Stem;
},
{
place = "{50, 12}";
type = Stem;
}
);
layerId = "5E1A2ACF-25BB-4872-A226-5327BC7330DB";
paths = (
{
closed = 1;
nodes = (
"50 0 LINE",
"291 0 LINE",
"291 11 LINE",
"62 11 LINE",
"62 306 LINE",
"240 306 LINE",
"240 317 LINE",
"62 317 LINE",
"62 580 LINE",
"291 580 LINE",
"291 591 LINE",
"50 591 LINE"
);
},
{
closed = 1;
nodes = (
"149 750 LINE",
"120 719 OFFCURVE",
"87 688 OFFCURVE",
"58 656 CURVE",
"71 656 LINE",
"156 743 LINE",
"240 656 LINE",
"254 656 LINE",
"200 712 OFFCURVE",
"183 729 OFFCURVE",
"165 750 CURVE"
);
}
);
width = 341;
},
{
layerId = "9AA098C0-EDBC-463F-BC21-AFCD07A070D0";
paths = (
{
closed = 1;
nodes = (
"261 0 LINE",
"262 11 LINE",
"33 11 LINE",
"75 306 LINE",
"253 306 LINE",
"254 317 LINE",
"76 317 LINE",
"113 580 LINE",
"342 580 LINE",
"344 591 LINE",
"103 591 LINE",
"20 0 LINE"
);
},
{
closed = 1;
nodes = (
"199 727 OFFCURVE",
"145 680 OFFCURVE",
"120 656 QCURVE",
"133 656 LINE",
"230 743 LINE",
"302 656 LINE",
"316 656 LINE",
"299 677 OFFCURVE",
"275 706 OFFCURVE",
"258 727 OFFCURVE",
"246 742 OFFCURVE",
"240 750 QCURVE",
"224 750 LINE"
);
}
);
userData = {
assembly = "SVTCA[0]	/* SetFreedomAndProjectionVectorToAxis */\012PUSHW[ ]	/* 4 values pushed */\01212 3 18 4 \012CALL[ ]	/* CallFunction */\012PUSHW[ ]	/* 1 value pushed */\01218 \012SRP0[ ]	/* SetRefPoint0 */\012PUSHW[ ]	/* 1 value pushed */\01220 \012MDRP[10000]	/* MoveDirectRelPt */\012IUP[0]	/* InterpolateUntPts */\012IUP[1]	/* InterpolateUntPts */";
};
width = 341;
}
);
note = Ecircumflex;
unicode = 00CA;
},
{
color = 11;
glyphname = Edieresis;
lastChange = "2021-11-13 22:45:36 +0000";
layers = (
{
hints = (
{
horizontal = 1;
place = "{0, 11}";
type = Stem;
},
{
horizontal = 1;
place = "{306, 11}";
type = Stem;
},
{
horizontal = 1;
place = "{580, 11}";
type = Stem;
},
{
horizontal = 1;
place = "{665, 32}";
type = Stem;
},
{
place = "{50, 12}";
type = Stem;
},
{
place = "{117, 32}";
type = Stem;
},
{
place = "{213, 32}";
type = Stem;
}
);
layerId = "5E1A2ACF-25BB-4872-A226-5327BC7330DB";
paths = (
{
closed = 1;
nodes = (
"50 0 LINE",
"291 0 LINE",
"291 11 LINE",
"62 11 LINE",
"62 306 LINE",
"240 306 LINE",
"240 317 LINE",
"62 317 LINE",
"62 580 LINE",
"291 580 LINE",
"291 591 LINE",
"50 591 LINE"
);
},
{
closed = 1;
nodes = (
"213 670 OFFCURVE",
"218 665 OFFCURVE",
"229 665 CURVE SMOOTH",
"240 665 OFFCURVE",
"245 670 OFFCURVE",
"245 681 CURVE SMOOTH",
"245 692 OFFCURVE",
"240 697 OFFCURVE",
"229 697 CURVE SMOOTH",
"218 697 OFFCURVE",
"213 692 OFFCURVE",
"213 681 CURVE SMOOTH"
);
},
{
closed = 1;
nodes = (
"117 670 OFFCURVE",
"122 665 OFFCURVE",
"133 665 CURVE SMOOTH",
"144 665 OFFCURVE",
"149 670 OFFCURVE",
"149 681 CURVE SMOOTH",
"149 692 OFFCURVE",
"144 697 OFFCURVE",
"133 697 CURVE SMOOTH",
"122 697 OFFCURVE",
"117 692 OFFCURVE",
"117 681 CURVE SMOOTH"
);
}
);
width = 341;
},
{
layerId = "9AA098C0-EDBC-463F-BC21-AFCD07A070D0";
paths = (
{
closed = 1;
nodes = (
"261 0 LINE",
"262 11 LINE",
"33 11 LINE",
"75 306 LINE",
"253 306 LINE",
"254 317 LINE",
"76 317 LINE",
"113 580 LINE",
"342 580 LINE",
"344 591 LINE",
"103 591 LINE",
"20 0 LINE"
);
},
{
closed = 1;
nodes = (
"292 665 QCURVE SMOOTH",
"308 665 OFFCURVE",
"310 681 QCURVE SMOOTH",
"312 697 OFFCURVE",
"296 697 QCURVE SMOOTH",
"280 697 OFFCURVE",
"278 681 QCURVE SMOOTH",
"276 665 OFFCURVE"
);
},
{
closed = 1;
nodes = (
"196 665 QCURVE SMOOTH",
"212 665 OFFCURVE",
"214 681 QCURVE SMOOTH",
"216 697 OFFCURVE",
"200 697 QCURVE SMOOTH",
"184 697 OFFCURVE",
"182 681 QCURVE SMOOTH",
"180 665 OFFCURVE"
);
}
);
width = 341;
}
);
note = Edieresis;
unicode = 00CB;
},
{
color = 11;
glyphname = Edotaccent;
lastChange = "2021-11-13 22:45:36 +0000";
layers = (
{
hints = (
{
horizontal = 1;
place = "{0, 11}";
type = Stem;
},
{
horizontal = 1;
place = "{306, 11}";
type = Stem;
},
{
horizontal = 1;
place = "{580, 11}";
type = Stem;
},
{
horizontal = 1;
place = "{630, 32}";
type = Stem;
},
{
place = "{50, 12}";
type = Stem;
},
{
place = "{141, 32}";
type = Stem;
}
);
layerId = "5E1A2ACF-25BB-4872-A226-5327BC7330DB";
paths = (
{
closed = 1;
nodes = (
"50 0 LINE",
"291 0 LINE",
"291 11 LINE",
"62 11 LINE",
"62 306 LINE",
"240 306 LINE",
"240 317 LINE",
"62 317 LINE",
"62 580 LINE",
"291 580 LINE",
"291 591 LINE",
"50 591 LINE"
);
},
{
closed = 1;
nodes = (
"141 635 OFFCURVE",
"146 630 OFFCURVE",
"157 630 CURVE SMOOTH",
"168 630 OFFCURVE",
"173 635 OFFCURVE",
"173 646 CURVE SMOOTH",
"173 657 OFFCURVE",
"168 662 OFFCURVE",
"157 662 CURVE SMOOTH",
"146 662 OFFCURVE",
"141 657 OFFCURVE",
"141 646 CURVE SMOOTH"
);
}
);
width = 341;
},
{
layerId = "9AA098C0-EDBC-463F-BC21-AFCD07A070D0";
paths = (
{
closed = 1;
nodes = (
"261 0 LINE",
"262 11 LINE",
"33 11 LINE",
"75 306 LINE",
"253 306 LINE",
"254 317 LINE",
"76 317 LINE",
"113 580 LINE",
"342 580 LINE",
"344 591 LINE",
"103 591 LINE",
"20 0 LINE"
);
},
{
closed = 1;
nodes = (
"215 630 QCURVE SMOOTH",
"231 630 OFFCURVE",
"233 646 QCURVE",
"235 653 OFFCURVE",
"227 662 OFFCURVE",
"220 662 QCURVE SMOOTH",
"205 662 OFFCURVE",
"201 646 QCURVE SMOOTH",
"199 630 OFFCURVE"
);
}
);
width = 341;
}
);
note = Edotaccent;
unicode = 0116;
},
{
color = 11;
glyphname = Egrave;
lastChange = "2021-11-13 22:45:36 +0000";
layers = (
{
hints = (
{
horizontal = 1;
place = "{0, 11}";
type = Stem;
},
{
horizontal = 1;
place = "{306, 11}";
type = Stem;
},
{
horizontal = 1;
place = "{580, 11}";
type = Stem;
},
{
place = "{50, 12}";
type = Stem;
}
);
layerId = "5E1A2ACF-25BB-4872-A226-5327BC7330DB";
paths = (
{
closed = 1;
nodes = (
"50 0 LINE",
"291 0 LINE",
"291 11 LINE",
"62 11 LINE",
"62 306 LINE",
"240 306 LINE",
"240 317 LINE",
"62 317 LINE",
"62 580 LINE",
"291 580 LINE",
"291 591 LINE",
"50 591 LINE"
);
},
{
closed = 1;
nodes = (
"165 664 LINE",
"176 664 LINE",
"114 750 LINE",
"92 750 LINE"
);
}
);
width = 341;
},
{
layerId = "9AA098C0-EDBC-463F-BC21-AFCD07A070D0";
paths = (
{
closed = 1;
nodes = (
"261 0 LINE",
"262 11 LINE",
"33 11 LINE",
"75 306 LINE",
"253 306 LINE",
"254 317 LINE",
"76 317 LINE",
"113 580 LINE",
"342 580 LINE",
"344 591 LINE",
"103 591 LINE",
"20 0 LINE"
);
},
{
closed = 1;
nodes = (
"239 664 LINE",
"189 750 LINE",
"167 750 LINE",
"228 664 LINE"
);
}
);
userData = {
assembly = "SVTCA[0]	/* SetFreedomAndProjectionVectorToAxis */\012PUSHW[ ]	/* 4 values pushed */\01213 3 15 4 \012CALL[ ]	/* CallFunction */\012IUP[0]	/* InterpolateUntPts */\012IUP[1]	/* InterpolateUntPts */";
};
width = 341;
}
);
note = Egrave;
unicode = 00C8;
},
{
color = 11;
glyphname = Emacron;
lastChange = "2021-11-13 22:45:36 +0000";
layers = (
{
hints = (
{
horizontal = 1;
place = "{0, 11}";
type = Stem;
},
{
horizontal = 1;
place = "{306, 11}";
type = Stem;
},
{
horizontal = 1;
place = "{580, 11}";
type = Stem;
},
{
horizontal = 1;
place = "{685, 9}";
type = Stem;
},
{
place = "{50, 12}";
type = Stem;
}
);
layerId = "5E1A2ACF-25BB-4872-A226-5327BC7330DB";
paths = (
{
closed = 1;
nodes = (
"50 0 LINE",
"291 0 LINE",
"291 11 LINE",
"62 11 LINE",
"62 306 LINE",
"240 306 LINE",
"240 317 LINE",
"62 317 LINE",
"62 580 LINE",
"291 580 LINE",
"291 591 LINE",
"50 591 LINE"
);
},
{
closed = 1;
nodes = (
"75 685 LINE",
"276 685 LINE",
"276 694 LINE",
"75 694 LINE"
);
}
);
width = 341;
},
{
layerId = "9AA098C0-EDBC-463F-BC21-AFCD07A070D0";
paths = (
{
closed = 1;
nodes = (
"261 0 LINE",
"262 11 LINE",
"33 11 LINE",
"75 306 LINE",
"253 306 LINE",
"254 317 LINE",
"76 317 LINE",
"113 580 LINE",
"342 580 LINE",
"344 591 LINE",
"103 591 LINE",
"20 0 LINE"
);
},
{
closed = 1;
nodes = (
"334 685 LINE",
"335 694 LINE",
"134 694 LINE",
"133 685 LINE"
);
}
);
width = 341;
}
);
note = Emacron;
unicode = 0112;
},
{
color = 11;
glyphname = Eogonek;
lastChange = "2021-11-13 22:45:36 +0000";
layers = (
{
hints = (
{
horizontal = 1;
place = "{-240, 11}";
type = Stem;
},
{
horizontal = 1;
place = "{0, 11}";
type = Stem;
},
{
horizontal = 1;
place = "{306, 11}";
type = Stem;
},
{
horizontal = 1;
place = "{580, 11}";
type = Stem;
},
{
place = "{50, 12}";
type = Stem;
},
{
place = "{74, 12}";
type = Stem;
}
);
layerId = "5E1A2ACF-25BB-4872-A226-5327BC7330DB";
paths = (
{
closed = 1;
nodes = (
"50 0 LINE",
"174 0 LINE",
"123 -29 OFFCURVE",
"74 -95 OFFCURVE",
"74 -156 CURVE SMOOTH",
"74 -216 OFFCURVE",
"119 -240 OFFCURVE",
"169 -240 CURVE SMOOTH",
"201 -240 OFFCURVE",
"231 -233 OFFCURVE",
"250 -222 CURVE",
"247 -212 LINE",
"224 -223 OFFCURVE",
"197 -229 OFFCURVE",
"168 -229 CURVE SMOOTH",
"117 -229 OFFCURVE",
"86 -199 OFFCURVE",
"86 -154 CURVE SMOOTH",
"86 -106 OFFCURVE",
"134 -34 OFFCURVE",
"184 0 CURVE",
"291 0 LINE",
"291 11 LINE",
"62 11 LINE",
"62 306 LINE",
"240 306 LINE",
"240 317 LINE",
"62 317 LINE",
"62 580 LINE",
"291 580 LINE",
"291 591 LINE",
"50 591 LINE"
);
}
);
width = 341;
},
{
layerId = "9AA098C0-EDBC-463F-BC21-AFCD07A070D0";
paths = (
{
closed = 1;
nodes = (
"177 0 LINE",
"156 -11 OFFCURVE",
"116 -46 OFFCURVE",
"82 -87 OFFCURVE",
"58 -133 OFFCURVE",
"55 -156 QCURVE SMOOTH",
"52 -179 OFFCURVE",
"63 -210 OFFCURVE",
"87 -231 OFFCURVE",
"120 -240 OFFCURVE",
"139 -240 QCURVE SMOOTH",
"163 -240 OFFCURVE",
"208 -230 OFFCURVE",
"222 -222 QCURVE",
"220 -212 LINE",
"183 -229 OFFCURVE",
"139 -229 QCURVE SMOOTH",
"101 -229 OFFCURVE",
"63 -188 OFFCURVE",
"68 -154 QCURVE SMOOTH",
"70 -136 OFFCURVE",
"93 -93 OFFCURVE",
"126 -51 OFFCURVE",
"166 -13 OFFCURVE",
"187 0 QCURVE",
"294 0 LINE",
"296 11 LINE",
"67 11 LINE",
"108 306 LINE",
"286 306 LINE",
"288 317 LINE",
"110 317 LINE",
"147 580 LINE",
"376 580 LINE",
"377 591 LINE",
"136 591 LINE",
"53 0 LINE"
);
}
);
userData = {
assembly = "SVTCA[0]	/* SetFreedomAndProjectionVectorToAxis */\012PUSHW[ ]	/* 1 value pushed */\0120 \012RCVT[ ]	/* ReadCVT */\012IF[ ]	/* If */\012PUSHW[ ]	/* 1 value pushed */\01210 \012MDAP[1]	/* MoveDirectAbsPt */\012ELSE[ ]	/* Else */\012PUSHW[ ]	/* 2 values pushed */\01210 5 \012MIAP[0]	/* MoveIndirectAbsPt */\012EIF[ ]	/* EndIf */\012PUSHW[ ]	/* 1 value pushed */\0120 \012RCVT[ ]	/* ReadCVT */\012IF[ ]	/* If */\012PUSHW[ ]	/* 1 value pushed */\01235 \012MDAP[1]	/* MoveDirectAbsPt */\012ELSE[ ]	/* Else */\012PUSHW[ ]	/* 2 values pushed */\01235 5 \012MIAP[0]	/* MoveIndirectAbsPt */\012EIF[ ]	/* EndIf */\012IUP[0]	/* InterpolateUntPts */\012IUP[1]	/* InterpolateUntPts */";
};
width = 341;
}
);
note = Eogonek;
unicode = 0118;
},
{
color = 6;
glyphname = F;
lastChange = "2021-11-13 22:45:36 +0000";
layers = (
{
hints = (
{
horizontal = 1;
place = "{0, 21}";
target = up;
type = BottomGhost;
},
{
horizontal = 1;
place = "{306, 11}";
type = Stem;
},
{
horizontal = 1;
place = "{580, 11}";
type = Stem;
},
{
place = "{50, 12}";
type = Stem;
}
);
layerId = "5E1A2ACF-25BB-4872-A226-5327BC7330DB";
paths = (
{
closed = 1;
nodes = (
"50 0 LINE",
"62 0 LINE",
"62 306 LINE",
"240 306 LINE",
"240 317 LINE",
"62 317 LINE",
"62 580 LINE",
"291 580 LINE",
"291 591 LINE",
"50 591 LINE"
);
}
);
width = 316;
},
{
layerId = "9AA098C0-EDBC-463F-BC21-AFCD07A070D0";
paths = (
{
closed = 1;
nodes = (
"32 0 LINE",
"75 306 LINE",
"253 306 LINE",
"254 317 LINE",
"76 317 LINE",
"113 580 LINE",
"342 580 LINE",
"344 591 LINE",
"103 591 LINE",
"20 0 LINE"
);
}
);
userData = {
assembly = "SVTCA[0]	/* SetFreedomAndProjectionVectorToAxis */\012PUSHW[ ]	/* 1 value pushed */\0120 \012RCVT[ ]	/* ReadCVT */\012IF[ ]	/* If */\012PUSHW[ ]	/* 1 value pushed */\0128 \012MDAP[1]	/* MoveDirectAbsPt */\012ELSE[ ]	/* Else */\012PUSHW[ ]	/* 2 values pushed */\0128 5 \012MIAP[0]	/* MoveIndirectAbsPt */\012EIF[ ]	/* EndIf */\012IUP[0]	/* InterpolateUntPts */\012IUP[1]	/* InterpolateUntPts */";
};
width = 316;
}
);
leftKerningGroup = F;
note = F;
rightKerningGroup = F;
unicode = 0046;
},
{
color = 6;
glyphname = G;
lastChange = "2021-11-13 22:45:36 +0000";
layers = (
{
hints = (
{
horizontal = 1;
place = "{-12, 9}";
type = Stem;
},
{
horizontal = 1;
place = "{257, 9}";
type = Stem;
},
{
horizontal = 1;
place = "{589, 10}";
type = Stem;
},
{
place = "{50, 12}";
type = Stem;
},
{
place = "{311, 12}";
type = Stem;
},
{
horizontal = 1;
place = "{0, 21}";
target = up;
type = BottomGhost;
}
);
layerId = "5E1A2ACF-25BB-4872-A226-5327BC7330DB";
paths = (
{
closed = 1;
nodes = (
"316 0 LINE",
"323 0 LINE",
"323 266 LINE",
"204 266 LINE",
"204 257 LINE",
"311 257 LINE",
"311 118 LINE SMOOTH",
"311 42 OFFCURVE",
"254 -3 OFFCURVE",
"186 -3 CURVE SMOOTH",
"117 -3 OFFCURVE",
"62 11 OFFCURVE",
"62 118 CURVE SMOOTH",
"62 468 LINE SMOOTH",
"62 572 OFFCURVE",
"109 589 OFFCURVE",
"186 589 CURVE SMOOTH",
"267 589 OFFCURVE",
"311 572 OFFCURVE",
"311 468 CURVE SMOOTH",
"311 401 LINE",
"323 401 LINE",
"323 469 LINE SMOOTH",
"323 583 OFFCURVE",
"267 599 OFFCURVE",
"188 599 CURVE SMOOTH",
"109 599 OFFCURVE",
"50 585 OFFCURVE",
"50 469 CURVE SMOOTH",
"50 118 LINE SMOOTH",
"50 4 OFFCURVE",
"109 -12 OFFCURVE",
"185 -12 CURVE SMOOTH",
"246 -12 OFFCURVE",
"296 18 OFFCURVE",
"312 69 CURVE"
);
}
);
width = 368;
},
{
layerId = "9AA098C0-EDBC-463F-BC21-AFCD07A070D0";
paths = (
{
closed = 1;
nodes = (
"294 0 LINE",
"332 266 LINE",
"213 266 LINE",
"211 257 LINE",
"318 257 LINE",
"299 118 LINE SMOOTH",
"295 89 OFFCURVE",
"269 45 OFFCURVE",
"230 13 OFFCURVE",
"182 -3 OFFCURVE",
"157 -3 QCURVE SMOOTH",
"131 -3 OFFCURVE",
"87 5 OFFCURVE",
"57 30 OFFCURVE",
"44 78 OFFCURVE",
"50 118 QCURVE SMOOTH",
"99 468 LINE SMOOTH",
"105 507 OFFCURVE",
"128 555 OFFCURVE",
"164 580 OFFCURVE",
"211 589 OFFCURVE",
"240 589 QCURVE SMOOTH",
"270 589 OFFCURVE",
"316 580 OFFCURVE",
"344 555 OFFCURVE",
"354 507 OFFCURVE",
"348 468 QCURVE SMOOTH",
"339 401 LINE",
"351 401 LINE",
"360 469 LINE SMOOTH",
"366 512 OFFCURVE",
"353 563 OFFCURVE",
"321 590 OFFCURVE",
"273 599 OFFCURVE",
"243 599 QCURVE SMOOTH",
"213 599 OFFCURVE",
"162 591 OFFCURVE",
"121 564 OFFCURVE",
"93 512 OFFCURVE",
"87 469 QCURVE SMOOTH",
"38 118 LINE SMOOTH",
"32 75 OFFCURVE",
"45 24 OFFCURVE",
"78 -3 OFFCURVE",
"126 -12 OFFCURVE",
"155 -12 QCURVE SMOOTH",
"201 -12 OFFCURVE",
"276 31 OFFCURVE",
"293 69 QCURVE",
"287 0 LINE"
);
}
);
userData = {
assembly = "SVTCA[0]	/* SetFreedomAndProjectionVectorToAxis */\012PUSHW[ ]	/* 1 value pushed */\0120 \012RCVT[ ]	/* ReadCVT */\012IF[ ]	/* If */\012PUSHW[ ]	/* 1 value pushed */\01238 \012MDAP[1]	/* MoveDirectAbsPt */\012ELSE[ ]	/* Else */\012PUSHW[ ]	/* 2 values pushed */\01238 5 \012MIAP[0]	/* MoveIndirectAbsPt */\012EIF[ ]	/* EndIf */\012PUSHW[ ]	/* 1 value pushed */\0120 \012RCVT[ ]	/* ReadCVT */\012IF[ ]	/* If */\012PUSHW[ ]	/* 1 value pushed */\01248 \012MDAP[1]	/* MoveDirectAbsPt */\012ELSE[ ]	/* Else */\012PUSHW[ ]	/* 2 values pushed */\01248 5 \012MIAP[0]	/* MoveIndirectAbsPt */\012EIF[ ]	/* EndIf */\012IUP[0]	/* InterpolateUntPts */\012IUP[1]	/* InterpolateUntPts */";
};
width = 368;
}
);
note = G;
unicode = 0047;
},
{
color = 11;
glyphname = Gbreve;
lastChange = "2021-11-13 22:45:36 +0000";
layers = (
{
hints = (
{
horizontal = 1;
place = "{-12, 9}";
type = Stem;
},
{
horizontal = 1;
place = "{257, 9}";
type = Stem;
},
{
horizontal = 1;
place = "{589, 10}";
type = Stem;
},
{
horizontal = 1;
place = "{630, 8}";
type = Stem;
},
{
place = "{50, 12}";
type = Stem;
},
{
place = "{311, 12}";
type = Stem;
},
{
horizontal = 1;
place = "{0, 21}";
target = up;
type = BottomGhost;
},
{
place = "{103, 11}";
type = Stem;
}
);
layerId = "5E1A2ACF-25BB-4872-A226-5327BC7330DB";
paths = (
{
closed = 1;
nodes = (
"316 0 LINE",
"323 0 LINE",
"323 266 LINE",
"204 266 LINE",
"204 257 LINE",
"311 257 LINE",
"311 118 LINE SMOOTH",
"311 42 OFFCURVE",
"254 -3 OFFCURVE",
"186 -3 CURVE SMOOTH",
"117 -3 OFFCURVE",
"62 11 OFFCURVE",
"62 118 CURVE SMOOTH",
"62 468 LINE SMOOTH",
"62 572 OFFCURVE",
"109 589 OFFCURVE",
"186 589 CURVE SMOOTH",
"267 589 OFFCURVE",
"311 572 OFFCURVE",
"311 468 CURVE SMOOTH",
"311 401 LINE",
"323 401 LINE",
"323 469 LINE SMOOTH",
"323 583 OFFCURVE",
"267 599 OFFCURVE",
"188 599 CURVE SMOOTH",
"109 599 OFFCURVE",
"50 585 OFFCURVE",
"50 469 CURVE SMOOTH",
"50 118 LINE SMOOTH",
"50 4 OFFCURVE",
"109 -12 OFFCURVE",
"185 -12 CURVE SMOOTH",
"246 -12 OFFCURVE",
"296 18 OFFCURVE",
"312 69 CURVE"
);
},
{
closed = 1;
nodes = (
"152 638 OFFCURVE",
"121 659 OFFCURVE",
"114 707 CURVE",
"103 707 LINE",
"109 674 OFFCURVE",
"128 630 OFFCURVE",
"192 630 CURVE SMOOTH",
"258 630 OFFCURVE",
"275 674 OFFCURVE",
"281 707 CURVE",
"270 707 LINE",
"263 659 OFFCURVE",
"232 638 OFFCURVE",
"192 638 CURVE SMOOTH"
);
}
);
width = 373;
},
{
layerId = "9AA098C0-EDBC-463F-BC21-AFCD07A070D0";
paths = (
{
closed = 1;
nodes = (
"294 0 LINE",
"332 266 LINE",
"213 266 LINE",
"211 257 LINE",
"318 257 LINE",
"299 118 LINE SMOOTH",
"295 89 OFFCURVE",
"269 45 OFFCURVE",
"230 13 OFFCURVE",
"182 -3 OFFCURVE",
"157 -3 QCURVE SMOOTH",
"131 -3 OFFCURVE",
"87 5 OFFCURVE",
"57 30 OFFCURVE",
"44 78 OFFCURVE",
"50 118 QCURVE SMOOTH",
"99 468 LINE SMOOTH",
"105 507 OFFCURVE",
"128 555 OFFCURVE",
"164 580 OFFCURVE",
"211 589 OFFCURVE",
"240 589 QCURVE SMOOTH",
"270 589 OFFCURVE",
"316 580 OFFCURVE",
"344 555 OFFCURVE",
"354 507 OFFCURVE",
"348 468 QCURVE SMOOTH",
"339 401 LINE",
"351 401 LINE",
"360 469 LINE SMOOTH",
"366 512 OFFCURVE",
"353 563 OFFCURVE",
"321 590 OFFCURVE",
"273 599 OFFCURVE",
"243 599 QCURVE SMOOTH",
"213 599 OFFCURVE",
"162 591 OFFCURVE",
"121 564 OFFCURVE",
"93 512 OFFCURVE",
"87 469 QCURVE SMOOTH",
"38 118 LINE SMOOTH",
"32 75 OFFCURVE",
"45 24 OFFCURVE",
"78 -3 OFFCURVE",
"126 -12 OFFCURVE",
"155 -12 QCURVE SMOOTH",
"201 -12 OFFCURVE",
"276 31 OFFCURVE",
"293 69 QCURVE",
"287 0 LINE"
);
},
{
closed = 1;
nodes = (
"185 671 OFFCURVE",
"185 707 QCURVE",
"174 707 LINE",
"174 695 OFFCURVE",
"181 667 OFFCURVE",
"198 645 OFFCURVE",
"228 630 OFFCURVE",
"252 630 QCURVE SMOOTH",
"276 630 OFFCURVE",
"311 645 OFFCURVE",
"335 667 OFFCURVE",
"349 695 OFFCURVE",
"352 707 QCURVE",
"341 707 LINE",
"330 671 OFFCURVE",
"283 638 OFFCURVE",
"253 638 QCURVE SMOOTH",
"223 638 OFFCURVE"
);
}
);
userData = {
assembly = "SVTCA[0]	/* SetFreedomAndProjectionVectorToAxis */\012PUSHW[ ]	/* 1 value pushed */\0120 \012RCVT[ ]	/* ReadCVT */\012IF[ ]	/* If */\012PUSHW[ ]	/* 1 value pushed */\01238 \012MDAP[1]	/* MoveDirectAbsPt */\012ELSE[ ]	/* Else */\012PUSHW[ ]	/* 2 values pushed */\01238 5 \012MIAP[0]	/* MoveIndirectAbsPt */\012EIF[ ]	/* EndIf */\012PUSHW[ ]	/* 1 value pushed */\0120 \012RCVT[ ]	/* ReadCVT */\012IF[ ]	/* If */\012PUSHW[ ]	/* 1 value pushed */\01248 \012MDAP[1]	/* MoveDirectAbsPt */\012ELSE[ ]	/* Else */\012PUSHW[ ]	/* 2 values pushed */\01248 5 \012MIAP[0]	/* MoveIndirectAbsPt */\012EIF[ ]	/* EndIf */\012IUP[0]	/* InterpolateUntPts */\012IUP[1]	/* InterpolateUntPts */";
};
width = 373;
}
);
note = Gbreve;
unicode = 011E;
},
{
color = 11;
glyphname = Gcircumflex;
lastChange = "2021-11-13 22:45:36 +0000";
layers = (
{
hints = (
{
horizontal = 1;
place = "{-12, 9}";
type = Stem;
},
{
horizontal = 1;
place = "{257, 9}";
type = Stem;
},
{
horizontal = 1;
place = "{589, 10}";
type = Stem;
},
{
place = "{50, 12}";
type = Stem;
},
{
place = "{311, 12}";
type = Stem;
},
{
horizontal = 1;
place = "{0, 21}";
target = up;
type = BottomGhost;
},
{
horizontal = 1;
place = "{717, 7}";
type = Stem;
}
);
layerId = "5E1A2ACF-25BB-4872-A226-5327BC7330DB";
paths = (
{
closed = 1;
nodes = (
"316 0 LINE",
"323 0 LINE",
"323 266 LINE",
"204 266 LINE",
"204 257 LINE",
"311 257 LINE",
"311 118 LINE SMOOTH",
"311 42 OFFCURVE",
"254 -3 OFFCURVE",
"186 -3 CURVE SMOOTH",
"117 -3 OFFCURVE",
"62 11 OFFCURVE",
"62 118 CURVE SMOOTH",
"62 468 LINE SMOOTH",
"62 572 OFFCURVE",
"109 589 OFFCURVE",
"186 589 CURVE SMOOTH",
"267 589 OFFCURVE",
"311 572 OFFCURVE",
"311 468 CURVE SMOOTH",
"311 401 LINE",
"323 401 LINE",
"323 469 LINE SMOOTH",
"323 583 OFFCURVE",
"267 599 OFFCURVE",
"188 599 CURVE SMOOTH",
"109 599 OFFCURVE",
"50 585 OFFCURVE",
"50 469 CURVE SMOOTH",
"50 118 LINE SMOOTH",
"50 4 OFFCURVE",
"109 -12 OFFCURVE",
"185 -12 CURVE SMOOTH",
"246 -12 OFFCURVE",
"296 18 OFFCURVE",
"312 69 CURVE"
);
},
{
closed = 1;
nodes = (
"185 724 LINE",
"156 693 OFFCURVE",
"123 662 OFFCURVE",
"94 630 CURVE",
"107 630 LINE",
"192 717 LINE",
"276 630 LINE",
"290 630 LINE",
"236 686 OFFCURVE",
"219 703 OFFCURVE",
"201 724 CURVE"
);
}
);
width = 373;
},
{
layerId = "9AA098C0-EDBC-463F-BC21-AFCD07A070D0";
paths = (
{
closed = 1;
nodes = (
"294 0 LINE",
"332 266 LINE",
"213 266 LINE",
"211 257 LINE",
"318 257 LINE",
"299 118 LINE SMOOTH",
"295 89 OFFCURVE",
"269 45 OFFCURVE",
"230 13 OFFCURVE",
"182 -3 OFFCURVE",
"157 -3 QCURVE SMOOTH",
"131 -3 OFFCURVE",
"87 5 OFFCURVE",
"57 30 OFFCURVE",
"44 78 OFFCURVE",
"50 118 QCURVE SMOOTH",
"99 468 LINE SMOOTH",
"105 507 OFFCURVE",
"128 555 OFFCURVE",
"164 580 OFFCURVE",
"211 589 OFFCURVE",
"240 589 QCURVE SMOOTH",
"270 589 OFFCURVE",
"316 580 OFFCURVE",
"344 555 OFFCURVE",
"354 507 OFFCURVE",
"348 468 QCURVE SMOOTH",
"339 401 LINE",
"351 401 LINE",
"360 469 LINE SMOOTH",
"366 512 OFFCURVE",
"353 563 OFFCURVE",
"321 590 OFFCURVE",
"273 599 OFFCURVE",
"243 599 QCURVE SMOOTH",
"213 599 OFFCURVE",
"162 591 OFFCURVE",
"121 564 OFFCURVE",
"93 512 OFFCURVE",
"87 469 QCURVE SMOOTH",
"38 118 LINE SMOOTH",
"32 75 OFFCURVE",
"45 24 OFFCURVE",
"78 -3 OFFCURVE",
"126 -12 OFFCURVE",
"155 -12 QCURVE SMOOTH",
"201 -12 OFFCURVE",
"276 31 OFFCURVE",
"293 69 QCURVE",
"287 0 LINE"
);
},
{
closed = 1;
nodes = (
"233 701 OFFCURVE",
"179 654 OFFCURVE",
"154 630 QCURVE",
"167 630 LINE",
"264 717 LINE",
"336 630 LINE",
"350 630 LINE",
"333 651 OFFCURVE",
"309 680 OFFCURVE",
"292 701 OFFCURVE",
"280 716 OFFCURVE",
"274 724 QCURVE",
"258 724 LINE"
);
}
);
userData = {
assembly = "SVTCA[0]	/* SetFreedomAndProjectionVectorToAxis */\012PUSHW[ ]	/* 1 value pushed */\0120 \012RCVT[ ]	/* ReadCVT */\012IF[ ]	/* If */\012PUSHW[ ]	/* 1 value pushed */\01238 \012MDAP[1]	/* MoveDirectAbsPt */\012ELSE[ ]	/* Else */\012PUSHW[ ]	/* 2 values pushed */\01238 5 \012MIAP[0]	/* MoveIndirectAbsPt */\012EIF[ ]	/* EndIf */\012PUSHW[ ]	/* 1 value pushed */\0120 \012RCVT[ ]	/* ReadCVT */\012IF[ ]	/* If */\012PUSHW[ ]	/* 1 value pushed */\01248 \012MDAP[1]	/* MoveDirectAbsPt */\012ELSE[ ]	/* Else */\012PUSHW[ ]	/* 2 values pushed */\01248 5 \012MIAP[0]	/* MoveIndirectAbsPt */\012EIF[ ]	/* EndIf */\012PUSHW[ ]	/* 4 values pushed */\01250 3 56 4 \012CALL[ ]	/* CallFunction */\012PUSHW[ ]	/* 1 value pushed */\01256 \012SRP0[ ]	/* SetRefPoint0 */\012PUSHW[ ]	/* 1 value pushed */\01258 \012MDRP[10000]	/* MoveDirectRelPt */\012IUP[0]	/* InterpolateUntPts */\012IUP[1]	/* InterpolateUntPts */";
};
width = 373;
}
);
note = Gcircumflex;
unicode = 011C;
},
{
color = 11;
glyphname = Gdotaccent;
lastChange = "2021-11-13 22:45:36 +0000";
layers = (
{
hints = (
{
horizontal = 1;
place = "{-12, 9}";
type = Stem;
},
{
horizontal = 1;
place = "{257, 9}";
type = Stem;
},
{
horizontal = 1;
place = "{589, 10}";
type = Stem;
},
{
place = "{50, 12}";
type = Stem;
},
{
place = "{311, 12}";
type = Stem;
},
{
horizontal = 1;
place = "{0, 21}";
target = up;
type = BottomGhost;
},
{
horizontal = 1;
place = "{630, 32}";
type = Stem;
},
{
place = "{177, 32}";
type = Stem;
}
);
layerId = "5E1A2ACF-25BB-4872-A226-5327BC7330DB";
paths = (
{
closed = 1;
nodes = (
"316 0 LINE",
"323 0 LINE",
"323 266 LINE",
"204 266 LINE",
"204 257 LINE",
"311 257 LINE",
"311 118 LINE SMOOTH",
"311 42 OFFCURVE",
"254 -3 OFFCURVE",
"186 -3 CURVE SMOOTH",
"117 -3 OFFCURVE",
"62 11 OFFCURVE",
"62 118 CURVE SMOOTH",
"62 468 LINE SMOOTH",
"62 572 OFFCURVE",
"109 589 OFFCURVE",
"186 589 CURVE SMOOTH",
"267 589 OFFCURVE",
"311 572 OFFCURVE",
"311 468 CURVE SMOOTH",
"311 401 LINE",
"323 401 LINE",
"323 469 LINE SMOOTH",
"323 583 OFFCURVE",
"267 599 OFFCURVE",
"188 599 CURVE SMOOTH",
"109 599 OFFCURVE",
"50 585 OFFCURVE",
"50 469 CURVE SMOOTH",
"50 118 LINE SMOOTH",
"50 4 OFFCURVE",
"109 -12 OFFCURVE",
"185 -12 CURVE SMOOTH",
"246 -12 OFFCURVE",
"296 18 OFFCURVE",
"312 69 CURVE"
);
},
{
closed = 1;
nodes = (
"177 635 OFFCURVE",
"182 630 OFFCURVE",
"193 630 CURVE SMOOTH",
"204 630 OFFCURVE",
"209 635 OFFCURVE",
"209 646 CURVE SMOOTH",
"209 657 OFFCURVE",
"204 662 OFFCURVE",
"193 662 CURVE SMOOTH",
"182 662 OFFCURVE",
"177 657 OFFCURVE",
"177 646 CURVE SMOOTH"
);
}
);
width = 373;
},
{
layerId = "9AA098C0-EDBC-463F-BC21-AFCD07A070D0";
paths = (
{
closed = 1;
nodes = (
"294 0 LINE",
"332 266 LINE",
"213 266 LINE",
"211 257 LINE",
"318 257 LINE",
"299 118 LINE SMOOTH",
"295 89 OFFCURVE",
"269 45 OFFCURVE",
"230 13 OFFCURVE",
"182 -3 OFFCURVE",
"157 -3 QCURVE SMOOTH",
"131 -3 OFFCURVE",
"87 5 OFFCURVE",
"57 30 OFFCURVE",
"44 78 OFFCURVE",
"50 118 QCURVE SMOOTH",
"99 468 LINE SMOOTH",
"105 507 OFFCURVE",
"128 555 OFFCURVE",
"164 580 OFFCURVE",
"211 589 OFFCURVE",
"240 589 QCURVE SMOOTH",
"270 589 OFFCURVE",
"316 580 OFFCURVE",
"344 555 OFFCURVE",
"354 507 OFFCURVE",
"348 468 QCURVE SMOOTH",
"339 401 LINE",
"351 401 LINE",
"360 469 LINE SMOOTH",
"366 512 OFFCURVE",
"353 563 OFFCURVE",
"321 590 OFFCURVE",
"273 599 OFFCURVE",
"243 599 QCURVE SMOOTH",
"213 599 OFFCURVE",
"162 591 OFFCURVE",
"121 564 OFFCURVE",
"93 512 OFFCURVE",
"87 469 QCURVE SMOOTH",
"38 118 LINE SMOOTH",
"32 75 OFFCURVE",
"45 24 OFFCURVE",
"78 -3 OFFCURVE",
"126 -12 OFFCURVE",
"155 -12 QCURVE SMOOTH",
"201 -12 OFFCURVE",
"276 31 OFFCURVE",
"293 69 QCURVE",
"287 0 LINE"
);
},
{
closed = 1;
nodes = (
"253 630 QCURVE SMOOTH",
"269 630 OFFCURVE",
"271 646 QCURVE SMOOTH",
"273 662 OFFCURVE",
"257 662 QCURVE SMOOTH",
"241 662 OFFCURVE",
"239 646 QCURVE SMOOTH",
"237 630 OFFCURVE"
);
}
);
userData = {
assembly = "PUSHW[ ]	/* 4 values pushed */\01250 4 9 4 \012CALL[ ]	/* CallFunction */\012SVTCA[0]	/* SetFreedomAndProjectionVectorToAxis */\012PUSHW[ ]	/* 1 value pushed */\0120 \012RCVT[ ]	/* ReadCVT */\012IF[ ]	/* If */\012PUSHW[ ]	/* 1 value pushed */\01238 \012MDAP[1]	/* MoveDirectAbsPt */\012ELSE[ ]	/* Else */\012PUSHW[ ]	/* 2 values pushed */\01238 5 \012MIAP[0]	/* MoveIndirectAbsPt */\012EIF[ ]	/* EndIf */\012PUSHW[ ]	/* 1 value pushed */\0120 \012RCVT[ ]	/* ReadCVT */\012IF[ ]	/* If */\012PUSHW[ ]	/* 1 value pushed */\01248 \012MDAP[1]	/* MoveDirectAbsPt */\012ELSE[ ]	/* Else */\012PUSHW[ ]	/* 2 values pushed */\01248 5 \012MIAP[0]	/* MoveIndirectAbsPt */\012EIF[ ]	/* EndIf */\012IUP[0]	/* InterpolateUntPts */\012IUP[1]	/* InterpolateUntPts */";
};
width = 373;
}
);
note = Gdotaccent;
unicode = 0120;
},
{
color = 6;
glyphname = H;
lastChange = "2021-11-13 22:45:36 +0000";
layers = (
{
hints = (
{
horizontal = 1;
place = "{0, 21}";
target = up;
type = BottomGhost;
},
{
horizontal = 1;
place = "{306, 11}";
type = Stem;
},
{
horizontal = 1;
place = "{591, -20}";
target = down;
type = TopGhost;
},
{
place = "{50, 12}";
type = Stem;
},
{
place = "{311, 12}";
type = Stem;
}
);
layerId = "5E1A2ACF-25BB-4872-A226-5327BC7330DB";
paths = (
{
closed = 1;
nodes = (
"323 591 LINE",
"311 591 LINE",
"311 317 LINE",
"62 317 LINE",
"62 591 LINE",
"50 591 LINE",
"50 0 LINE",
"62 0 LINE",
"62 306 LINE",
"311 306 LINE",
"311 0 LINE",
"323 0 LINE"
);
}
);
width = 373;
},
{
layerId = "9AA098C0-EDBC-463F-BC21-AFCD07A070D0";
paths = (
{
closed = 1;
nodes = (
"364 591 LINE",
"325 317 LINE",
"76 317 LINE",
"115 591 LINE",
"103 591 LINE",
"20 0 LINE",
"32 0 LINE",
"75 306 LINE",
"324 306 LINE",
"281 0 LINE",
"293 0 LINE",
"376 591 LINE"
);
}
);
userData = {
assembly = "SVTCA[0]	/* SetFreedomAndProjectionVectorToAxis */\012PUSHW[ ]	/* 1 value pushed */\0120 \012RCVT[ ]	/* ReadCVT */\012IF[ ]	/* If */\012PUSHW[ ]	/* 1 value pushed */\0120 \012MDAP[1]	/* MoveDirectAbsPt */\012ELSE[ ]	/* Else */\012PUSHW[ ]	/* 2 values pushed */\0120 5 \012MIAP[0]	/* MoveIndirectAbsPt */\012EIF[ ]	/* EndIf */\012PUSHW[ ]	/* 1 value pushed */\0120 \012RCVT[ ]	/* ReadCVT */\012IF[ ]	/* If */\012PUSHW[ ]	/* 1 value pushed */\0124 \012MDAP[1]	/* MoveDirectAbsPt */\012ELSE[ ]	/* Else */\012PUSHW[ ]	/* 2 values pushed */\0124 5 \012MIAP[0]	/* MoveIndirectAbsPt */\012EIF[ ]	/* EndIf */\012IUP[0]	/* InterpolateUntPts */\012IUP[1]	/* InterpolateUntPts */";
};
width = 373;
}
);
note = H;
unicode = 0048;
},
{
color = 11;
glyphname = Hbar;
lastChange = "2021-11-13 22:45:36 +0000";
layers = (
{
hints = (
{
horizontal = 1;
place = "{0, 21}";
target = up;
type = BottomGhost;
},
{
horizontal = 1;
place = "{306, 11}";
type = Stem;
},
{
horizontal = 1;
place = "{494, 10}";
type = Stem;
},
{
place = "{99, 12}";
type = Stem;
},
{
place = "{360, 12}";
type = Stem;
},
{
horizontal = 1;
place = "{494, 97}";
type = Stem;
}
);
layerId = "5E1A2ACF-25BB-4872-A226-5327BC7330DB";
paths = (
{
closed = 1;
nodes = (
"50 494 LINE",
"99 494 LINE",
"99 0 LINE",
"111 0 LINE",
"111 306 LINE",
"360 306 LINE",
"360 0 LINE",
"372 0 LINE",
"372 494 LINE",
"422 494 LINE",
"422 504 LINE",
"372 504 LINE",
"372 591 LINE",
"360 591 LINE",
"360 504 LINE",
"111 504 LINE",
"111 591 LINE",
"99 591 LINE",
"99 504 LINE",
"50 504 LINE"
);
},
{
closed = 1;
nodes = (
"111 317 LINE",
"111 494 LINE",
"360 494 LINE",
"360 317 LINE"
);
}
);
width = 472;
},
{
layerId = "9AA098C0-EDBC-463F-BC21-AFCD07A070D0";
paths = (
{
closed = 1;
nodes = (
"138 494 LINE",
"69 0 LINE",
"81 0 LINE",
"124 306 LINE",
"373 306 LINE",
"330 0 LINE",
"342 0 LINE",
"411 494 LINE",
"461 494 LINE",
"462 504 LINE",
"412 504 LINE",
"425 591 LINE",
"413 591 LINE",
"400 504 LINE",
"151 504 LINE",
"164 591 LINE",
"152 591 LINE",
"139 504 LINE",
"90 504 LINE",
"89 494 LINE"
);
},
{
closed = 1;
nodes = (
"150 494 LINE",
"399 494 LINE",
"374 317 LINE",
"125 317 LINE"
);
}
);
userData = {
assembly = "SVTCA[0]	/* SetFreedomAndProjectionVectorToAxis */\012PUSHW[ ]	/* 1 value pushed */\0120 \012RCVT[ ]	/* ReadCVT */\012IF[ ]	/* If */\012PUSHW[ ]	/* 1 value pushed */\01212 \012MDAP[1]	/* MoveDirectAbsPt */\012ELSE[ ]	/* Else */\012PUSHW[ ]	/* 2 values pushed */\01212 5 \012MIAP[0]	/* MoveIndirectAbsPt */\012EIF[ ]	/* EndIf */\012PUSHW[ ]	/* 1 value pushed */\0120 \012RCVT[ ]	/* ReadCVT */\012IF[ ]	/* If */\012PUSHW[ ]	/* 1 value pushed */\01216 \012MDAP[1]	/* MoveDirectAbsPt */\012ELSE[ ]	/* Else */\012PUSHW[ ]	/* 2 values pushed */\01216 5 \012MIAP[0]	/* MoveIndirectAbsPt */\012EIF[ ]	/* EndIf */\012IUP[0]	/* InterpolateUntPts */\012IUP[1]	/* InterpolateUntPts */";
};
width = 472;
}
);
note = Hbar;
unicode = 0126;
},
{
color = 11;
glyphname = Hcircumflex;
lastChange = "2021-11-13 22:45:36 +0000";
layers = (
{
hints = (
{
horizontal = 1;
place = "{0, 21}";
target = up;
type = BottomGhost;
},
{
horizontal = 1;
place = "{306, 11}";
type = Stem;
},
{
horizontal = 1;
place = "{591, -20}";
target = down;
type = TopGhost;
},
{
horizontal = 1;
place = "{717, 7}";
type = Stem;
},
{
place = "{50, 12}";
type = Stem;
},
{
place = "{311, 12}";
type = Stem;
}
);
layerId = "5E1A2ACF-25BB-4872-A226-5327BC7330DB";
paths = (
{
closed = 1;
nodes = (
"323 591 LINE",
"311 591 LINE",
"311 317 LINE",
"62 317 LINE",
"62 591 LINE",
"50 591 LINE",
"50 0 LINE",
"62 0 LINE",
"62 306 LINE",
"311 306 LINE",
"311 0 LINE",
"323 0 LINE"
);
},
{
closed = 1;
nodes = (
"180 724 LINE",
"151 693 OFFCURVE",
"118 662 OFFCURVE",
"89 630 CURVE",
"102 630 LINE",
"187 717 LINE",
"271 630 LINE",
"285 630 LINE",
"231 686 OFFCURVE",
"214 703 OFFCURVE",
"196 724 CURVE"
);
}
);
width = 373;
},
{
layerId = "9AA098C0-EDBC-463F-BC21-AFCD07A070D0";
paths = (
{
closed = 1;
nodes = (
"364 591 LINE",
"325 317 LINE",
"76 317 LINE",
"115 591 LINE",
"103 591 LINE",
"20 0 LINE",
"32 0 LINE",
"75 306 LINE",
"324 306 LINE",
"281 0 LINE",
"293 0 LINE",
"376 591 LINE"
);
},
{
closed = 1;
nodes = (
"226 701 OFFCURVE",
"173 654 OFFCURVE",
"147 630 QCURVE",
"160 630 LINE",
"257 717 LINE",
"329 630 LINE",
"343 630 LINE",
"326 651 OFFCURVE",
"302 680 OFFCURVE",
"285 701 OFFCURVE",
"273 716 OFFCURVE",
"267 724 QCURVE",
"251 724 LINE"
);
}
);
userData = {
assembly = "SVTCA[0]	/* SetFreedomAndProjectionVectorToAxis */\012PUSHW[ ]	/* 1 value pushed */\0120 \012RCVT[ ]	/* ReadCVT */\012IF[ ]	/* If */\012PUSHW[ ]	/* 1 value pushed */\0120 \012MDAP[1]	/* MoveDirectAbsPt */\012ELSE[ ]	/* Else */\012PUSHW[ ]	/* 2 values pushed */\0120 5 \012MIAP[0]	/* MoveIndirectAbsPt */\012EIF[ ]	/* EndIf */\012PUSHW[ ]	/* 1 value pushed */\0120 \012RCVT[ ]	/* ReadCVT */\012IF[ ]	/* If */\012PUSHW[ ]	/* 1 value pushed */\0124 \012MDAP[1]	/* MoveDirectAbsPt */\012ELSE[ ]	/* Else */\012PUSHW[ ]	/* 2 values pushed */\0124 5 \012MIAP[0]	/* MoveIndirectAbsPt */\012EIF[ ]	/* EndIf */\012PUSHW[ ]	/* 4 values pushed */\01212 3 18 4 \012CALL[ ]	/* CallFunction */\012PUSHW[ ]	/* 1 value pushed */\01218 \012SRP0[ ]	/* SetRefPoint0 */\012PUSHW[ ]	/* 1 value pushed */\01220 \012MDRP[10000]	/* MoveDirectRelPt */\012IUP[0]	/* InterpolateUntPts */\012IUP[1]	/* InterpolateUntPts */";
};
width = 373;
}
);
note = Hcircumflex;
unicode = 0124;
},
{
color = 6;
glyphname = I;
lastChange = "2021-11-13 22:45:36 +0000";
layers = (
{
hints = (
{
horizontal = 1;
place = "{0, 21}";
target = up;
type = BottomGhost;
},
{
horizontal = 1;
place = "{591, -20}";
target = down;
type = TopGhost;
},
{
place = "{60, 12}";
type = Stem;
}
);
layerId = "5E1A2ACF-25BB-4872-A226-5327BC7330DB";
paths = (
{
closed = 1;
nodes = (
"72 591 LINE",
"60 591 LINE",
"60 0 LINE",
"72 0 LINE"
);
}
);
width = 140;
},
{
layerId = "9AA098C0-EDBC-463F-BC21-AFCD07A070D0";
paths = (
{
closed = 1;
nodes = (
"113 591 LINE",
"30 0 LINE",
"42 0 LINE",
"125 591 LINE"
);
}
);
userData = {
assembly = "SVTCA[0]	/* SetFreedomAndProjectionVectorToAxis */\012PUSHW[ ]	/* 1 value pushed */\0120 \012RCVT[ ]	/* ReadCVT */\012IF[ ]	/* If */\012PUSHW[ ]	/* 1 value pushed */\0120 \012MDAP[1]	/* MoveDirectAbsPt */\012ELSE[ ]	/* Else */\012PUSHW[ ]	/* 2 values pushed */\0120 5 \012MIAP[0]	/* MoveIndirectAbsPt */\012EIF[ ]	/* EndIf */\012IUP[0]	/* InterpolateUntPts */\012IUP[1]	/* InterpolateUntPts */";
};
width = 140;
}
);
note = I;
unicode = 0049;
},
{
color = 11;
glyphname = Iacute;
lastChange = "2021-11-13 22:45:36 +0000";
layers = (
{
hints = (
{
horizontal = 1;
place = "{0, 21}";
target = up;
type = BottomGhost;
},
{
horizontal = 1;
place = "{591, -20}";
target = down;
type = TopGhost;
},
{
place = "{84, 12}";
type = Stem;
}
);
layerId = "5E1A2ACF-25BB-4872-A226-5327BC7330DB";
paths = (
{
closed = 1;
nodes = (
"96 591 LINE",
"84 591 LINE",
"84 0 LINE",
"96 0 LINE"
);
},
{
closed = 1;
nodes = (
"134 750 LINE",
"112 750 LINE",
"50 664 LINE",
"61 664 LINE"
);
}
);
width = 214;
},
{
layerId = "9AA098C0-EDBC-463F-BC21-AFCD07A070D0";
paths = (
{
closed = 1;
nodes = (
"137 591 LINE",
"54 0 LINE",
"66 0 LINE",
"149 591 LINE"
);
},
{
closed = 1;
nodes = (
"187 750 LINE",
"113 664 LINE",
"124 664 LINE",
"209 750 LINE"
);
}
);
userData = {
assembly = "SVTCA[0]	/* SetFreedomAndProjectionVectorToAxis */\012PUSHW[ ]	/* 1 value pushed */\0120 \012RCVT[ ]	/* ReadCVT */\012IF[ ]	/* If */\012PUSHW[ ]	/* 1 value pushed */\0120 \012MDAP[1]	/* MoveDirectAbsPt */\012ELSE[ ]	/* Else */\012PUSHW[ ]	/* 2 values pushed */\0120 5 \012MIAP[0]	/* MoveIndirectAbsPt */\012EIF[ ]	/* EndIf */\012PUSHW[ ]	/* 4 values pushed */\0126 3 4 4 \012CALL[ ]	/* CallFunction */\012IUP[0]	/* InterpolateUntPts */\012IUP[1]	/* InterpolateUntPts */";
};
width = 214;
}
);
note = Iacute;
unicode = 00CD;
},
{
color = 11;
glyphname = Icircumflex;
lastChange = "2021-11-13 22:45:36 +0000";
layers = (
{
hints = (
{
horizontal = 1;
place = "{0, 21}";
target = up;
type = BottomGhost;
},
{
horizontal = 1;
place = "{591, -20}";
target = down;
type = TopGhost;
},
{
horizontal = 1;
place = "{743, 7}";
type = Stem;
},
{
place = "{142, 12}";
type = Stem;
}
);
layerId = "5E1A2ACF-25BB-4872-A226-5327BC7330DB";
paths = (
{
closed = 1;
nodes = (
"154 591 LINE",
"142 591 LINE",
"142 0 LINE",
"154 0 LINE"
);
},
{
closed = 1;
nodes = (
"141 750 LINE",
"112 719 OFFCURVE",
"79 688 OFFCURVE",
"50 656 CURVE",
"63 656 LINE",
"148 743 LINE",
"232 656 LINE",
"246 656 LINE",
"192 712 OFFCURVE",
"175 729 OFFCURVE",
"157 750 CURVE"
);
}
);
width = 307;
},
{
layerId = "9AA098C0-EDBC-463F-BC21-AFCD07A070D0";
paths = (
{
closed = 1;
nodes = (
"195 591 LINE",
"112 0 LINE",
"124 0 LINE",
"207 591 LINE"
);
},
{
closed = 1;
nodes = (
"191 727 OFFCURVE",
"137 680 OFFCURVE",
"112 656 QCURVE",
"125 656 LINE",
"222 743 LINE",
"294 656 LINE",
"308 656 LINE",
"291 677 OFFCURVE",
"267 706 OFFCURVE",
"250 727 OFFCURVE",
"238 742 OFFCURVE",
"232 750 QCURVE",
"216 750 LINE"
);
}
);
userData = {
assembly = "SVTCA[0]	/* SetFreedomAndProjectionVectorToAxis */\012PUSHW[ ]	/* 1 value pushed */\0120 \012RCVT[ ]	/* ReadCVT */\012IF[ ]	/* If */\012PUSHW[ ]	/* 1 value pushed */\0120 \012MDAP[1]	/* MoveDirectAbsPt */\012ELSE[ ]	/* Else */\012PUSHW[ ]	/* 2 values pushed */\0120 5 \012MIAP[0]	/* MoveIndirectAbsPt */\012EIF[ ]	/* EndIf */\012PUSHW[ ]	/* 4 values pushed */\0124 3 10 4 \012CALL[ ]	/* CallFunction */\012PUSHW[ ]	/* 1 value pushed */\01210 \012SRP0[ ]	/* SetRefPoint0 */\012PUSHW[ ]	/* 1 value pushed */\01212 \012MDRP[10000]	/* MoveDirectRelPt */\012IUP[0]	/* InterpolateUntPts */\012IUP[1]	/* InterpolateUntPts */";
};
width = 307;
}
);
note = Icircumflex;
unicode = 00CE;
},
{
color = 11;
glyphname = Idieresis;
lastChange = "2021-11-13 22:45:36 +0000";
layers = (
{
hints = (
{
horizontal = 1;
place = "{0, 21}";
target = up;
type = BottomGhost;
},
{
horizontal = 1;
place = "{591, -20}";
target = down;
type = TopGhost;
},
{
horizontal = 1;
place = "{718, 32}";
type = Stem;
},
{
place = "{94, 12}";
type = Stem;
},
{
place = "{146, 32}";
type = Stem;
},
{
place = "{50, 32}";
type = Stem;
}
);
layerId = "5E1A2ACF-25BB-4872-A226-5327BC7330DB";
paths = (
{
closed = 1;
nodes = (
"106 591 LINE",
"94 591 LINE",
"94 0 LINE",
"106 0 LINE"
);
},
{
closed = 1;
nodes = (
"146 723 OFFCURVE",
"151 718 OFFCURVE",
"162 718 CURVE SMOOTH",
"173 718 OFFCURVE",
"178 723 OFFCURVE",
"178 734 CURVE SMOOTH",
"178 745 OFFCURVE",
"173 750 OFFCURVE",
"162 750 CURVE SMOOTH",
"151 750 OFFCURVE",
"146 745 OFFCURVE",
"146 734 CURVE SMOOTH"
);
},
{
closed = 1;
nodes = (
"50 723 OFFCURVE",
"55 718 OFFCURVE",
"66 718 CURVE SMOOTH",
"77 718 OFFCURVE",
"82 723 OFFCURVE",
"82 734 CURVE SMOOTH",
"82 745 OFFCURVE",
"77 750 OFFCURVE",
"66 750 CURVE SMOOTH",
"55 750 OFFCURVE",
"50 745 OFFCURVE",
"50 734 CURVE SMOOTH"
);
}
);
width = 262;
},
{
layerId = "9AA098C0-EDBC-463F-BC21-AFCD07A070D0";
paths = (
{
closed = 1;
nodes = (
"147 591 LINE",
"64 0 LINE",
"76 0 LINE",
"159 591 LINE"
);
},
{
closed = 1;
nodes = (
"225 718 OFFCURVE",
"232 718 QCURVE SMOOTH",
"247 718 OFFCURVE",
"251 734 QCURVE SMOOTH",
"253 750 OFFCURVE",
"237 750 QCURVE SMOOTH",
"221 750 OFFCURVE",
"219 734 QCURVE",
"217 727 OFFCURVE"
);
},
{
closed = 1;
nodes = (
"129 718 OFFCURVE",
"136 718 QCURVE SMOOTH",
"151 718 OFFCURVE",
"155 734 QCURVE SMOOTH",
"157 750 OFFCURVE",
"141 750 QCURVE SMOOTH",
"125 750 OFFCURVE",
"123 734 QCURVE",
"121 727 OFFCURVE"
);
}
);
userData = {
assembly = "SVTCA[0]	/* SetFreedomAndProjectionVectorToAxis */\012PUSHW[ ]	/* 1 value pushed */\0120 \012RCVT[ ]	/* ReadCVT */\012IF[ ]	/* If */\012PUSHW[ ]	/* 1 value pushed */\0120 \012MDAP[1]	/* MoveDirectAbsPt */\012ELSE[ ]	/* Else */\012PUSHW[ ]	/* 2 values pushed */\0120 5 \012MIAP[0]	/* MoveIndirectAbsPt */\012EIF[ ]	/* EndIf */\012IUP[0]	/* InterpolateUntPts */\012IUP[1]	/* InterpolateUntPts */";
};
width = 262;
}
);
note = Idieresis;
unicode = 00CF;
},
{
color = 11;
glyphname = Idotaccent;
lastChange = "2021-11-13 22:45:36 +0000";
layers = (
{
hints = (
{
horizontal = 1;
place = "{0, 21}";
target = up;
type = BottomGhost;
},
{
horizontal = 1;
place = "{591, -20}";
target = down;
type = TopGhost;
},
{
horizontal = 1;
place = "{630, 32}";
type = Stem;
},
{
place = "{58, 12}";
type = Stem;
}
);
layerId = "5E1A2ACF-25BB-4872-A226-5327BC7330DB";
paths = (
{
closed = 1;
nodes = (
"70 591 LINE",
"58 591 LINE",
"58 0 LINE",
"70 0 LINE"
);
},
{
closed = 1;
nodes = (
"50 635 OFFCURVE",
"55 630 OFFCURVE",
"66 630 CURVE SMOOTH",
"77 630 OFFCURVE",
"82 635 OFFCURVE",
"82 646 CURVE SMOOTH",
"82 657 OFFCURVE",
"77 662 OFFCURVE",
"66 662 CURVE SMOOTH",
"55 662 OFFCURVE",
"50 657 OFFCURVE",
"50 646 CURVE SMOOTH"
);
}
);
width = 143;
},
{
layerId = "9AA098C0-EDBC-463F-BC21-AFCD07A070D0";
paths = (
{
closed = 1;
nodes = (
"111 591 LINE",
"28 0 LINE",
"40 0 LINE",
"123 591 LINE"
);
},
{
closed = 1;
nodes = (
"124 630 QCURVE SMOOTH",
"140 630 OFFCURVE",
"142 646 QCURVE",
"144 653 OFFCURVE",
"136 662 OFFCURVE",
"129 662 QCURVE SMOOTH",
"114 662 OFFCURVE",
"110 646 QCURVE SMOOTH",
"108 630 OFFCURVE"
);
}
);
userData = {
assembly = "SVTCA[0]	/* SetFreedomAndProjectionVectorToAxis */\012PUSHW[ ]	/* 1 value pushed */\0120 \012RCVT[ ]	/* ReadCVT */\012IF[ ]	/* If */\012PUSHW[ ]	/* 1 value pushed */\0120 \012MDAP[1]	/* MoveDirectAbsPt */\012ELSE[ ]	/* Else */\012PUSHW[ ]	/* 2 values pushed */\0120 5 \012MIAP[0]	/* MoveIndirectAbsPt */\012EIF[ ]	/* EndIf */\012IUP[0]	/* InterpolateUntPts */\012IUP[1]	/* InterpolateUntPts */";
};
width = 143;
}
);
note = Idotaccent;
unicode = 0130;
},
{
color = 11;
glyphname = Igrave;
lastChange = "2021-11-13 22:45:36 +0000";
layers = (
{
hints = (
{
horizontal = 1;
place = "{0, 21}";
target = up;
type = BottomGhost;
},
{
horizontal = 1;
place = "{591, -20}";
target = down;
type = TopGhost;
},
{
place = "{108, 12}";
type = Stem;
}
);
layerId = "5E1A2ACF-25BB-4872-A226-5327BC7330DB";
paths = (
{
closed = 1;
nodes = (
"120 591 LINE",
"108 591 LINE",
"108 0 LINE",
"120 0 LINE"
);
},
{
closed = 1;
nodes = (
"123 664 LINE",
"134 664 LINE",
"72 750 LINE",
"50 750 LINE"
);
}
);
width = 215;
},
{
layerId = "9AA098C0-EDBC-463F-BC21-AFCD07A070D0";
paths = (
{
closed = 1;
nodes = (
"161 591 LINE",
"78 0 LINE",
"90 0 LINE",
"173 591 LINE"
);
},
{
closed = 1;
nodes = (
"197 664 LINE",
"147 750 LINE",
"125 750 LINE",
"186 664 LINE"
);
}
);
userData = {
assembly = "SVTCA[0]	/* SetFreedomAndProjectionVectorToAxis */\012PUSHW[ ]	/* 1 value pushed */\0120 \012RCVT[ ]	/* ReadCVT */\012IF[ ]	/* If */\012PUSHW[ ]	/* 1 value pushed */\0120 \012MDAP[1]	/* MoveDirectAbsPt */\012ELSE[ ]	/* Else */\012PUSHW[ ]	/* 2 values pushed */\0120 5 \012MIAP[0]	/* MoveIndirectAbsPt */\012EIF[ ]	/* EndIf */\012PUSHW[ ]	/* 4 values pushed */\0125 3 7 4 \012CALL[ ]	/* CallFunction */\012IUP[0]	/* InterpolateUntPts */\012IUP[1]	/* InterpolateUntPts */";
};
width = 215;
}
);
note = Igrave;
unicode = 00CC;
},
{
color = 11;
glyphname = Imacron;
lastChange = "2021-11-13 22:45:36 +0000";
layers = (
{
hints = (
{
horizontal = 1;
place = "{0, 21}";
target = up;
type = BottomGhost;
},
{
horizontal = 1;
place = "{591, -20}";
target = down;
type = TopGhost;
},
{
horizontal = 1;
place = "{685, 9}";
type = Stem;
},
{
place = "{144, 12}";
type = Stem;
}
);
layerId = "5E1A2ACF-25BB-4872-A226-5327BC7330DB";
paths = (
{
closed = 1;
nodes = (
"156 591 LINE",
"144 591 LINE",
"144 0 LINE",
"156 0 LINE"
);
},
{
closed = 1;
nodes = (
"50 685 LINE",
"251 685 LINE",
"251 694 LINE",
"50 694 LINE"
);
}
);
width = 305;
},
{
layerId = "9AA098C0-EDBC-463F-BC21-AFCD07A070D0";
paths = (
{
closed = 1;
nodes = (
"197 591 LINE",
"114 0 LINE",
"126 0 LINE",
"209 591 LINE"
);
},
{
closed = 1;
nodes = (
"309 685 LINE",
"310 694 LINE",
"109 694 LINE",
"108 685 LINE"
);
}
);
userData = {
assembly = "SVTCA[0]	/* SetFreedomAndProjectionVectorToAxis */\012PUSHW[ ]	/* 1 value pushed */\0120 \012RCVT[ ]	/* ReadCVT */\012IF[ ]	/* If */\012PUSHW[ ]	/* 1 value pushed */\0120 \012MDAP[1]	/* MoveDirectAbsPt */\012ELSE[ ]	/* Else */\012PUSHW[ ]	/* 2 values pushed */\0120 5 \012MIAP[0]	/* MoveIndirectAbsPt */\012EIF[ ]	/* EndIf */\012IUP[0]	/* InterpolateUntPts */\012IUP[1]	/* InterpolateUntPts */";
};
width = 305;
}
);
note = Imacron;
unicode = 012A;
},
{
color = 11;
glyphname = Iogonek;
lastChange = "2021-11-13 22:45:36 +0000";
layers = (
{
hints = (
{
horizontal = 1;
place = "{-240, 11}";
type = Stem;
},
{
horizontal = 1;
place = "{0, 21}";
target = up;
type = BottomGhost;
},
{
horizontal = 1;
place = "{591, -20}";
target = down;
type = TopGhost;
},
{
place = "{50, 12}";
type = Stem;
},
{
place = "{145, 12}";
type = Stem;
}
);
layerId = "5E1A2ACF-25BB-4872-A226-5327BC7330DB";
paths = (
{
closed = 1;
nodes = (
"157 591 LINE",
"145 591 LINE",
"145 0 LINE",
"150 0 LINE",
"99 -29 OFFCURVE",
"50 -95 OFFCURVE",
"50 -156 CURVE SMOOTH",
"50 -216 OFFCURVE",
"95 -240 OFFCURVE",
"145 -240 CURVE SMOOTH",
"177 -240 OFFCURVE",
"207 -233 OFFCURVE",
"226 -222 CURVE",
"223 -212 LINE",
"200 -223 OFFCURVE",
"173 -229 OFFCURVE",
"144 -229 CURVE SMOOTH",
"93 -229 OFFCURVE",
"62 -199 OFFCURVE",
"62 -154 CURVE SMOOTH",
"62 -106 OFFCURVE",
"110 -34 OFFCURVE",
"160 0 CURVE",
"157 0 LINE"
);
}
);
width = 281;
},
{
layerId = "9AA098C0-EDBC-463F-BC21-AFCD07A070D0";
paths = (
{
closed = 1;
nodes = (
"231 591 LINE",
"148 0 LINE",
"153 0 LINE",
"132 -11 OFFCURVE",
"92 -46 OFFCURVE",
"58 -87 OFFCURVE",
"34 -133 OFFCURVE",
"31 -156 QCURVE SMOOTH",
"28 -179 OFFCURVE",
"39 -210 OFFCURVE",
"63 -231 OFFCURVE",
"96 -240 OFFCURVE",
"115 -240 QCURVE SMOOTH",
"139 -240 OFFCURVE",
"184 -230 OFFCURVE",
"198 -222 QCURVE",
"196 -212 LINE",
"159 -229 OFFCURVE",
"115 -229 QCURVE SMOOTH",
"77 -229 OFFCURVE",
"39 -188 OFFCURVE",
"44 -154 QCURVE SMOOTH",
"46 -136 OFFCURVE",
"69 -93 OFFCURVE",
"102 -51 OFFCURVE",
"142 -13 OFFCURVE",
"163 0 QCURVE",
"160 0 LINE",
"243 591 LINE"
);
}
);
userData = {
assembly = "SVTCA[0]	/* SetFreedomAndProjectionVectorToAxis */\012PUSHW[ ]	/* 1 value pushed */\0120 \012RCVT[ ]	/* ReadCVT */\012IF[ ]	/* If */\012PUSHW[ ]	/* 1 value pushed */\0120 \012MDAP[1]	/* MoveDirectAbsPt */\012ELSE[ ]	/* Else */\012PUSHW[ ]	/* 2 values pushed */\0120 5 \012MIAP[0]	/* MoveIndirectAbsPt */\012EIF[ ]	/* EndIf */\012PUSHW[ ]	/* 1 value pushed */\0120 \012RCVT[ ]	/* ReadCVT */\012IF[ ]	/* If */\012PUSHW[ ]	/* 1 value pushed */\01225 \012MDAP[1]	/* MoveDirectAbsPt */\012ELSE[ ]	/* Else */\012PUSHW[ ]	/* 2 values pushed */\01225 5 \012MIAP[0]	/* MoveIndirectAbsPt */\012EIF[ ]	/* EndIf */\012IUP[0]	/* InterpolateUntPts */\012IUP[1]	/* InterpolateUntPts */";
};
width = 281;
}
);
note = Iogonek;
unicode = 012E;
},
{
color = 11;
glyphname = Itilde;
lastChange = "2021-11-13 22:45:36 +0000";
layers = (
{
hints = (
{
horizontal = 1;
place = "{0, 21}";
target = up;
type = BottomGhost;
},
{
horizontal = 1;
place = "{591, -20}";
target = down;
type = TopGhost;
},
{
horizontal = 1;
place = "{630, 9}";
type = Stem;
},
{
horizontal = 1;
place = "{672, 8}";
type = Stem;
},
{
place = "{50, 10}";
type = Stem;
},
{
place = "{156, 12}";
type = Stem;
},
{
place = "{265, 9}";
type = Stem;
}
);
layerId = "5E1A2ACF-25BB-4872-A226-5327BC7330DB";
paths = (
{
closed = 1;
nodes = (
"168 591 LINE",
"156 591 LINE",
"156 0 LINE",
"168 0 LINE"
);
},
{
closed = 1;
nodes = (
"249 630 OFFCURVE",
"270 651 OFFCURVE",
"274 678 CURVE",
"265 678 LINE",
"261 646 OFFCURVE",
"240 639 OFFCURVE",
"216 639 CURVE SMOOTH",
"175 639 OFFCURVE",
"148 680 OFFCURVE",
"108 680 CURVE SMOOTH",
"73 680 OFFCURVE",
"54 661 OFFCURVE",
"50 634 CURVE",
"60 634 LINE",
"64 665 OFFCURVE",
"84 672 OFFCURVE",
"108 672 CURVE SMOOTH",
"124 672 OFFCURVE",
"140 663 OFFCURVE",
"152 655 CURVE SMOOTH",
"179 638 OFFCURVE",
"200 630 OFFCURVE",
"216 630 CURVE SMOOTH"
);
}
);
width = 327;
},
{
layerId = "9AA098C0-EDBC-463F-BC21-AFCD07A070D0";
paths = (
{
closed = 1;
nodes = (
"209 591 LINE",
"126 0 LINE",
"138 0 LINE",
"221 591 LINE"
);
},
{
closed = 1;
nodes = (
"333 658 OFFCURVE",
"339 678 QCURVE",
"330 678 LINE",
"323 654 OFFCURVE",
"293 639 OFFCURVE",
"275 639 QCURVE SMOOTH",
"260 639 OFFCURVE",
"235 652 OFFCURVE",
"212 667 OFFCURVE",
"188 680 OFFCURVE",
"173 680 QCURVE SMOOTH",
"147 680 OFFCURVE",
"114 654 OFFCURVE",
"109 634 QCURVE",
"119 634 LINE",
"125 657 OFFCURVE",
"154 672 OFFCURVE",
"172 672 QCURVE SMOOTH",
"184 672 OFFCURVE",
"206 661 OFFCURVE",
"214 655 QCURVE SMOOTH",
"249 630 OFFCURVE",
"274 630 QCURVE SMOOTH",
"299 630 OFFCURVE"
);
}
);
userData = {
assembly = "SVTCA[0]	/* SetFreedomAndProjectionVectorToAxis */\012PUSHW[ ]	/* 1 value pushed */\0120 \012RCVT[ ]	/* ReadCVT */\012IF[ ]	/* If */\012PUSHW[ ]	/* 1 value pushed */\0120 \012MDAP[1]	/* MoveDirectAbsPt */\012ELSE[ ]	/* Else */\012PUSHW[ ]	/* 2 values pushed */\0120 5 \012MIAP[0]	/* MoveIndirectAbsPt */\012EIF[ ]	/* EndIf */\012IUP[0]	/* InterpolateUntPts */\012IUP[1]	/* InterpolateUntPts */";
};
width = 327;
}
);
note = Itilde;
unicode = 0128;
},
{
color = 6;
glyphname = J;
lastChange = "2021-11-13 22:45:36 +0000";
layers = (
{
hints = (
{
horizontal = 1;
place = "{0, 10}";
type = Stem;
},
{
horizontal = 1;
place = "{591, -20}";
target = down;
type = TopGhost;
},
{
place = "{135, 12}";
type = Stem;
}
);
layerId = "5E1A2ACF-25BB-4872-A226-5327BC7330DB";
paths = (
{
closed = 1;
nodes = (
"30 0 LINE",
"37 -1 OFFCURVE",
"45 0 OFFCURVE",
"52 0 CURVE SMOOTH",
"64 0 LINE SMOOTH",
"141 0 OFFCURVE",
"147 33 OFFCURVE",
"147 117 CURVE SMOOTH",
"147 591 LINE",
"135 591 LINE",
"135 86 LINE SMOOTH",
"135 29 OFFCURVE",
"112 10 OFFCURVE",
"64 10 CURVE SMOOTH",
"30 10 LINE"
);
}
);
width = 197;
},
{
layerId = "9AA098C0-EDBC-463F-BC21-AFCD07A070D0";
paths = (
{
closed = 1;
nodes = (
"5 -1 OFFCURVE",
"17 0 OFFCURVE",
"22 0 QCURVE SMOOTH",
"34 0 LINE SMOOTH",
"63 0 OFFCURVE",
"98 13 OFFCURVE",
"118 41 OFFCURVE",
"128 85 OFFCURVE",
"133 117 QCURVE SMOOTH",
"200 591 LINE",
"188 591 LINE",
"117 86 LINE SMOOTH",
"111 43 OFFCURVE",
"71 10 OFFCURVE",
"35 10 QCURVE SMOOTH",
"1 10 LINE",
"0 0 LINE"
);
}
);
width = 197;
}
);
note = J;
unicode = 004A;
},
{
color = 11;
glyphname = Jcircumflex;
lastChange = "2021-11-13 22:45:36 +0000";
layers = (
{
hints = (
{
horizontal = 1;
place = "{0, 10}";
type = Stem;
},
{
horizontal = 1;
place = "{591, -20}";
target = down;
type = TopGhost;
},
{
horizontal = 1;
place = "{717, 7}";
type = Stem;
},
{
place = "{155, 12}";
type = Stem;
}
);
layerId = "5E1A2ACF-25BB-4872-A226-5327BC7330DB";
paths = (
{
closed = 1;
nodes = (
"50 0 LINE",
"57 -1 OFFCURVE",
"65 0 OFFCURVE",
"72 0 CURVE SMOOTH",
"84 0 LINE SMOOTH",
"161 0 OFFCURVE",
"167 33 OFFCURVE",
"167 117 CURVE SMOOTH",
"167 591 LINE",
"155 591 LINE",
"155 86 LINE SMOOTH",
"155 29 OFFCURVE",
"132 10 OFFCURVE",
"84 10 CURVE SMOOTH",
"50 10 LINE"
);
},
{
closed = 1;
nodes = (
"155 724 LINE",
"126 693 OFFCURVE",
"93 662 OFFCURVE",
"64 630 CURVE",
"77 630 LINE",
"162 717 LINE",
"246 630 LINE",
"260 630 LINE",
"206 686 OFFCURVE",
"189 703 OFFCURVE",
"171 724 CURVE"
);
}
);
width = 311;
},
{
layerId = "9AA098C0-EDBC-463F-BC21-AFCD07A070D0";
paths = (
{
closed = 1;
nodes = (
"25 -1 OFFCURVE",
"37 0 OFFCURVE",
"42 0 QCURVE SMOOTH",
"54 0 LINE SMOOTH",
"83 0 OFFCURVE",
"118 13 OFFCURVE",
"138 41 OFFCURVE",
"148 85 OFFCURVE",
"153 117 QCURVE SMOOTH",
"220 591 LINE",
"208 591 LINE",
"137 86 LINE SMOOTH",
"131 43 OFFCURVE",
"91 10 OFFCURVE",
"55 10 QCURVE SMOOTH",
"21 10 LINE",
"20 0 LINE"
);
},
{
closed = 1;
nodes = (
"201 701 OFFCURVE",
"148 654 OFFCURVE",
"122 630 QCURVE",
"135 630 LINE",
"232 717 LINE",
"304 630 LINE",
"318 630 LINE",
"301 651 OFFCURVE",
"278 680 OFFCURVE",
"261 701 OFFCURVE",
"248 716 OFFCURVE",
"242 724 QCURVE",
"226 724 LINE"
);
}
);
userData = {
assembly = "SVTCA[0]	/* SetFreedomAndProjectionVectorToAxis */\012PUSHW[ ]	/* 4 values pushed */\01217 3 23 4 \012CALL[ ]	/* CallFunction */\012PUSHW[ ]	/* 1 value pushed */\01223 \012SRP0[ ]	/* SetRefPoint0 */\012PUSHW[ ]	/* 1 value pushed */\01225 \012MDRP[10000]	/* MoveDirectRelPt */\012IUP[0]	/* InterpolateUntPts */\012IUP[1]	/* InterpolateUntPts */";
};
width = 311;
}
);
note = Jcircumflex;
unicode = 0134;
},
{
color = 6;
glyphname = K;
lastChange = "2021-11-13 22:45:36 +0000";
layers = (
{
hints = (
{
horizontal = 1;
place = "{0, 21}";
target = up;
type = BottomGhost;
},
{
horizontal = 1;
place = "{591, -20}";
target = down;
type = TopGhost;
},
{
place = "{50, 12}";
type = Stem;
}
);
layerId = "5E1A2ACF-25BB-4872-A226-5327BC7330DB";
paths = (
{
closed = 1;
nodes = (
"276 0 LINE",
"291 0 LINE",
"105 306 LINE",
"286 591 LINE",
"272 591 LINE",
"91 306 LINE"
);
},
{
closed = 1;
nodes = (
"62 591 LINE",
"50 591 LINE",
"50 0 LINE",
"62 0 LINE"
);
}
);
width = 325;
},
{
layerId = "9AA098C0-EDBC-463F-BC21-AFCD07A070D0";
paths = (
{
closed = 1;
nodes = (
"261 0 LINE",
"118 306 LINE",
"339 591 LINE",
"325 591 LINE",
"104 306 LINE",
"246 0 LINE"
);
},
{
closed = 1;
nodes = (
"103 591 LINE",
"20 0 LINE",
"32 0 LINE",
"115 591 LINE"
);
}
);
userData = {
assembly = "SVTCA[0]	/* SetFreedomAndProjectionVectorToAxis */\012PUSHW[ ]	/* 1 value pushed */\0120 \012RCVT[ ]	/* ReadCVT */\012IF[ ]	/* If */\012PUSHW[ ]	/* 1 value pushed */\0124 \012MDAP[1]	/* MoveDirectAbsPt */\012ELSE[ ]	/* Else */\012PUSHW[ ]	/* 2 values pushed */\0124 5 \012MIAP[0]	/* MoveIndirectAbsPt */\012EIF[ ]	/* EndIf */\012PUSHW[ ]	/* 1 value pushed */\0120 \012RCVT[ ]	/* ReadCVT */\012IF[ ]	/* If */\012PUSHW[ ]	/* 1 value pushed */\0126 \012MDAP[1]	/* MoveDirectAbsPt */\012ELSE[ ]	/* Else */\012PUSHW[ ]	/* 2 values pushed */\0126 5 \012MIAP[0]	/* MoveIndirectAbsPt */\012EIF[ ]	/* EndIf */\012IUP[0]	/* InterpolateUntPts */\012IUP[1]	/* InterpolateUntPts */";
};
width = 325;
}
);
note = K;
unicode = 004B;
},
{
color = 6;
glyphname = L;
lastChange = "2021-11-13 22:45:36 +0000";
layers = (
{
hints = (
{
horizontal = 1;
place = "{0, 11}";
type = Stem;
},
{
horizontal = 1;
place = "{591, -20}";
target = down;
type = TopGhost;
},
{
place = "{50, 12}";
type = Stem;
}
);
layerId = "5E1A2ACF-25BB-4872-A226-5327BC7330DB";
paths = (
{
closed = 1;
nodes = (
"50 0 LINE",
"260 0 LINE",
"260 11 LINE",
"62 11 LINE",
"62 591 LINE",
"50 591 LINE"
);
}
);
width = 280;
},
{
layerId = "9AA098C0-EDBC-463F-BC21-AFCD07A070D0";
paths = (
{
closed = 1;
nodes = (
"230 0 LINE",
"231 11 LINE",
"33 11 LINE",
"115 591 LINE",
"103 591 LINE",
"20 0 LINE"
);
}
);
width = 271;
}
);
note = L;
rightKerningGroup = L;
unicode = 004C;
},
{
color = 11;
glyphname = Lacute;
lastChange = "2021-11-13 22:45:36 +0000";
layers = (
{
hints = (
{
horizontal = 1;
place = "{0, 11}";
type = Stem;
},
{
horizontal = 1;
place = "{591, -20}";
target = down;
type = TopGhost;
},
{
place = "{64, 12}";
type = Stem;
}
);
layerId = "5E1A2ACF-25BB-4872-A226-5327BC7330DB";
paths = (
{
closed = 1;
nodes = (
"64 0 LINE",
"274 0 LINE",
"274 11 LINE",
"76 11 LINE",
"76 591 LINE",
"64 591 LINE"
);
},
{
closed = 1;
nodes = (
"134 716 LINE",
"112 716 LINE",
"50 630 LINE",
"61 630 LINE"
);
}
);
width = 330;
},
{
layerId = "9AA098C0-EDBC-463F-BC21-AFCD07A070D0";
paths = (
{
closed = 1;
nodes = (
"244 0 LINE",
"245 11 LINE",
"47 11 LINE",
"129 591 LINE",
"117 591 LINE",
"34 0 LINE"
);
},
{
closed = 1;
nodes = (
"182 716 LINE",
"108 630 LINE",
"119 630 LINE",
"204 716 LINE"
);
}
);
userData = {
assembly = "SVTCA[0]	/* SetFreedomAndProjectionVectorToAxis */\012PUSHW[ ]	/* 4 values pushed */\0128 3 6 4 \012CALL[ ]	/* CallFunction */\012IUP[0]	/* InterpolateUntPts */\012IUP[1]	/* InterpolateUntPts */";
};
width = 330;
}
);
note = Lacute;
rightKerningGroup = L;
unicode = 0139;
},
{
color = 11;
glyphname = Lcaron;
lastChange = "2021-11-13 22:45:36 +0000";
layers = (
{
components = (
{
name = L;
},
{
name = caroncomb.alt;
transform = "{1, 0, 0, 1, 161, -51}";
}
);
hints = (
{
horizontal = 1;
place = "{0, 11}";
type = Stem;
},
{
horizontal = 1;
place = "{591, -20}";
target = down;
type = TopGhost;
},
{
place = "{50, 12}";
type = Stem;
},
{
place = "{137, 19}";
type = Stem;
}
);
layerId = "5E1A2ACF-25BB-4872-A226-5327BC7330DB";
width = 280;
},
{
layerId = "9AA098C0-EDBC-463F-BC21-AFCD07A070D0";
paths = (
{
closed = 1;
nodes = (
"230 0 LINE",
"231 11 LINE",
"33 11 LINE",
"115 591 LINE",
"103 591 LINE",
"20 0 LINE"
);
},
{
closed = 1;
nodes = (
"173 545 OFFCURVE",
"163 534 QCURVE",
"167 533 OFFCURVE",
"174 535 OFFCURVE",
"181 541 QCURVE SMOOTH",
"193 553 OFFCURVE",
"209 593 OFFCURVE",
"211 609 QCURVE SMOOTH",
"212 617 OFFCURVE",
"207 630 OFFCURVE",
"197 630 QCURVE SMOOTH",
"188 630 OFFCURVE",
"178 620 OFFCURVE",
"177 612 QCURVE SMOOTH",
"176 607 OFFCURVE",
"180 601 OFFCURVE",
"182 597 QCURVE",
"190 589 OFFCURVE",
"188 577 QCURVE SMOOTH",
"186 563 OFFCURVE"
);
}
);
userData = {
assembly = "SVTCA[0]	/* SetFreedomAndProjectionVectorToAxis */\012PUSHW[ ]	/* 1 value pushed */\0120 \012RCVT[ ]	/* ReadCVT */\012IF[ ]	/* If */\012PUSHW[ ]	/* 1 value pushed */\0124 \012MDAP[1]	/* MoveDirectAbsPt */\012ELSE[ ]	/* Else */\012PUSHW[ ]	/* 2 values pushed */\0124 5 \012MIAP[0]	/* MoveIndirectAbsPt */\012EIF[ ]	/* EndIf */\012IUP[0]	/* InterpolateUntPts */\012IUP[1]	/* InterpolateUntPts */";
};
width = 310;
}
);
note = Lcaron;
unicode = 013D;
},
{
color = 11;
glyphname = Lslash;
lastChange = "2021-11-13 22:45:36 +0000";
layers = (
{
hints = (
{
horizontal = 1;
place = "{0, 11}";
type = Stem;
},
{
horizontal = 1;
place = "{591, -20}";
target = down;
type = TopGhost;
},
{
place = "{119, 12}";
type = Stem;
}
);
layerId = "5E1A2ACF-25BB-4872-A226-5327BC7330DB";
paths = (
{
closed = 1;
nodes = (
"50 171 LINE",
"50 160 LINE",
"119 191 LINE",
"119 0 LINE",
"329 0 LINE",
"329 11 LINE",
"131 11 LINE",
"131 197 LINE",
"218 237 LINE",
"218 247 LINE",
"131 207 LINE",
"131 591 LINE",
"119 591 LINE",
"119 202 LINE"
);
}
);
width = 374;
},
{
layerId = "9AA098C0-EDBC-463F-BC21-AFCD07A070D0";
paths = (
{
closed = 1;
nodes = (
"42 160 LINE",
"115 191 LINE",
"89 0 LINE",
"299 0 LINE",
"300 11 LINE",
"102 11 LINE",
"128 197 LINE",
"221 237 LINE",
"222 247 LINE",
"130 207 LINE",
"184 591 LINE",
"172 591 LINE",
"117 202 LINE",
"44 171 LINE"
);
}
);
userData = {
assembly = "PUSHW[ ]	/* 4 values pushed */\0122 4 12 4 \012CALL[ ]	/* CallFunction */\012IUP[0]	/* InterpolateUntPts */\012IUP[1]	/* InterpolateUntPts */";
};
width = 374;
}
);
note = Lslash;
unicode = 0141;
},
{
color = 6;
glyphname = M;
lastChange = "2021-11-13 22:45:36 +0000";
layers = (
{
hints = (
{
horizontal = 1;
place = "{0, 16}";
type = Stem;
},
{
horizontal = 1;
place = "{591, -20}";
target = down;
type = TopGhost;
},
{
place = "{50, 12}";
type = Stem;
},
{
place = "{404, 12}";
type = Stem;
}
);
layerId = "5E1A2ACF-25BB-4872-A226-5327BC7330DB";
paths = (
{
closed = 1;
nodes = (
"416 591 LINE",
"408 591 LINE",
"233 16 LINE",
"59 591 LINE",
"50 591 LINE",
"50 0 LINE",
"62 0 LINE",
"62 537 LINE",
"226 0 LINE",
"240 0 LINE",
"283 148 OFFCURVE",
"340 324 OFFCURVE",
"404 537 CURVE",
"404 0 LINE",
"416 0 LINE"
);
}
);
width = 466;
},
{
layerId = "9AA098C0-EDBC-463F-BC21-AFCD07A070D0";
paths = (
{
closed = 1;
nodes = (
"461 591 LINE",
"205 16 LINE",
"112 591 LINE",
"103 591 LINE",
"20 0 LINE",
"32 0 LINE",
"107 537 LINE",
"196 0 LINE",
"210 0 LINE",
"258 111 OFFCURVE",
"379 377 OFFCURVE",
"449 537 QCURVE",
"374 0 LINE",
"386 0 LINE",
"469 591 LINE"
);
}
);
userData = {
assembly = "SVTCA[0]	/* SetFreedomAndProjectionVectorToAxis */\012PUSHW[ ]	/* 1 value pushed */\0120 \012RCVT[ ]	/* ReadCVT */\012IF[ ]	/* If */\012PUSHW[ ]	/* 1 value pushed */\0120 \012MDAP[1]	/* MoveDirectAbsPt */\012ELSE[ ]	/* Else */\012PUSHW[ ]	/* 2 values pushed */\0120 5 \012MIAP[0]	/* MoveIndirectAbsPt */\012EIF[ ]	/* EndIf */\012PUSHW[ ]	/* 1 value pushed */\0120 \012RCVT[ ]	/* ReadCVT */\012IF[ ]	/* If */\012PUSHW[ ]	/* 1 value pushed */\0125 \012MDAP[1]	/* MoveDirectAbsPt */\012ELSE[ ]	/* Else */\012PUSHW[ ]	/* 2 values pushed */\0125 5 \012MIAP[0]	/* MoveIndirectAbsPt */\012EIF[ ]	/* EndIf */\012PUSHW[ ]	/* 1 value pushed */\0120 \012RCVT[ ]	/* ReadCVT */\012IF[ ]	/* If */\012PUSHW[ ]	/* 1 value pushed */\0128 \012MDAP[1]	/* MoveDirectAbsPt */\012ELSE[ ]	/* Else */\012PUSHW[ ]	/* 2 values pushed */\0128 5 \012MIAP[0]	/* MoveIndirectAbsPt */\012EIF[ ]	/* EndIf */\012IUP[0]	/* InterpolateUntPts */\012IUP[1]	/* InterpolateUntPts */";
};
width = 466;
}
);
note = M;
unicode = 004D;
},
{
color = 6;
glyphname = N;
lastChange = "2021-11-13 22:45:36 +0000";
layers = (
{
hints = (
{
horizontal = 1;
place = "{0, 17}";
type = Stem;
},
{
horizontal = 1;
place = "{591, -20}";
target = down;
type = TopGhost;
},
{
place = "{50, 12}";
type = Stem;
},
{
place = "{312, 11}";
type = Stem;
},
{
horizontal = 1;
place = "{564, 27}";
type = Stem;
}
);
layerId = "5E1A2ACF-25BB-4872-A226-5327BC7330DB";
paths = (
{
closed = 1;
nodes = (
"64 591 LINE",
"50 591 LINE",
"50 0 LINE",
"62 0 LINE",
"62 564 LINE",
"307 0 LINE",
"323 0 LINE",
"323 591 LINE",
"312 591 LINE",
"312 17 LINE"
);
}
);
width = 373;
},
{
layerId = "9AA098C0-EDBC-463F-BC21-AFCD07A070D0";
paths = (
{
closed = 1;
nodes = (
"103 591 LINE",
"20 0 LINE",
"32 0 LINE",
"111 564 LINE",
"277 0 LINE",
"293 0 LINE",
"376 591 LINE",
"365 591 LINE",
"284 17 LINE",
"117 591 LINE"
);
}
);
userData = {
assembly = "SVTCA[0]	/* SetFreedomAndProjectionVectorToAxis */\012PUSHW[ ]	/* 1 value pushed */\0120 \012RCVT[ ]	/* ReadCVT */\012IF[ ]	/* If */\012PUSHW[ ]	/* 1 value pushed */\0123 \012MDAP[1]	/* MoveDirectAbsPt */\012ELSE[ ]	/* Else */\012PUSHW[ ]	/* 2 values pushed */\0123 5 \012MIAP[0]	/* MoveIndirectAbsPt */\012EIF[ ]	/* EndIf */\012PUSHW[ ]	/* 1 value pushed */\0120 \012RCVT[ ]	/* ReadCVT */\012IF[ ]	/* If */\012PUSHW[ ]	/* 1 value pushed */\0126 \012MDAP[1]	/* MoveDirectAbsPt */\012ELSE[ ]	/* Else */\012PUSHW[ ]	/* 2 values pushed */\0126 5 \012MIAP[0]	/* MoveIndirectAbsPt */\012EIF[ ]	/* EndIf */\012IUP[0]	/* InterpolateUntPts */\012IUP[1]	/* InterpolateUntPts */";
};
width = 373;
}
);
note = N;
unicode = 004E;
},
{
color = 11;
glyphname = Nacute;
lastChange = "2021-11-13 22:45:36 +0000";
layers = (
{
hints = (
{
horizontal = 1;
place = "{0, 17}";
type = Stem;
},
{
horizontal = 1;
place = "{591, -20}";
target = down;
type = TopGhost;
},
{
place = "{50, 12}";
type = Stem;
},
{
place = "{312, 11}";
type = Stem;
},
{
horizontal = 1;
place = "{564, 27}";
type = Stem;
}
);
layerId = "5E1A2ACF-25BB-4872-A226-5327BC7330DB";
paths = (
{
closed = 1;
nodes = (
"64 591 LINE",
"50 591 LINE",
"50 0 LINE",
"62 0 LINE",
"62 564 LINE",
"307 0 LINE",
"323 0 LINE",
"323 591 LINE",
"312 591 LINE",
"312 17 LINE"
);
},
{
closed = 1;
nodes = (
"238 716 LINE",
"216 716 LINE",
"154 630 LINE",
"165 630 LINE"
);
}
);
width = 373;
},
{
layerId = "9AA098C0-EDBC-463F-BC21-AFCD07A070D0";
paths = (
{
closed = 1;
nodes = (
"103 591 LINE",
"20 0 LINE",
"32 0 LINE",
"111 564 LINE",
"277 0 LINE",
"293 0 LINE",
"376 591 LINE",
"365 591 LINE",
"284 17 LINE",
"117 591 LINE"
);
},
{
closed = 1;
nodes = (
"286 716 LINE",
"212 630 LINE",
"223 630 LINE",
"308 716 LINE"
);
}
);
userData = {
assembly = "SVTCA[0]	/* SetFreedomAndProjectionVectorToAxis */\012PUSHW[ ]	/* 1 value pushed */\0120 \012RCVT[ ]	/* ReadCVT */\012IF[ ]	/* If */\012PUSHW[ ]	/* 1 value pushed */\0123 \012MDAP[1]	/* MoveDirectAbsPt */\012ELSE[ ]	/* Else */\012PUSHW[ ]	/* 2 values pushed */\0123 5 \012MIAP[0]	/* MoveIndirectAbsPt */\012EIF[ ]	/* EndIf */\012PUSHW[ ]	/* 1 value pushed */\0120 \012RCVT[ ]	/* ReadCVT */\012IF[ ]	/* If */\012PUSHW[ ]	/* 1 value pushed */\0126 \012MDAP[1]	/* MoveDirectAbsPt */\012ELSE[ ]	/* Else */\012PUSHW[ ]	/* 2 values pushed */\0126 5 \012MIAP[0]	/* MoveIndirectAbsPt */\012EIF[ ]	/* EndIf */\012PUSHW[ ]	/* 4 values pushed */\01212 3 10 4 \012CALL[ ]	/* CallFunction */\012IUP[0]	/* InterpolateUntPts */\012IUP[1]	/* InterpolateUntPts */";
};
width = 373;
}
);
note = Nacute;
unicode = 0143;
},
{
color = 11;
glyphname = Ncaron;
lastChange = "2021-11-13 22:45:36 +0000";
layers = (
{
hints = (
{
horizontal = 1;
place = "{0, 17}";
type = Stem;
},
{
horizontal = 1;
place = "{591, -20}";
target = down;
type = TopGhost;
},
{
horizontal = 1;
place = "{630, 7}";
type = Stem;
},
{
place = "{50, 12}";
type = Stem;
},
{
place = "{312, 11}";
type = Stem;
},
{
horizontal = 1;
place = "{564, 27}";
type = Stem;
}
);
layerId = "5E1A2ACF-25BB-4872-A226-5327BC7330DB";
paths = (
{
closed = 1;
nodes = (
"64 591 LINE",
"50 591 LINE",
"50 0 LINE",
"62 0 LINE",
"62 564 LINE",
"307 0 LINE",
"323 0 LINE",
"323 591 LINE",
"312 591 LINE",
"312 17 LINE"
);
},
{
closed = 1;
nodes = (
"201 630 LINE",
"230 661 OFFCURVE",
"263 692 OFFCURVE",
"292 724 CURVE",
"279 724 LINE",
"194 637 LINE",
"110 724 LINE",
"96 724 LINE",
"149 668 OFFCURVE",
"166 649 OFFCURVE",
"185 630 CURVE"
);
}
);
width = 373;
},
{
layerId = "9AA098C0-EDBC-463F-BC21-AFCD07A070D0";
paths = (
{
closed = 1;
nodes = (
"103 591 LINE",
"20 0 LINE",
"32 0 LINE",
"111 564 LINE",
"277 0 LINE",
"293 0 LINE",
"376 591 LINE",
"365 591 LINE",
"284 17 LINE",
"117 591 LINE"
);
},
{
closed = 1;
nodes = (
"284 653 OFFCURVE",
"338 700 OFFCURVE",
"363 724 QCURVE",
"350 724 LINE",
"253 637 LINE",
"181 724 LINE",
"167 724 LINE",
"184 703 OFFCURVE",
"208 674 OFFCURVE",
"225 653 OFFCURVE",
"237 637 OFFCURVE",
"243 630 QCURVE",
"259 630 LINE"
);
}
);
userData = {
assembly = "SVTCA[0]	/* SetFreedomAndProjectionVectorToAxis */\012PUSHW[ ]	/* 1 value pushed */\0120 \012RCVT[ ]	/* ReadCVT */\012IF[ ]	/* If */\012PUSHW[ ]	/* 1 value pushed */\0123 \012MDAP[1]	/* MoveDirectAbsPt */\012ELSE[ ]	/* Else */\012PUSHW[ ]	/* 2 values pushed */\0123 5 \012MIAP[0]	/* MoveIndirectAbsPt */\012EIF[ ]	/* EndIf */\012PUSHW[ ]	/* 1 value pushed */\0120 \012RCVT[ ]	/* ReadCVT */\012IF[ ]	/* If */\012PUSHW[ ]	/* 1 value pushed */\0126 \012MDAP[1]	/* MoveDirectAbsPt */\012ELSE[ ]	/* Else */\012PUSHW[ ]	/* 2 values pushed */\0126 5 \012MIAP[0]	/* MoveIndirectAbsPt */\012EIF[ ]	/* EndIf */\012PUSHW[ ]	/* 4 values pushed */\01216 3 10 4 \012CALL[ ]	/* CallFunction */\012PUSHW[ ]	/* 1 value pushed */\01216 \012SRP0[ ]	/* SetRefPoint0 */\012PUSHW[ ]	/* 1 value pushed */\01218 \012MDRP[10000]	/* MoveDirectRelPt */\012IUP[0]	/* InterpolateUntPts */\012IUP[1]	/* InterpolateUntPts */";
};
width = 373;
}
);
note = Ncaron;
unicode = 0147;
},
{
color = 6;
glyphname = Eng;
lastChange = "2021-11-13 22:45:36 +0000";
layers = (
{
hints = (
{
horizontal = 1;
place = "{-247, 10}";
type = Stem;
},
{
horizontal = 1;
place = "{0, 21}";
target = up;
type = BottomGhost;
},
{
horizontal = 1;
place = "{591, -20}";
target = down;
type = TopGhost;
},
{
place = "{50, 12}";
type = Stem;
},
{
place = "{311, 12}";
type = Stem;
},
{
horizontal = 1;
place = "{564, 27}";
type = Stem;
}
);
layerId = "5E1A2ACF-25BB-4872-A226-5327BC7330DB";
paths = (
{
closed = 1;
nodes = (
"206 -247 LINE",
"213 -248 OFFCURVE",
"221 -247 OFFCURVE",
"228 -247 CURVE SMOOTH",
"240 -247 LINE SMOOTH",
"317 -247 OFFCURVE",
"323 -214 OFFCURVE",
"323 -130 CURVE SMOOTH",
"323 591 LINE",
"312 591 LINE",
"312 17 LINE",
"64 591 LINE",
"50 591 LINE",
"50 0 LINE",
"62 0 LINE",
"62 564 LINE",
"311 -9 LINE",
"311 -161 LINE SMOOTH",
"311 -218 OFFCURVE",
"288 -237 OFFCURVE",
"240 -237 CURVE SMOOTH",
"206 -237 LINE"
);
}
);
width = 373;
},
{
layerId = "9AA098C0-EDBC-463F-BC21-AFCD07A070D0";
paths = (
{
closed = 1;
nodes = (
"181 -248 OFFCURVE",
"193 -247 OFFCURVE",
"198 -247 QCURVE SMOOTH",
"210 -247 LINE SMOOTH",
"239 -247 OFFCURVE",
"274 -234 OFFCURVE",
"294 -206 OFFCURVE",
"304 -162 OFFCURVE",
"309 -130 QCURVE SMOOTH",
"410 591 LINE",
"399 591 LINE",
"319 17 LINE",
"151 591 LINE",
"137 591 LINE",
"54 0 LINE",
"66 0 LINE",
"146 564 LINE",
"314 -9 LINE",
"293 -161 LINE SMOOTH",
"287 -204 OFFCURVE",
"247 -237 OFFCURVE",
"211 -237 QCURVE SMOOTH",
"177 -237 LINE",
"176 -247 LINE"
);
}
);
userData = {
assembly = "SVTCA[0]	/* SetFreedomAndProjectionVectorToAxis */\012PUSHW[ ]	/* 1 value pushed */\0120 \012RCVT[ ]	/* ReadCVT */\012IF[ ]	/* If */\012PUSHW[ ]	/* 1 value pushed */\0127 \012MDAP[1]	/* MoveDirectAbsPt */\012ELSE[ ]	/* Else */\012PUSHW[ ]	/* 2 values pushed */\0127 5 \012MIAP[0]	/* MoveIndirectAbsPt */\012EIF[ ]	/* EndIf */\012IUP[0]	/* InterpolateUntPts */\012IUP[1]	/* InterpolateUntPts */";
};
width = 373;
}
);
note = Eng;
unicode = 014A;
},
{
color = 11;
glyphname = Ntilde;
lastChange = "2021-11-13 22:45:36 +0000";
layers = (
{
hints = (
{
horizontal = 1;
place = "{0, 17}";
type = Stem;
},
{
horizontal = 1;
place = "{591, -20}";
target = down;
type = TopGhost;
},
{
horizontal = 1;
place = "{700, 9}";
type = Stem;
},
{
horizontal = 1;
place = "{742, 8}";
type = Stem;
},
{
place = "{50, 12}";
type = Stem;
},
{
place = "{312, 11}";
type = Stem;
},
{
horizontal = 1;
place = "{564, 27}";
type = Stem;
},
{
place = "{76, 10}";
type = Stem;
},
{
place = "{291, 9}";
type = Stem;
}
);
layerId = "5E1A2ACF-25BB-4872-A226-5327BC7330DB";
paths = (
{
closed = 1;
nodes = (
"64 591 LINE",
"50 591 LINE",
"50 0 LINE",
"62 0 LINE",
"62 564 LINE",
"307 0 LINE",
"323 0 LINE",
"323 591 LINE",
"312 591 LINE",
"312 17 LINE"
);
},
{
closed = 1;
nodes = (
"275 700 OFFCURVE",
"296 721 OFFCURVE",
"300 748 CURVE",
"291 748 LINE",
"287 716 OFFCURVE",
"266 709 OFFCURVE",
"242 709 CURVE SMOOTH",
"201 709 OFFCURVE",
"174 750 OFFCURVE",
"134 750 CURVE SMOOTH",
"99 750 OFFCURVE",
"80 731 OFFCURVE",
"76 704 CURVE",
"86 704 LINE",
"90 735 OFFCURVE",
"110 742 OFFCURVE",
"134 742 CURVE SMOOTH",
"150 742 OFFCURVE",
"166 733 OFFCURVE",
"178 725 CURVE SMOOTH",
"205 708 OFFCURVE",
"226 700 OFFCURVE",
"242 700 CURVE SMOOTH"
);
}
);
width = 373;
},
{
layerId = "9AA098C0-EDBC-463F-BC21-AFCD07A070D0";
paths = (
{
closed = 1;
nodes = (
"103 591 LINE",
"20 0 LINE",
"32 0 LINE",
"111 564 LINE",
"277 0 LINE",
"293 0 LINE",
"376 591 LINE",
"365 591 LINE",
"284 17 LINE",
"117 591 LINE"
);
},
{
closed = 1;
nodes = (
"369 728 OFFCURVE",
"375 748 QCURVE",
"366 748 LINE",
"359 724 OFFCURVE",
"329 709 OFFCURVE",
"311 709 QCURVE SMOOTH",
"296 709 OFFCURVE",
"271 722 OFFCURVE",
"248 737 OFFCURVE",
"224 750 OFFCURVE",
"209 750 QCURVE SMOOTH",
"183 750 OFFCURVE",
"150 724 OFFCURVE",
"144 704 QCURVE",
"154 704 LINE",
"161 727 OFFCURVE",
"190 742 OFFCURVE",
"208 742 QCURVE SMOOTH",
"220 742 OFFCURVE",
"241 731 OFFCURVE",
"249 725 QCURVE SMOOTH",
"286 700 OFFCURVE",
"310 700 QCURVE SMOOTH",
"335 700 OFFCURVE"
);
}
);
userData = {
assembly = "SVTCA[0]	/* SetFreedomAndProjectionVectorToAxis */\012PUSHW[ ]	/* 1 value pushed */\0120 \012RCVT[ ]	/* ReadCVT */\012IF[ ]	/* If */\012PUSHW[ ]	/* 1 value pushed */\0123 \012MDAP[1]	/* MoveDirectAbsPt */\012ELSE[ ]	/* Else */\012PUSHW[ ]	/* 2 values pushed */\0123 5 \012MIAP[0]	/* MoveIndirectAbsPt */\012EIF[ ]	/* EndIf */\012PUSHW[ ]	/* 1 value pushed */\0120 \012RCVT[ ]	/* ReadCVT */\012IF[ ]	/* If */\012PUSHW[ ]	/* 1 value pushed */\0126 \012MDAP[1]	/* MoveDirectAbsPt */\012ELSE[ ]	/* Else */\012PUSHW[ ]	/* 2 values pushed */\0126 5 \012MIAP[0]	/* MoveIndirectAbsPt */\012EIF[ ]	/* EndIf */\012IUP[0]	/* InterpolateUntPts */\012IUP[1]	/* InterpolateUntPts */";
};
width = 373;
}
);
note = Ntilde;
unicode = 00D1;
},
{
color = 6;
glyphname = O;
lastChange = "2021-11-13 22:45:36 +0000";
layers = (
{
hints = (
{
horizontal = 1;
place = "{-12, 10}";
type = Stem;
},
{
horizontal = 1;
place = "{589, 10}";
type = Stem;
},
{
place = "{50, 12}";
type = Stem;
},
{
place = "{311, 12}";
type = Stem;
}
);
layerId = "5E1A2ACF-25BB-4872-A226-5327BC7330DB";
paths = (
{
closed = 1;
nodes = (
"323 469 LINE SMOOTH",
"323 583 OFFCURVE",
"264 599 OFFCURVE",
"187 599 CURVE SMOOTH",
"110 599 OFFCURVE",
"50 585 OFFCURVE",
"50 469 CURVE SMOOTH",
"50 118 LINE SMOOTH",
"50 4 OFFCURVE",
"109 -12 OFFCURVE",
"185 -12 CURVE SMOOTH",
"265 -12 OFFCURVE",
"323 2 OFFCURVE",
"323 118 CURVE SMOOTH"
);
},
{
closed = 1;
nodes = (
"311 115 LINE SMOOTH",
"311 11 OFFCURVE",
"256 -2 OFFCURVE",
"186 -2 CURVE SMOOTH",
"117 -2 OFFCURVE",
"62 11 OFFCURVE",
"62 115 CURVE SMOOTH",
"62 472 LINE SMOOTH",
"62 576 OFFCURVE",
"117 589 OFFCURVE",
"186 589 CURVE SMOOTH",
"254 589 OFFCURVE",
"311 576 OFFCURVE",
"311 472 CURVE SMOOTH"
);
}
);
width = 373;
},
{
layerId = "9AA098C0-EDBC-463F-BC21-AFCD07A070D0";
paths = (
{
closed = 1;
nodes = (
"366 512 OFFCURVE",
"353 563 OFFCURVE",
"320 590 OFFCURVE",
"271 599 OFFCURVE",
"242 599 QCURVE SMOOTH",
"213 599 OFFCURVE",
"161 591 OFFCURVE",
"121 564 OFFCURVE",
"93 512 OFFCURVE",
"87 469 QCURVE SMOOTH",
"38 118 LINE SMOOTH",
"32 75 OFFCURVE",
"45 24 OFFCURVE",
"78 -3 OFFCURVE",
"126 -12 OFFCURVE",
"155 -12 QCURVE SMOOTH",
"185 -12 OFFCURVE",
"236 -4 OFFCURVE",
"277 23 OFFCURVE",
"305 74 OFFCURVE",
"311 118 QCURVE SMOOTH",
"360 469 LINE SMOOTH"
);
},
{
closed = 1;
nodes = (
"293 76 OFFCURVE",
"267 30 OFFCURVE",
"230 5 OFFCURVE",
"183 -2 OFFCURVE",
"157 -2 QCURVE SMOOTH",
"131 -2 OFFCURVE",
"87 5 OFFCURVE",
"57 30 OFFCURVE",
"44 76 OFFCURVE",
"49 115 QCURVE SMOOTH",
"100 472 LINE SMOOTH",
"105 511 OFFCURVE",
"131 557 OFFCURVE",
"168 582 OFFCURVE",
"214 589 OFFCURVE",
"240 589 QCURVE SMOOTH",
"265 589 OFFCURVE",
"310 582 OFFCURVE",
"341 557 OFFCURVE",
"354 511 OFFCURVE",
"349 472 QCURVE SMOOTH",
"298 115 LINE SMOOTH"
);
}
);
width = 373;
}
);
note = O;
unicode = 004F;
},
{
color = 11;
glyphname = Oacute;
lastChange = "2021-11-13 22:45:36 +0000";
layers = (
{
hints = (
{
horizontal = 1;
place = "{-12, 10}";
type = Stem;
},
{
horizontal = 1;
place = "{589, 10}";
type = Stem;
},
{
place = "{50, 12}";
type = Stem;
},
{
place = "{311, 12}";
type = Stem;
}
);
layerId = "5E1A2ACF-25BB-4872-A226-5327BC7330DB";
paths = (
{
closed = 1;
nodes = (
"323 469 LINE SMOOTH",
"323 583 OFFCURVE",
"264 599 OFFCURVE",
"187 599 CURVE SMOOTH",
"110 599 OFFCURVE",
"50 585 OFFCURVE",
"50 469 CURVE SMOOTH",
"50 118 LINE SMOOTH",
"50 4 OFFCURVE",
"109 -12 OFFCURVE",
"185 -12 CURVE SMOOTH",
"265 -12 OFFCURVE",
"323 2 OFFCURVE",
"323 118 CURVE SMOOTH"
);
},
{
closed = 1;
nodes = (
"311 115 LINE SMOOTH",
"311 11 OFFCURVE",
"256 -2 OFFCURVE",
"186 -2 CURVE SMOOTH",
"117 -2 OFFCURVE",
"62 11 OFFCURVE",
"62 115 CURVE SMOOTH",
"62 472 LINE SMOOTH",
"62 576 OFFCURVE",
"117 589 OFFCURVE",
"186 589 CURVE SMOOTH",
"254 589 OFFCURVE",
"311 576 OFFCURVE",
"311 472 CURVE SMOOTH"
);
},
{
closed = 1;
nodes = (
"230 750 LINE",
"208 750 LINE",
"146 664 LINE",
"157 664 LINE"
);
}
);
width = 373;
},
{
layerId = "9AA098C0-EDBC-463F-BC21-AFCD07A070D0";
paths = (
{
closed = 1;
nodes = (
"366 512 OFFCURVE",
"353 563 OFFCURVE",
"320 590 OFFCURVE",
"271 599 OFFCURVE",
"242 599 QCURVE SMOOTH",
"213 599 OFFCURVE",
"161 591 OFFCURVE",
"121 564 OFFCURVE",
"93 512 OFFCURVE",
"87 469 QCURVE SMOOTH",
"38 118 LINE SMOOTH",
"32 75 OFFCURVE",
"45 24 OFFCURVE",
"78 -3 OFFCURVE",
"126 -12 OFFCURVE",
"155 -12 QCURVE SMOOTH",
"185 -12 OFFCURVE",
"236 -4 OFFCURVE",
"277 23 OFFCURVE",
"305 74 OFFCURVE",
"311 118 QCURVE SMOOTH",
"360 469 LINE SMOOTH"
);
},
{
closed = 1;
nodes = (
"293 76 OFFCURVE",
"267 30 OFFCURVE",
"230 5 OFFCURVE",
"183 -2 OFFCURVE",
"157 -2 QCURVE SMOOTH",
"131 -2 OFFCURVE",
"87 5 OFFCURVE",
"57 30 OFFCURVE",
"44 76 OFFCURVE",
"49 115 QCURVE SMOOTH",
"100 472 LINE SMOOTH",
"105 511 OFFCURVE",
"131 557 OFFCURVE",
"168 582 OFFCURVE",
"214 589 OFFCURVE",
"240 589 QCURVE SMOOTH",
"265 589 OFFCURVE",
"310 582 OFFCURVE",
"341 557 OFFCURVE",
"354 511 OFFCURVE",
"349 472 QCURVE SMOOTH",
"298 115 LINE SMOOTH"
);
},
{
closed = 1;
nodes = (
"285 750 LINE",
"211 664 LINE",
"222 664 LINE",
"307 750 LINE"
);
}
);
userData = {
assembly = "SVTCA[0]	/* SetFreedomAndProjectionVectorToAxis */\012PUSHW[ ]	/* 4 values pushed */\01246 3 44 4 \012CALL[ ]	/* CallFunction */\012IUP[0]	/* InterpolateUntPts */\012IUP[1]	/* InterpolateUntPts */";
};
width = 373;
}
);
note = Oacute;
unicode = 00D3;
},
{
color = 11;
glyphname = Ocircumflex;
lastChange = "2021-11-13 22:45:36 +0000";
layers = (
{
hints = (
{
horizontal = 1;
place = "{-12, 10}";
type = Stem;
},
{
horizontal = 1;
place = "{589, 10}";
type = Stem;
},
{
horizontal = 1;
place = "{743, 7}";
type = Stem;
},
{
place = "{50, 12}";
type = Stem;
},
{
place = "{311, 12}";
type = Stem;
}
);
layerId = "5E1A2ACF-25BB-4872-A226-5327BC7330DB";
paths = (
{
closed = 1;
nodes = (
"323 469 LINE SMOOTH",
"323 583 OFFCURVE",
"264 599 OFFCURVE",
"187 599 CURVE SMOOTH",
"110 599 OFFCURVE",
"50 585 OFFCURVE",
"50 469 CURVE SMOOTH",
"50 118 LINE SMOOTH",
"50 4 OFFCURVE",
"109 -12 OFFCURVE",
"185 -12 CURVE SMOOTH",
"265 -12 OFFCURVE",
"323 2 OFFCURVE",
"323 118 CURVE SMOOTH"
);
},
{
closed = 1;
nodes = (
"311 115 LINE SMOOTH",
"311 11 OFFCURVE",
"256 -2 OFFCURVE",
"186 -2 CURVE SMOOTH",
"117 -2 OFFCURVE",
"62 11 OFFCURVE",
"62 115 CURVE SMOOTH",
"62 472 LINE SMOOTH",
"62 576 OFFCURVE",
"117 589 OFFCURVE",
"186 589 CURVE SMOOTH",
"254 589 OFFCURVE",
"311 576 OFFCURVE",
"311 472 CURVE SMOOTH"
);
},
{
closed = 1;
nodes = (
"180 750 LINE",
"151 719 OFFCURVE",
"118 688 OFFCURVE",
"89 656 CURVE",
"102 656 LINE",
"187 743 LINE",
"271 656 LINE",
"285 656 LINE",
"231 712 OFFCURVE",
"214 729 OFFCURVE",
"196 750 CURVE"
);
}
);
width = 373;
},
{
layerId = "9AA098C0-EDBC-463F-BC21-AFCD07A070D0";
paths = (
{
closed = 1;
nodes = (
"366 512 OFFCURVE",
"353 563 OFFCURVE",
"320 590 OFFCURVE",
"271 599 OFFCURVE",
"242 599 QCURVE SMOOTH",
"213 599 OFFCURVE",
"161 591 OFFCURVE",
"121 564 OFFCURVE",
"93 512 OFFCURVE",
"87 469 QCURVE SMOOTH",
"38 118 LINE SMOOTH",
"32 75 OFFCURVE",
"45 24 OFFCURVE",
"78 -3 OFFCURVE",
"126 -12 OFFCURVE",
"155 -12 QCURVE SMOOTH",
"185 -12 OFFCURVE",
"236 -4 OFFCURVE",
"277 23 OFFCURVE",
"305 74 OFFCURVE",
"311 118 QCURVE SMOOTH",
"360 469 LINE SMOOTH"
);
},
{
closed = 1;
nodes = (
"293 76 OFFCURVE",
"267 30 OFFCURVE",
"230 5 OFFCURVE",
"183 -2 OFFCURVE",
"157 -2 QCURVE SMOOTH",
"131 -2 OFFCURVE",
"87 5 OFFCURVE",
"57 30 OFFCURVE",
"44 76 OFFCURVE",
"49 115 QCURVE SMOOTH",
"100 472 LINE SMOOTH",
"105 511 OFFCURVE",
"131 557 OFFCURVE",
"168 582 OFFCURVE",
"214 589 OFFCURVE",
"240 589 QCURVE SMOOTH",
"265 589 OFFCURVE",
"310 582 OFFCURVE",
"341 557 OFFCURVE",
"354 511 OFFCURVE",
"349 472 QCURVE SMOOTH",
"298 115 LINE SMOOTH"
);
},
{
closed = 1;
nodes = (
"231 727 OFFCURVE",
"178 680 OFFCURVE",
"152 656 QCURVE",
"165 656 LINE",
"263 743 LINE",
"334 656 LINE",
"348 656 LINE",
"331 677 OFFCURVE",
"308 706 OFFCURVE",
"291 727 OFFCURVE",
"279 742 OFFCURVE",
"273 750 QCURVE",
"257 750 LINE"
);
}
);
userData = {
assembly = "SVTCA[0]	/* SetFreedomAndProjectionVectorToAxis */\012PUSHW[ ]	/* 4 values pushed */\01244 3 50 4 \012CALL[ ]	/* CallFunction */\012PUSHW[ ]	/* 1 value pushed */\01250 \012SRP0[ ]	/* SetRefPoint0 */\012PUSHW[ ]	/* 1 value pushed */\01252 \012MDRP[10000]	/* MoveDirectRelPt */\012IUP[0]	/* InterpolateUntPts */\012IUP[1]	/* InterpolateUntPts */";
};
width = 373;
}
);
note = Ocircumflex;
unicode = 00D4;
},
{
color = 11;
glyphname = Odieresis;
lastChange = "2021-11-13 22:45:36 +0000";
layers = (
{
hints = (
{
horizontal = 1;
place = "{-12, 10}";
type = Stem;
},
{
horizontal = 1;
place = "{589, 10}";
type = Stem;
},
{
horizontal = 1;
place = "{718, 32}";
type = Stem;
},
{
place = "{50, 12}";
type = Stem;
},
{
place = "{137, 32}";
type = Stem;
},
{
place = "{233, 32}";
type = Stem;
},
{
place = "{311, 12}";
type = Stem;
}
);
layerId = "5E1A2ACF-25BB-4872-A226-5327BC7330DB";
paths = (
{
closed = 1;
nodes = (
"323 469 LINE SMOOTH",
"323 583 OFFCURVE",
"264 599 OFFCURVE",
"187 599 CURVE SMOOTH",
"110 599 OFFCURVE",
"50 585 OFFCURVE",
"50 469 CURVE SMOOTH",
"50 118 LINE SMOOTH",
"50 4 OFFCURVE",
"109 -12 OFFCURVE",
"185 -12 CURVE SMOOTH",
"265 -12 OFFCURVE",
"323 2 OFFCURVE",
"323 118 CURVE SMOOTH"
);
},
{
closed = 1;
nodes = (
"311 115 LINE SMOOTH",
"311 11 OFFCURVE",
"256 -2 OFFCURVE",
"186 -2 CURVE SMOOTH",
"117 -2 OFFCURVE",
"62 11 OFFCURVE",
"62 115 CURVE SMOOTH",
"62 472 LINE SMOOTH",
"62 576 OFFCURVE",
"117 589 OFFCURVE",
"186 589 CURVE SMOOTH",
"254 589 OFFCURVE",
"311 576 OFFCURVE",
"311 472 CURVE SMOOTH"
);
},
{
closed = 1;
nodes = (
"233 723 OFFCURVE",
"238 718 OFFCURVE",
"249 718 CURVE SMOOTH",
"260 718 OFFCURVE",
"265 723 OFFCURVE",
"265 734 CURVE SMOOTH",
"265 745 OFFCURVE",
"260 750 OFFCURVE",
"249 750 CURVE SMOOTH",
"238 750 OFFCURVE",
"233 745 OFFCURVE",
"233 734 CURVE SMOOTH"
);
},
{
closed = 1;
nodes = (
"137 723 OFFCURVE",
"142 718 OFFCURVE",
"153 718 CURVE SMOOTH",
"164 718 OFFCURVE",
"169 723 OFFCURVE",
"169 734 CURVE SMOOTH",
"169 745 OFFCURVE",
"164 750 OFFCURVE",
"153 750 CURVE SMOOTH",
"142 750 OFFCURVE",
"137 745 OFFCURVE",
"137 734 CURVE SMOOTH"
);
}
);
width = 373;
},
{
layerId = "9AA098C0-EDBC-463F-BC21-AFCD07A070D0";
paths = (
{
closed = 1;
nodes = (
"366 512 OFFCURVE",
"353 563 OFFCURVE",
"320 590 OFFCURVE",
"271 599 OFFCURVE",
"242 599 QCURVE SMOOTH",
"213 599 OFFCURVE",
"161 591 OFFCURVE",
"121 564 OFFCURVE",
"93 512 OFFCURVE",
"87 469 QCURVE SMOOTH",
"38 118 LINE SMOOTH",
"32 75 OFFCURVE",
"45 24 OFFCURVE",
"78 -3 OFFCURVE",
"126 -12 OFFCURVE",
"155 -12 QCURVE SMOOTH",
"185 -12 OFFCURVE",
"236 -4 OFFCURVE",
"277 23 OFFCURVE",
"305 74 OFFCURVE",
"311 118 QCURVE SMOOTH",
"360 469 LINE SMOOTH"
);
},
{
closed = 1;
nodes = (
"293 76 OFFCURVE",
"267 30 OFFCURVE",
"230 5 OFFCURVE",
"183 -2 OFFCURVE",
"157 -2 QCURVE SMOOTH",
"131 -2 OFFCURVE",
"87 5 OFFCURVE",
"57 30 OFFCURVE",
"44 76 OFFCURVE",
"49 115 QCURVE SMOOTH",
"100 472 LINE SMOOTH",
"105 511 OFFCURVE",
"131 557 OFFCURVE",
"168 582 OFFCURVE",
"214 589 OFFCURVE",
"240 589 QCURVE SMOOTH",
"265 589 OFFCURVE",
"310 582 OFFCURVE",
"341 557 OFFCURVE",
"354 511 OFFCURVE",
"349 472 QCURVE SMOOTH",
"298 115 LINE SMOOTH"
);
},
{
closed = 1;
nodes = (
"321 718 QCURVE SMOOTH",
"337 718 OFFCURVE",
"339 734 QCURVE",
"341 741 OFFCURVE",
"333 750 OFFCURVE",
"326 750 QCURVE SMOOTH",
"311 750 OFFCURVE",
"307 734 QCURVE SMOOTH",
"305 718 OFFCURVE"
);
},
{
closed = 1;
nodes = (
"225 718 QCURVE SMOOTH",
"241 718 OFFCURVE",
"243 734 QCURVE",
"245 741 OFFCURVE",
"237 750 OFFCURVE",
"230 750 QCURVE SMOOTH",
"215 750 OFFCURVE",
"211 734 QCURVE SMOOTH",
"209 718 OFFCURVE"
);
}
);
width = 373;
}
);
note = Odieresis;
unicode = 00D6;
},
{
color = 11;
glyphname = Ograve;
lastChange = "2021-11-13 22:45:36 +0000";
layers = (
{
hints = (
{
horizontal = 1;
place = "{-12, 10}";
type = Stem;
},
{
horizontal = 1;
place = "{589, 10}";
type = Stem;
},
{
place = "{50, 12}";
type = Stem;
},
{
place = "{311, 12}";
type = Stem;
}
);
layerId = "5E1A2ACF-25BB-4872-A226-5327BC7330DB";
paths = (
{
closed = 1;
nodes = (
"323 469 LINE SMOOTH",
"323 583 OFFCURVE",
"264 599 OFFCURVE",
"187 599 CURVE SMOOTH",
"110 599 OFFCURVE",
"50 585 OFFCURVE",
"50 469 CURVE SMOOTH",
"50 118 LINE SMOOTH",
"50 4 OFFCURVE",
"109 -12 OFFCURVE",
"185 -12 CURVE SMOOTH",
"265 -12 OFFCURVE",
"323 2 OFFCURVE",
"323 118 CURVE SMOOTH"
);
},
{
closed = 1;
nodes = (
"311 115 LINE SMOOTH",
"311 11 OFFCURVE",
"256 -2 OFFCURVE",
"186 -2 CURVE SMOOTH",
"117 -2 OFFCURVE",
"62 11 OFFCURVE",
"62 115 CURVE SMOOTH",
"62 472 LINE SMOOTH",
"62 576 OFFCURVE",
"117 589 OFFCURVE",
"186 589 CURVE SMOOTH",
"254 589 OFFCURVE",
"311 576 OFFCURVE",
"311 472 CURVE SMOOTH"
);
},
{
closed = 1;
nodes = (
"196 664 LINE",
"207 664 LINE",
"145 750 LINE",
"123 750 LINE"
);
}
);
width = 373;
},
{
layerId = "9AA098C0-EDBC-463F-BC21-AFCD07A070D0";
paths = (
{
closed = 1;
nodes = (
"366 512 OFFCURVE",
"353 563 OFFCURVE",
"320 590 OFFCURVE",
"271 599 OFFCURVE",
"242 599 QCURVE SMOOTH",
"213 599 OFFCURVE",
"161 591 OFFCURVE",
"121 564 OFFCURVE",
"93 512 OFFCURVE",
"87 469 QCURVE SMOOTH",
"38 118 LINE SMOOTH",
"32 75 OFFCURVE",
"45 24 OFFCURVE",
"78 -3 OFFCURVE",
"126 -12 OFFCURVE",
"155 -12 QCURVE SMOOTH",
"185 -12 OFFCURVE",
"236 -4 OFFCURVE",
"277 23 OFFCURVE",
"305 74 OFFCURVE",
"311 118 QCURVE SMOOTH",
"360 469 LINE SMOOTH"
);
},
{
closed = 1;
nodes = (
"293 76 OFFCURVE",
"267 30 OFFCURVE",
"230 5 OFFCURVE",
"183 -2 OFFCURVE",
"157 -2 QCURVE SMOOTH",
"131 -2 OFFCURVE",
"87 5 OFFCURVE",
"57 30 OFFCURVE",
"44 76 OFFCURVE",
"49 115 QCURVE SMOOTH",
"100 472 LINE SMOOTH",
"105 511 OFFCURVE",
"131 557 OFFCURVE",
"168 582 OFFCURVE",
"214 589 OFFCURVE",
"240 589 QCURVE SMOOTH",
"265 589 OFFCURVE",
"310 582 OFFCURVE",
"341 557 OFFCURVE",
"354 511 OFFCURVE",
"349 472 QCURVE SMOOTH",
"298 115 LINE SMOOTH"
);
},
{
closed = 1;
nodes = (
"272 664 LINE",
"222 750 LINE",
"200 750 LINE",
"261 664 LINE"
);
}
);
userData = {
assembly = "SVTCA[0]	/* SetFreedomAndProjectionVectorToAxis */\012PUSHW[ ]	/* 4 values pushed */\01245 3 47 4 \012CALL[ ]	/* CallFunction */\012IUP[0]	/* InterpolateUntPts */\012IUP[1]	/* InterpolateUntPts */";
};
width = 373;
}
);
note = Ograve;
unicode = 00D2;
},
{
color = 11;
glyphname = Ohungarumlaut;
lastChange = "2021-11-13 22:45:36 +0000";
layers = (
{
hints = (
{
horizontal = 1;
place = "{-12, 10}";
type = Stem;
},
{
horizontal = 1;
place = "{589, 10}";
type = Stem;
},
{
place = "{50, 12}";
type = Stem;
},
{
place = "{311, 12}";
type = Stem;
}
);
layerId = "5E1A2ACF-25BB-4872-A226-5327BC7330DB";
paths = (
{
closed = 1;
nodes = (
"323 469 LINE SMOOTH",
"323 583 OFFCURVE",
"264 599 OFFCURVE",
"187 599 CURVE SMOOTH",
"110 599 OFFCURVE",
"50 585 OFFCURVE",
"50 469 CURVE SMOOTH",
"50 118 LINE SMOOTH",
"50 4 OFFCURVE",
"109 -12 OFFCURVE",
"185 -12 CURVE SMOOTH",
"265 -12 OFFCURVE",
"323 2 OFFCURVE",
"323 118 CURVE SMOOTH"
);
},
{
closed = 1;
nodes = (
"311 115 LINE SMOOTH",
"311 11 OFFCURVE",
"256 -2 OFFCURVE",
"186 -2 CURVE SMOOTH",
"117 -2 OFFCURVE",
"62 11 OFFCURVE",
"62 115 CURVE SMOOTH",
"62 472 LINE SMOOTH",
"62 576 OFFCURVE",
"117 589 OFFCURVE",
"186 589 CURVE SMOOTH",
"254 589 OFFCURVE",
"311 576 OFFCURVE",
"311 472 CURVE SMOOTH"
);
},
{
closed = 1;
nodes = (
"277 731 LINE",
"261 731 LINE",
"240 684 LINE",
"215 630 LINE",
"219 630 LINE"
);
},
{
closed = 1;
nodes = (
"160 731 LINE",
"145 731 LINE",
"129 696 OFFCURVE",
"112 666 OFFCURVE",
"96 630 CURVE",
"102 630 LINE"
);
}
);
width = 373;
},
{
components = (
{
name = O;
},
{
name = hungarumlautcomb.case;
}
);
layerId = "9AA098C0-EDBC-463F-BC21-AFCD07A070D0";
width = 373;
}
);
note = Ohungarumlaut;
unicode = 0150;
},
{
color = 11;
glyphname = Omacron;
lastChange = "2021-11-13 22:45:36 +0000";
layers = (
{
hints = (
{
horizontal = 1;
place = "{-12, 10}";
type = Stem;
},
{
horizontal = 1;
place = "{589, 10}";
type = Stem;
},
{
horizontal = 1;
place = "{685, 9}";
type = Stem;
},
{
place = "{50, 12}";
type = Stem;
},
{
place = "{311, 12}";
type = Stem;
}
);
layerId = "5E1A2ACF-25BB-4872-A226-5327BC7330DB";
paths = (
{
closed = 1;
nodes = (
"323 469 LINE SMOOTH",
"323 583 OFFCURVE",
"264 599 OFFCURVE",
"187 599 CURVE SMOOTH",
"110 599 OFFCURVE",
"50 585 OFFCURVE",
"50 469 CURVE SMOOTH",
"50 118 LINE SMOOTH",
"50 4 OFFCURVE",
"109 -12 OFFCURVE",
"185 -12 CURVE SMOOTH",
"265 -12 OFFCURVE",
"323 2 OFFCURVE",
"323 118 CURVE SMOOTH"
);
},
{
closed = 1;
nodes = (
"311 115 LINE SMOOTH",
"311 11 OFFCURVE",
"256 -2 OFFCURVE",
"186 -2 CURVE SMOOTH",
"117 -2 OFFCURVE",
"62 11 OFFCURVE",
"62 115 CURVE SMOOTH",
"62 472 LINE SMOOTH",
"62 576 OFFCURVE",
"117 589 OFFCURVE",
"186 589 CURVE SMOOTH",
"254 589 OFFCURVE",
"311 576 OFFCURVE",
"311 472 CURVE SMOOTH"
);
},
{
closed = 1;
nodes = (
"86 685 LINE",
"287 685 LINE",
"287 694 LINE",
"86 694 LINE"
);
}
);
width = 373;
},
{
layerId = "9AA098C0-EDBC-463F-BC21-AFCD07A070D0";
paths = (
{
closed = 1;
nodes = (
"366 512 OFFCURVE",
"353 563 OFFCURVE",
"320 590 OFFCURVE",
"271 599 OFFCURVE",
"242 599 QCURVE SMOOTH",
"213 599 OFFCURVE",
"161 591 OFFCURVE",
"121 564 OFFCURVE",
"93 512 OFFCURVE",
"87 469 QCURVE SMOOTH",
"38 118 LINE SMOOTH",
"32 75 OFFCURVE",
"45 24 OFFCURVE",
"78 -3 OFFCURVE",
"126 -12 OFFCURVE",
"155 -12 QCURVE SMOOTH",
"185 -12 OFFCURVE",
"236 -4 OFFCURVE",
"277 23 OFFCURVE",
"305 74 OFFCURVE",
"311 118 QCURVE SMOOTH",
"360 469 LINE SMOOTH"
);
},
{
closed = 1;
nodes = (
"293 76 OFFCURVE",
"267 30 OFFCURVE",
"230 5 OFFCURVE",
"183 -2 OFFCURVE",
"157 -2 QCURVE SMOOTH",
"131 -2 OFFCURVE",
"87 5 OFFCURVE",
"57 30 OFFCURVE",
"44 76 OFFCURVE",
"49 115 QCURVE SMOOTH",
"100 472 LINE SMOOTH",
"105 511 OFFCURVE",
"131 557 OFFCURVE",
"168 582 OFFCURVE",
"214 589 OFFCURVE",
"240 589 QCURVE SMOOTH",
"265 589 OFFCURVE",
"310 582 OFFCURVE",
"341 557 OFFCURVE",
"354 511 OFFCURVE",
"349 472 QCURVE SMOOTH",
"298 115 LINE SMOOTH"
);
},
{
closed = 1;
nodes = (
"347 685 LINE",
"348 694 LINE",
"147 694 LINE",
"146 685 LINE"
);
}
);
width = 373;
}
);
note = Omacron;
unicode = 014C;
},
{
color = 6;
glyphname = Oslash;
lastChange = "2021-11-13 22:45:36 +0000";
layers = (
{
hints = (
{
horizontal = 1;
place = "{-12, 9}";
type = Stem;
},
{
horizontal = 1;
place = "{589, 10}";
type = Stem;
},
{
place = "{76, 12}";
type = Stem;
},
{
place = "{337, 12}";
type = Stem;
}
);
layerId = "5E1A2ACF-25BB-4872-A226-5327BC7330DB";
paths = (
{
closed = 1;
nodes = (
"50 -46 LINE",
"64 -46 LINE",
"100 25 LINE",
"124 -6 OFFCURVE",
"164 -12 OFFCURVE",
"211 -12 CURVE SMOOTH",
"291 -12 OFFCURVE",
"349 2 OFFCURVE",
"349 118 CURVE SMOOTH",
"349 469 LINE SMOOTH",
"349 484 OFFCURVE",
"348 498 OFFCURVE",
"346 510 CURVE",
"361 541 OFFCURVE",
"377 572 OFFCURVE",
"394 604 CURVE",
"381 604 LINE",
"342 527 LINE",
"323 589 OFFCURVE",
"275 599 OFFCURVE",
"213 599 CURVE SMOOTH",
"136 599 OFFCURVE",
"76 585 OFFCURVE",
"76 469 CURVE SMOOTH",
"76 118 LINE SMOOTH",
"76 82 OFFCURVE",
"81 55 OFFCURVE",
"92 36 CURVE"
);
},
{
closed = 1;
nodes = (
"88 472 LINE SMOOTH",
"88 576 OFFCURVE",
"143 589 OFFCURVE",
"212 589 CURVE SMOOTH",
"271 589 OFFCURVE",
"320 579 OFFCURVE",
"334 511 CURVE",
"98 49 LINE",
"91 64 OFFCURVE",
"88 86 OFFCURVE",
"88 114 CURVE SMOOTH"
);
},
{
closed = 1;
nodes = (
"337 114 LINE SMOOTH",
"337 10 OFFCURVE",
"282 -3 OFFCURVE",
"212 -3 CURVE SMOOTH",
"165 -3 OFFCURVE",
"127 3 OFFCURVE",
"106 36 CURVE",
"186 193 OFFCURVE",
"257 336 OFFCURVE",
"336 491 CURVE",
"336 484 OFFCURVE",
"337 479 OFFCURVE",
"337 472 CURVE SMOOTH"
);
}
);
width = 446;
},
{
layerId = "9AA098C0-EDBC-463F-BC21-AFCD07A070D0";
paths = (
{
closed = 1;
nodes = (
"34 -46 LINE",
"79 25 LINE",
"94 2 OFFCURVE",
"150 -12 OFFCURVE",
"185 -12 QCURVE SMOOTH",
"215 -12 OFFCURVE",
"267 -4 OFFCURVE",
"307 23 OFFCURVE",
"336 74 OFFCURVE",
"342 118 QCURVE SMOOTH",
"391 469 LINE SMOOTH",
"394 491 OFFCURVE",
"394 510 QCURVE",
"408 533 OFFCURVE",
"438 580 OFFCURVE",
"455 604 QCURVE",
"442 604 LINE",
"392 527 LINE",
"389 550 OFFCURVE",
"368 579 OFFCURVE",
"337 594 OFFCURVE",
"296 599 OFFCURVE",
"273 599 QCURVE SMOOTH",
"244 599 OFFCURVE",
"192 591 OFFCURVE",
"152 564 OFFCURVE",
"124 512 OFFCURVE",
"118 469 QCURVE SMOOTH",
"69 118 LINE SMOOTH",
"60 66 OFFCURVE",
"73 36 QCURVE",
"20 -46 LINE"
);
},
{
closed = 1;
nodes = (
"136 511 OFFCURVE",
"162 557 OFFCURVE",
"199 582 OFFCURVE",
"245 589 OFFCURVE",
"271 589 QCURVE SMOOTH",
"293 589 OFFCURVE",
"332 584 OFFCURVE",
"362 567 OFFCURVE",
"380 536 OFFCURVE",
"382 511 QCURVE",
"81 49 LINE",
"74 72 OFFCURVE",
"80 114 QCURVE SMOOTH",
"130 472 LINE SMOOTH"
);
},
{
closed = 1;
nodes = (
"323 75 OFFCURVE",
"298 29 OFFCURVE",
"261 4 OFFCURVE",
"214 -3 OFFCURVE",
"188 -3 QCURVE SMOOTH",
"153 -3 OFFCURVE",
"99 11 OFFCURVE",
"87 36 QCURVE",
"163 154 OFFCURVE",
"305 375 OFFCURVE",
"381 491 QCURVE",
"380 486 OFFCURVE",
"380 477 OFFCURVE",
"379 472 QCURVE SMOOTH",
"329 114 LINE SMOOTH"
);
}
);
width = 446;
}
);
note = Oslash;
unicode = 00D8;
},
{
color = 11;
glyphname = Otilde;
lastChange = "2021-11-13 22:45:36 +0000";
layers = (
{
hints = (
{
horizontal = 1;
place = "{-12, 10}";
type = Stem;
},
{
horizontal = 1;
place = "{589, 10}";
type = Stem;
},
{
horizontal = 1;
place = "{700, 9}";
type = Stem;
},
{
horizontal = 1;
place = "{742, 8}";
type = Stem;
},
{
place = "{50, 12}";
type = Stem;
},
{
place = "{311, 12}";
type = Stem;
},
{
place = "{75, 10}";
type = Stem;
},
{
place = "{290, 9}";
type = Stem;
}
);
layerId = "5E1A2ACF-25BB-4872-A226-5327BC7330DB";
paths = (
{
closed = 1;
nodes = (
"323 469 LINE SMOOTH",
"323 583 OFFCURVE",
"264 599 OFFCURVE",
"187 599 CURVE SMOOTH",
"110 599 OFFCURVE",
"50 585 OFFCURVE",
"50 469 CURVE SMOOTH",
"50 118 LINE SMOOTH",
"50 4 OFFCURVE",
"109 -12 OFFCURVE",
"185 -12 CURVE SMOOTH",
"265 -12 OFFCURVE",
"323 2 OFFCURVE",
"323 118 CURVE SMOOTH"
);
},
{
closed = 1;
nodes = (
"311 115 LINE SMOOTH",
"311 11 OFFCURVE",
"256 -2 OFFCURVE",
"186 -2 CURVE SMOOTH",
"117 -2 OFFCURVE",
"62 11 OFFCURVE",
"62 115 CURVE SMOOTH",
"62 472 LINE SMOOTH",
"62 576 OFFCURVE",
"117 589 OFFCURVE",
"186 589 CURVE SMOOTH",
"254 589 OFFCURVE",
"311 576 OFFCURVE",
"311 472 CURVE SMOOTH"
);
},
{
closed = 1;
nodes = (
"274 700 OFFCURVE",
"295 721 OFFCURVE",
"299 748 CURVE",
"290 748 LINE",
"286 716 OFFCURVE",
"265 709 OFFCURVE",
"241 709 CURVE SMOOTH",
"200 709 OFFCURVE",
"173 750 OFFCURVE",
"133 750 CURVE SMOOTH",
"98 750 OFFCURVE",
"79 731 OFFCURVE",
"75 704 CURVE",
"85 704 LINE",
"89 735 OFFCURVE",
"109 742 OFFCURVE",
"133 742 CURVE SMOOTH",
"149 742 OFFCURVE",
"165 733 OFFCURVE",
"177 725 CURVE SMOOTH",
"204 708 OFFCURVE",
"225 700 OFFCURVE",
"241 700 CURVE SMOOTH"
);
}
);
width = 373;
},
{
layerId = "9AA098C0-EDBC-463F-BC21-AFCD07A070D0";
paths = (
{
closed = 1;
nodes = (
"366 512 OFFCURVE",
"353 563 OFFCURVE",
"320 590 OFFCURVE",
"271 599 OFFCURVE",
"242 599 QCURVE SMOOTH",
"213 599 OFFCURVE",
"161 591 OFFCURVE",
"121 564 OFFCURVE",
"93 512 OFFCURVE",
"87 469 QCURVE SMOOTH",
"38 118 LINE SMOOTH",
"32 75 OFFCURVE",
"45 24 OFFCURVE",
"78 -3 OFFCURVE",
"126 -12 OFFCURVE",
"155 -12 QCURVE SMOOTH",
"185 -12 OFFCURVE",
"236 -4 OFFCURVE",
"277 23 OFFCURVE",
"305 74 OFFCURVE",
"311 118 QCURVE SMOOTH",
"360 469 LINE SMOOTH"
);
},
{
closed = 1;
nodes = (
"293 76 OFFCURVE",
"267 30 OFFCURVE",
"230 5 OFFCURVE",
"183 -2 OFFCURVE",
"157 -2 QCURVE SMOOTH",
"131 -2 OFFCURVE",
"87 5 OFFCURVE",
"57 30 OFFCURVE",
"44 76 OFFCURVE",
"49 115 QCURVE SMOOTH",
"100 472 LINE SMOOTH",
"105 511 OFFCURVE",
"131 557 OFFCURVE",
"168 582 OFFCURVE",
"214 589 OFFCURVE",
"240 589 QCURVE SMOOTH",
"265 589 OFFCURVE",
"310 582 OFFCURVE",
"341 557 OFFCURVE",
"354 511 OFFCURVE",
"349 472 QCURVE SMOOTH",
"298 115 LINE SMOOTH"
);
},
{
closed = 1;
nodes = (
"370 728 OFFCURVE",
"375 748 QCURVE",
"366 748 LINE",
"360 724 OFFCURVE",
"330 709 OFFCURVE",
"312 709 QCURVE SMOOTH",
"297 709 OFFCURVE",
"272 722 OFFCURVE",
"249 737 OFFCURVE",
"225 750 OFFCURVE",
"210 750 QCURVE SMOOTH",
"184 750 OFFCURVE",
"151 724 OFFCURVE",
"145 704 QCURVE",
"155 704 LINE",
"161 727 OFFCURVE",
"190 742 OFFCURVE",
"208 742 QCURVE SMOOTH",
"220 742 OFFCURVE",
"242 731 OFFCURVE",
"250 725 QCURVE SMOOTH",
"287 700 OFFCURVE",
"311 700 QCURVE SMOOTH",
"336 700 OFFCURVE"
);
}
);
width = 373;
}
);
note = Otilde;
unicode = 00D5;
},
{
color = 6;
glyphname = OE;
lastChange = "2021-11-13 22:45:36 +0000";
layers = (
{
hints = (
{
horizontal = 1;
place = "{0, 11}";
type = Stem;
},
{
horizontal = 1;
place = "{306, 11}";
type = Stem;
},
{
horizontal = 1;
place = "{580, 11}";
type = Stem;
},
{
place = "{50, 12}";
type = Stem;
},
{
place = "{311, 12}";
type = Stem;
},
{
horizontal = 1;
place = "{-12, 9}";
type = Stem;
},
{
horizontal = 1;
place = "{589, 10}";
type = Stem;
}
);
layerId = "5E1A2ACF-25BB-4872-A226-5327BC7330DB";
paths = (
{
closed = 1;
nodes = (
"311 0 LINE",
"552 0 LINE",
"552 11 LINE",
"323 11 LINE",
"323 306 LINE",
"501 306 LINE",
"501 317 LINE",
"323 317 LINE",
"323 580 LINE",
"552 580 LINE",
"552 591 LINE",
"311 591 LINE",
"311 541 LINE",
"290 590 OFFCURVE",
"244 599 OFFCURVE",
"187 599 CURVE SMOOTH",
"110 599 OFFCURVE",
"50 585 OFFCURVE",
"50 469 CURVE SMOOTH",
"50 118 LINE SMOOTH",
"50 4 OFFCURVE",
"109 -12 OFFCURVE",
"185 -12 CURVE SMOOTH",
"244 -12 OFFCURVE",
"290 -4 OFFCURVE",
"311 45 CURVE"
);
},
{
closed = 1;
nodes = (
"311 106 LINE SMOOTH",
"311 9 OFFCURVE",
"254 -3 OFFCURVE",
"186 -3 CURVE SMOOTH",
"117 -3 OFFCURVE",
"62 10 OFFCURVE",
"62 114 CURVE SMOOTH",
"62 472 LINE SMOOTH",
"62 576 OFFCURVE",
"117 589 OFFCURVE",
"186 589 CURVE SMOOTH",
"254 589 OFFCURVE",
"311 576 OFFCURVE",
"311 472 CURVE SMOOTH"
);
}
);
width = 594;
},
{
layerId = "9AA098C0-EDBC-463F-BC21-AFCD07A070D0";
paths = (
{
closed = 1;
nodes = (
"523 0 LINE",
"525 11 LINE",
"296 11 LINE",
"337 306 LINE",
"515 306 LINE",
"517 317 LINE",
"339 317 LINE",
"376 580 LINE",
"605 580 LINE",
"606 591 LINE",
"365 591 LINE",
"358 541 LINE",
"347 578 OFFCURVE",
"285 599 OFFCURVE",
"242 599 QCURVE SMOOTH",
"213 599 OFFCURVE",
"161 591 OFFCURVE",
"121 564 OFFCURVE",
"93 512 OFFCURVE",
"87 469 QCURVE SMOOTH",
"38 118 LINE SMOOTH",
"32 75 OFFCURVE",
"45 24 OFFCURVE",
"78 -3 OFFCURVE",
"126 -12 OFFCURVE",
"155 -12 QCURVE SMOOTH",
"199 -12 OFFCURVE",
"268 8 OFFCURVE",
"289 45 QCURVE",
"282 0 LINE"
);
},
{
closed = 1;
nodes = (
"292 70 OFFCURVE",
"266 26 OFFCURVE",
"229 4 OFFCURVE",
"182 -3 OFFCURVE",
"157 -3 QCURVE SMOOTH",
"131 -3 OFFCURVE",
"87 4 OFFCURVE",
"57 29 OFFCURVE",
"44 75 OFFCURVE",
"49 114 QCURVE SMOOTH",
"100 472 LINE SMOOTH",
"105 511 OFFCURVE",
"131 557 OFFCURVE",
"168 582 OFFCURVE",
"214 589 OFFCURVE",
"240 589 QCURVE SMOOTH",
"265 589 OFFCURVE",
"310 582 OFFCURVE",
"341 557 OFFCURVE",
"354 511 OFFCURVE",
"349 472 QCURVE SMOOTH",
"297 106 LINE SMOOTH"
);
}
);
width = 594;
}
);
note = OE;
unicode = 0152;
},
{
color = 6;
glyphname = P;
lastChange = "2021-11-13 22:45:36 +0000";
layers = (
{
hints = (
{
horizontal = 1;
place = "{0, 21}";
target = up;
type = BottomGhost;
},
{
horizontal = 1;
place = "{271, 11}";
type = Stem;
},
{
horizontal = 1;
place = "{580, 11}";
type = Stem;
},
{
place = "{50, 12}";
type = Stem;
},
{
place = "{306, 12}";
type = Stem;
}
);
layerId = "5E1A2ACF-25BB-4872-A226-5327BC7330DB";
paths = (
{
closed = 1;
nodes = (
"173 271 LINE SMOOTH",
"295 271 OFFCURVE",
"318 313 OFFCURVE",
"318 418 CURVE SMOOTH",
"318 494 LINE SMOOTH",
"318 569 OFFCURVE",
"278 591 OFFCURVE",
"198 591 CURVE SMOOTH",
"50 591 LINE",
"50 0 LINE",
"62 0 LINE",
"62 271 LINE"
);
},
{
closed = 1;
nodes = (
"62 580 LINE",
"197 580 LINE SMOOTH",
"282 580 OFFCURVE",
"306 556 OFFCURVE",
"306 476 CURVE SMOOTH",
"306 417 LINE SMOOTH",
"306 315 OFFCURVE",
"282 282 OFFCURVE",
"173 282 CURVE SMOOTH",
"62 282 LINE"
);
}
);
width = 353;
},
{
layerId = "9AA098C0-EDBC-463F-BC21-AFCD07A070D0";
paths = (
{
closed = 1;
nodes = (
"227 271 OFFCURVE",
"286 287 OFFCURVE",
"322 323 OFFCURVE",
"340 379 OFFCURVE",
"346 418 QCURVE SMOOTH",
"357 494 LINE SMOOTH",
"364 549 OFFCURVE",
"310 591 OFFCURVE",
"251 591 QCURVE SMOOTH",
"103 591 LINE",
"20 0 LINE",
"32 0 LINE",
"70 271 LINE",
"181 271 LINE SMOOTH"
);
},
{
closed = 1;
nodes = (
"248 580 LINE SMOOTH",
"280 580 OFFCURVE",
"321 570 OFFCURVE",
"342 546 OFFCURVE",
"346 506 OFFCURVE",
"342 476 QCURVE SMOOTH",
"334 417 LINE SMOOTH",
"329 379 OFFCURVE",
"311 327 OFFCURVE",
"277 295 OFFCURVE",
"223 282 OFFCURVE",
"182 282 QCURVE SMOOTH",
"71 282 LINE",
"113 580 LINE"
);
}
);
userData = {
assembly = "SVTCA[0]	/* SetFreedomAndProjectionVectorToAxis */\012PUSHW[ ]	/* 1 value pushed */\0120 \012RCVT[ ]	/* ReadCVT */\012IF[ ]	/* If */\012PUSHW[ ]	/* 1 value pushed */\0121 \012MDAP[1]	/* MoveDirectAbsPt */\012ELSE[ ]	/* Else */\012PUSHW[ ]	/* 2 values pushed */\0121 5 \012MIAP[0]	/* MoveIndirectAbsPt */\012EIF[ ]	/* EndIf */\012IUP[0]	/* InterpolateUntPts */\012IUP[1]	/* InterpolateUntPts */";
};
width = 353;
}
);
note = P;
unicode = 0050;
},
{
color = 6;
glyphname = Thorn;
lastChange = "2021-11-13 22:45:36 +0000";
layers = (
{
hints = (
{
horizontal = 1;
place = "{0, 21}";
target = up;
type = BottomGhost;
},
{
horizontal = 1;
place = "{151, 11}";
type = Stem;
},
{
horizontal = 1;
place = "{460, 11}";
type = Stem;
},
{
horizontal = 1;
place = "{591, -20}";
target = down;
type = TopGhost;
},
{
place = "{50, 12}";
type = Stem;
},
{
place = "{306, 12}";
type = Stem;
}
);
layerId = "5E1A2ACF-25BB-4872-A226-5327BC7330DB";
paths = (
{
closed = 1;
nodes = (
"198 151 LINE SMOOTH",
"292 151 OFFCURVE",
"318 211 OFFCURVE",
"318 270 CURVE SMOOTH",
"318 374 LINE SMOOTH",
"318 446 OFFCURVE",
"269 471 OFFCURVE",
"212 471 CURVE SMOOTH",
"62 471 LINE",
"62 591 LINE",
"50 591 LINE",
"50 0 LINE",
"62 0 LINE",
"62 151 LINE"
);
},
{
closed = 1;
nodes = (
"62 460 LINE",
"220 460 LINE SMOOTH",
"265 460 OFFCURVE",
"306 433 OFFCURVE",
"306 376 CURVE SMOOTH",
"306 265 LINE SMOOTH",
"306 197 OFFCURVE",
"263 162 OFFCURVE",
"198 162 CURVE SMOOTH",
"62 162 LINE"
);
}
);
width = 368;
},
{
layerId = "9AA098C0-EDBC-463F-BC21-AFCD07A070D0";
paths = (
{
closed = 1;
nodes = (
"224 151 OFFCURVE",
"273 172 OFFCURVE",
"305 205 OFFCURVE",
"322 248 OFFCURVE",
"325 270 QCURVE SMOOTH",
"340 374 LINE SMOOTH",
"344 401 OFFCURVE",
"332 438 OFFCURVE",
"306 461 OFFCURVE",
"269 471 OFFCURVE",
"248 471 QCURVE SMOOTH",
"98 471 LINE",
"115 591 LINE",
"103 591 LINE",
"20 0 LINE",
"32 0 LINE",
"53 151 LINE",
"189 151 LINE SMOOTH"
);
},
{
closed = 1;
nodes = (
"254 460 LINE SMOOTH",
"288 460 OFFCURVE",
"334 419 OFFCURVE",
"328 376 QCURVE SMOOTH",
"313 265 LINE SMOOTH",
"305 214 OFFCURVE",
"239 162 OFFCURVE",
"190 162 QCURVE SMOOTH",
"54 162 LINE",
"96 460 LINE"
);
}
);
userData = {
assembly = "SVTCA[0]	/* SetFreedomAndProjectionVectorToAxis */\012PUSHW[ ]	/* 1 value pushed */\0120 \012RCVT[ ]	/* ReadCVT */\012IF[ ]	/* If */\012PUSHW[ ]	/* 1 value pushed */\0121 \012MDAP[1]	/* MoveDirectAbsPt */\012ELSE[ ]	/* Else */\012PUSHW[ ]	/* 2 values pushed */\0121 5 \012MIAP[0]	/* MoveIndirectAbsPt */\012EIF[ ]	/* EndIf */\012IUP[0]	/* InterpolateUntPts */\012IUP[1]	/* InterpolateUntPts */";
};
width = 368;
}
);
note = Thorn;
unicode = 00DE;
},
{
color = 6;
glyphname = Q;
lastChange = "2021-11-13 22:45:36 +0000";
layers = (
{
hints = (
{
horizontal = 1;
place = "{-12, 9}";
type = Stem;
},
{
horizontal = 1;
place = "{589, 10}";
type = Stem;
},
{
place = "{50, 12}";
type = Stem;
},
{
place = "{311, 12}";
type = Stem;
},
{
horizontal = 1;
place = "{-8, 21}";
target = up;
type = BottomGhost;
},
{
horizontal = 1;
place = "{-6, 21}";
target = up;
type = BottomGhost;
}
);
layerId = "5E1A2ACF-25BB-4872-A226-5327BC7330DB";
paths = (
{
closed = 1;
nodes = (
"323 469 LINE SMOOTH",
"323 583 OFFCURVE",
"264 599 OFFCURVE",
"187 599 CURVE SMOOTH",
"110 599 OFFCURVE",
"50 585 OFFCURVE",
"50 469 CURVE SMOOTH",
"50 118 LINE SMOOTH",
"50 4 OFFCURVE",
"109 -12 OFFCURVE",
"185 -12 CURVE SMOOTH",
"206 -12 OFFCURVE",
"224 -11 OFFCURVE",
"239 -8 CURVE",
"298 -109 LINE",
"308 -103 LINE",
"250 -6 LINE",
"294 5 OFFCURVE",
"323 37 OFFCURVE",
"323 118 CURVE SMOOTH"
);
},
{
closed = 1;
nodes = (
"311 114 LINE SMOOTH",
"311 10 OFFCURVE",
"256 -3 OFFCURVE",
"186 -3 CURVE SMOOTH",
"117 -3 OFFCURVE",
"62 10 OFFCURVE",
"62 114 CURVE SMOOTH",
"62 472 LINE SMOOTH",
"62 576 OFFCURVE",
"117 589 OFFCURVE",
"186 589 CURVE SMOOTH",
"254 589 OFFCURVE",
"311 576 OFFCURVE",
"311 472 CURVE SMOOTH"
);
}
);
width = 378;
},
{
layerId = "9AA098C0-EDBC-463F-BC21-AFCD07A070D0";
paths = (
{
closed = 1;
nodes = (
"380 512 OFFCURVE",
"367 563 OFFCURVE",
"334 590 OFFCURVE",
"285 599 OFFCURVE",
"256 599 QCURVE SMOOTH",
"227 599 OFFCURVE",
"175 591 OFFCURVE",
"135 564 OFFCURVE",
"107 512 OFFCURVE",
"101 469 QCURVE SMOOTH",
"51 118 LINE SMOOTH",
"45 75 OFFCURVE",
"58 24 OFFCURVE",
"91 -3 OFFCURVE",
"139 -12 OFFCURVE",
"168 -12 QCURVE SMOOTH",
"182 -12 OFFCURVE",
"209 -10 OFFCURVE",
"223 -8 QCURVE",
"268 -109 LINE",
"278 -103 LINE",
"234 -6 LINE",
"269 2 OFFCURVE",
"316 57 OFFCURVE",
"324 118 QCURVE SMOOTH",
"374 469 LINE SMOOTH"
);
},
{
closed = 1;
nodes = (
"306 75 OFFCURVE",
"280 29 OFFCURVE",
"243 4 OFFCURVE",
"196 -3 OFFCURVE",
"170 -3 QCURVE SMOOTH",
"144 -3 OFFCURVE",
"100 4 OFFCURVE",
"70 29 OFFCURVE",
"57 75 OFFCURVE",
"63 114 QCURVE SMOOTH",
"113 472 LINE SMOOTH",
"119 511 OFFCURVE",
"145 557 OFFCURVE",
"182 582 OFFCURVE",
"228 589 OFFCURVE",
"254 589 QCURVE SMOOTH",
"279 589 OFFCURVE",
"324 582 OFFCURVE",
"354 557 OFFCURVE",
"368 511 OFFCURVE",
"362 472 QCURVE SMOOTH",
"312 114 LINE SMOOTH"
);
}
);
userData = {
assembly = "PUSHW[ ]	/* 4 values pushed */\01225 4 6 4 \012CALL[ ]	/* CallFunction */\012PUSHW[ ]	/* 1 value pushed */\01225 \012SRP0[ ]	/* SetRefPoint0 */\012PUSHW[ ]	/* 1 value pushed */\01249 \012MDRP[11100]	/* MoveDirectRelPt */\012SVTCA[0]	/* SetFreedomAndProjectionVectorToAxis */\012PUSHW[ ]	/* 1 value pushed */\0120 \012RCVT[ ]	/* ReadCVT */\012IF[ ]	/* If */\012PUSHW[ ]	/* 1 value pushed */\0123 \012MDAP[1]	/* MoveDirectAbsPt */\012ELSE[ ]	/* Else */\012PUSHW[ ]	/* 2 values pushed */\0123 5 \012MIAP[0]	/* MoveIndirectAbsPt */\012EIF[ ]	/* EndIf */\012PUSHW[ ]	/* 1 value pushed */\0120 \012RCVT[ ]	/* ReadCVT */\012IF[ ]	/* If */\012PUSHW[ ]	/* 1 value pushed */\0126 \012MDAP[1]	/* MoveDirectAbsPt */\012ELSE[ ]	/* Else */\012PUSHW[ ]	/* 2 values pushed */\0126 5 \012MIAP[0]	/* MoveIndirectAbsPt */\012EIF[ ]	/* EndIf */\012PUSHW[ ]	/* 1 value pushed */\0120 \012RCVT[ ]	/* ReadCVT */\012IF[ ]	/* If */\012PUSHW[ ]	/* 1 value pushed */\01242 \012MDAP[1]	/* MoveDirectAbsPt */\012ELSE[ ]	/* Else */\012PUSHW[ ]	/* 2 values pushed */\01242 5 \012MIAP[0]	/* MoveIndirectAbsPt */\012EIF[ ]	/* EndIf */\012IUP[0]	/* InterpolateUntPts */\012IUP[1]	/* InterpolateUntPts */";
};
width = 378;
}
);
note = Q;
unicode = 0051;
},
{
color = 6;
glyphname = R;
lastChange = "2021-11-13 22:45:36 +0000";
layers = (
{
hints = (
{
horizontal = 1;
place = "{0, 21}";
target = up;
type = BottomGhost;
},
{
horizontal = 1;
place = "{292, 11}";
type = Stem;
},
{
horizontal = 1;
place = "{580, 11}";
type = Stem;
},
{
place = "{50, 12}";
type = Stem;
},
{
place = "{306, 12}";
type = Stem;
}
);
layerId = "5E1A2ACF-25BB-4872-A226-5327BC7330DB";
paths = (
{
closed = 1;
nodes = (
"181 292 LINE SMOOTH",
"222 292 OFFCURVE",
"248 257 OFFCURVE",
"264 205 CURVE SMOOTH",
"325 0 LINE",
"339 0 LINE",
"270 224 LINE SMOOTH",
"259 256 OFFCURVE",
"237 293 OFFCURVE",
"204 296 CURVE",
"267 296 OFFCURVE",
"318 328 OFFCURVE",
"318 411 CURVE SMOOTH",
"318 494 LINE SMOOTH",
"318 566 OFFCURVE",
"269 591 OFFCURVE",
"212 591 CURVE SMOOTH",
"50 591 LINE",
"50 0 LINE",
"62 0 LINE",
"62 292 LINE"
);
},
{
closed = 1;
nodes = (
"62 580 LINE",
"220 580 LINE SMOOTH",
"265 580 OFFCURVE",
"306 553 OFFCURVE",
"306 496 CURVE SMOOTH",
"306 409 LINE SMOOTH",
"306 331 OFFCURVE",
"255 303 OFFCURVE",
"187 303 CURVE SMOOTH",
"62 303 LINE"
);
}
);
width = 370;
},
{
layerId = "9AA098C0-EDBC-463F-BC21-AFCD07A070D0";
paths = (
{
closed = 1;
nodes = (
"223 292 OFFCURVE",
"256 244 OFFCURVE",
"262 205 QCURVE SMOOTH",
"295 0 LINE",
"309 0 LINE",
"271 224 LINE SMOOTH",
"266 248 OFFCURVE",
"239 294 OFFCURVE",
"215 296 QCURVE",
"239 296 OFFCURVE",
"282 309 OFFCURVE",
"317 336 OFFCURVE",
"341 380 OFFCURVE",
"345 411 QCURVE SMOOTH",
"357 494 LINE SMOOTH",
"361 521 OFFCURVE",
"349 558 OFFCURVE",
"323 581 OFFCURVE",
"286 591 OFFCURVE",
"265 591 QCURVE SMOOTH",
"103 591 LINE",
"20 0 LINE",
"32 0 LINE",
"73 292 LINE",
"192 292 LINE SMOOTH"
);
},
{
closed = 1;
nodes = (
"271 580 LINE SMOOTH",
"305 580 OFFCURVE",
"351 539 OFFCURVE",
"345 496 QCURVE SMOOTH",
"333 409 LINE SMOOTH",
"329 380 OFFCURVE",
"305 339 OFFCURVE",
"270 314 OFFCURVE",
"224 303 OFFCURVE",
"199 303 QCURVE SMOOTH",
"74 303 LINE",
"113 580 LINE"
);
}
);
userData = {
assembly = "SVTCA[0]	/* SetFreedomAndProjectionVectorToAxis */\012PUSHW[ ]	/* 1 value pushed */\0120 \012RCVT[ ]	/* ReadCVT */\012IF[ ]	/* If */\012PUSHW[ ]	/* 1 value pushed */\0121 \012MDAP[1]	/* MoveDirectAbsPt */\012ELSE[ ]	/* Else */\012PUSHW[ ]	/* 2 values pushed */\0121 5 \012MIAP[0]	/* MoveIndirectAbsPt */\012EIF[ ]	/* EndIf */\012PUSHW[ ]	/* 1 value pushed */\0120 \012RCVT[ ]	/* ReadCVT */\012IF[ ]	/* If */\012PUSHW[ ]	/* 1 value pushed */\01219 \012MDAP[1]	/* MoveDirectAbsPt */\012ELSE[ ]	/* Else */\012PUSHW[ ]	/* 2 values pushed */\01219 5 \012MIAP[0]	/* MoveIndirectAbsPt */\012EIF[ ]	/* EndIf */\012PUSHW[ ]	/* 4 values pushed */\01215 1 18 4 \012CALL[ ]	/* CallFunction */\012PUSHW[ ]	/* 1 value pushed */\01215 \012SRP0[ ]	/* SetRefPoint0 */\012PUSHW[ ]	/* 1 value pushed */\0120 \012MDRP[10000]	/* MoveDirectRelPt */\012PUSHW[ ]	/* 1 value pushed */\0120 \012MDAP[1]	/* MoveDirectAbsPt */\012PUSHW[ ]	/* 1 value pushed */\01215 \012SRP0[ ]	/* SetRefPoint0 */\012PUSHW[ ]	/* 1 value pushed */\01225 \012MDRP[10000]	/* MoveDirectRelPt */\012PUSHW[ ]	/* 1 value pushed */\01225 \012MDAP[1]	/* MoveDirectAbsPt */\012IUP[0]	/* InterpolateUntPts */\012IUP[1]	/* InterpolateUntPts */";
};
width = 370;
}
);
note = R;
rightKerningGroup = parenright;
unicode = 0052;
},
{
color = 11;
glyphname = Racute;
lastChange = "2021-11-13 22:45:36 +0000";
layers = (
{
hints = (
{
horizontal = 1;
place = "{0, 21}";
target = up;
type = BottomGhost;
},
{
horizontal = 1;
place = "{292, 11}";
type = Stem;
},
{
horizontal = 1;
place = "{580, 11}";
type = Stem;
},
{
place = "{50, 12}";
type = Stem;
},
{
place = "{306, 12}";
type = Stem;
}
);
layerId = "5E1A2ACF-25BB-4872-A226-5327BC7330DB";
paths = (
{
closed = 1;
nodes = (
"181 292 LINE SMOOTH",
"222 292 OFFCURVE",
"248 257 OFFCURVE",
"264 205 CURVE SMOOTH",
"325 0 LINE",
"339 0 LINE",
"270 224 LINE SMOOTH",
"259 256 OFFCURVE",
"237 293 OFFCURVE",
"204 296 CURVE",
"267 296 OFFCURVE",
"318 328 OFFCURVE",
"318 411 CURVE SMOOTH",
"318 494 LINE SMOOTH",
"318 566 OFFCURVE",
"269 591 OFFCURVE",
"212 591 CURVE SMOOTH",
"50 591 LINE",
"50 0 LINE",
"62 0 LINE",
"62 292 LINE"
);
},
{
closed = 1;
nodes = (
"62 580 LINE",
"220 580 LINE SMOOTH",
"265 580 OFFCURVE",
"306 553 OFFCURVE",
"306 496 CURVE SMOOTH",
"306 409 LINE SMOOTH",
"306 331 OFFCURVE",
"255 303 OFFCURVE",
"187 303 CURVE SMOOTH",
"62 303 LINE"
);
},
{
closed = 1;
nodes = (
"221 716 LINE",
"199 716 LINE",
"137 630 LINE",
"148 630 LINE"
);
}
);
width = 390;
},
{
layerId = "9AA098C0-EDBC-463F-BC21-AFCD07A070D0";
paths = (
{
closed = 1;
nodes = (
"223 292 OFFCURVE",
"256 244 OFFCURVE",
"262 205 QCURVE SMOOTH",
"295 0 LINE",
"309 0 LINE",
"271 224 LINE SMOOTH",
"266 248 OFFCURVE",
"239 294 OFFCURVE",
"215 296 QCURVE",
"239 296 OFFCURVE",
"282 309 OFFCURVE",
"317 336 OFFCURVE",
"341 380 OFFCURVE",
"345 411 QCURVE SMOOTH",
"357 494 LINE SMOOTH",
"361 521 OFFCURVE",
"349 558 OFFCURVE",
"323 581 OFFCURVE",
"286 591 OFFCURVE",
"265 591 QCURVE SMOOTH",
"103 591 LINE",
"20 0 LINE",
"32 0 LINE",
"73 292 LINE",
"192 292 LINE SMOOTH"
);
},
{
closed = 1;
nodes = (
"271 580 LINE SMOOTH",
"305 580 OFFCURVE",
"351 539 OFFCURVE",
"345 496 QCURVE SMOOTH",
"333 409 LINE SMOOTH",
"329 380 OFFCURVE",
"305 339 OFFCURVE",
"270 314 OFFCURVE",
"224 303 OFFCURVE",
"199 303 QCURVE SMOOTH",
"74 303 LINE",
"113 580 LINE"
);
},
{
closed = 1;
nodes = (
"269 716 LINE",
"195 630 LINE",
"206 630 LINE",
"291 716 LINE"
);
}
);
userData = {
assembly = "SVTCA[0]	/* SetFreedomAndProjectionVectorToAxis */\012PUSHW[ ]	/* 1 value pushed */\0120 \012RCVT[ ]	/* ReadCVT */\012IF[ ]	/* If */\012PUSHW[ ]	/* 1 value pushed */\0121 \012MDAP[1]	/* MoveDirectAbsPt */\012ELSE[ ]	/* Else */\012PUSHW[ ]	/* 2 values pushed */\0121 5 \012MIAP[0]	/* MoveIndirectAbsPt */\012EIF[ ]	/* EndIf */\012PUSHW[ ]	/* 1 value pushed */\0120 \012RCVT[ ]	/* ReadCVT */\012IF[ ]	/* If */\012PUSHW[ ]	/* 1 value pushed */\01219 \012MDAP[1]	/* MoveDirectAbsPt */\012ELSE[ ]	/* Else */\012PUSHW[ ]	/* 2 values pushed */\01219 5 \012MIAP[0]	/* MoveIndirectAbsPt */\012EIF[ ]	/* EndIf */\012PUSHW[ ]	/* 4 values pushed */\01239 3 37 4 \012CALL[ ]	/* CallFunction */\012PUSHW[ ]	/* 4 values pushed */\01215 1 18 4 \012CALL[ ]	/* CallFunction */\012PUSHW[ ]	/* 1 value pushed */\01215 \012SRP0[ ]	/* SetRefPoint0 */\012PUSHW[ ]	/* 1 value pushed */\0120 \012MDRP[10000]	/* MoveDirectRelPt */\012PUSHW[ ]	/* 1 value pushed */\0120 \012MDAP[1]	/* MoveDirectAbsPt */\012PUSHW[ ]	/* 1 value pushed */\01215 \012SRP0[ ]	/* SetRefPoint0 */\012PUSHW[ ]	/* 1 value pushed */\01225 \012MDRP[10000]	/* MoveDirectRelPt */\012PUSHW[ ]	/* 1 value pushed */\01225 \012MDAP[1]	/* MoveDirectAbsPt */\012IUP[0]	/* InterpolateUntPts */\012IUP[1]	/* InterpolateUntPts */";
};
width = 390;
}
);
note = Racute;
rightKerningGroup = parenright;
unicode = 0154;
},
{
color = 11;
glyphname = Rcaron;
lastChange = "2021-11-13 22:45:36 +0000";
layers = (
{
hints = (
{
horizontal = 1;
place = "{0, 21}";
target = up;
type = BottomGhost;
},
{
horizontal = 1;
place = "{292, 11}";
type = Stem;
},
{
horizontal = 1;
place = "{580, 11}";
type = Stem;
},
{
horizontal = 1;
place = "{630, 7}";
type = Stem;
},
{
place = "{50, 12}";
type = Stem;
},
{
place = "{306, 12}";
type = Stem;
}
);
layerId = "5E1A2ACF-25BB-4872-A226-5327BC7330DB";
paths = (
{
closed = 1;
nodes = (
"181 292 LINE SMOOTH",
"222 292 OFFCURVE",
"248 257 OFFCURVE",
"264 205 CURVE SMOOTH",
"325 0 LINE",
"339 0 LINE",
"270 224 LINE SMOOTH",
"259 256 OFFCURVE",
"237 293 OFFCURVE",
"204 296 CURVE",
"267 296 OFFCURVE",
"318 328 OFFCURVE",
"318 411 CURVE SMOOTH",
"318 494 LINE SMOOTH",
"318 566 OFFCURVE",
"269 591 OFFCURVE",
"212 591 CURVE SMOOTH",
"50 591 LINE",
"50 0 LINE",
"62 0 LINE",
"62 292 LINE"
);
},
{
closed = 1;
nodes = (
"62 580 LINE",
"220 580 LINE SMOOTH",
"265 580 OFFCURVE",
"306 553 OFFCURVE",
"306 496 CURVE SMOOTH",
"306 409 LINE SMOOTH",
"306 331 OFFCURVE",
"255 303 OFFCURVE",
"187 303 CURVE SMOOTH",
"62 303 LINE"
);
},
{
closed = 1;
nodes = (
"184 630 LINE",
"213 661 OFFCURVE",
"246 692 OFFCURVE",
"275 724 CURVE",
"262 724 LINE",
"177 637 LINE",
"93 724 LINE",
"79 724 LINE",
"132 668 OFFCURVE",
"149 649 OFFCURVE",
"168 630 CURVE"
);
}
);
width = 390;
},
{
layerId = "9AA098C0-EDBC-463F-BC21-AFCD07A070D0";
paths = (
{
closed = 1;
nodes = (
"223 292 OFFCURVE",
"256 244 OFFCURVE",
"262 205 QCURVE SMOOTH",
"295 0 LINE",
"309 0 LINE",
"271 224 LINE SMOOTH",
"266 248 OFFCURVE",
"239 294 OFFCURVE",
"215 296 QCURVE",
"239 296 OFFCURVE",
"282 309 OFFCURVE",
"317 336 OFFCURVE",
"341 380 OFFCURVE",
"345 411 QCURVE SMOOTH",
"357 494 LINE SMOOTH",
"361 521 OFFCURVE",
"349 558 OFFCURVE",
"323 581 OFFCURVE",
"286 591 OFFCURVE",
"265 591 QCURVE SMOOTH",
"103 591 LINE",
"20 0 LINE",
"32 0 LINE",
"73 292 LINE",
"192 292 LINE SMOOTH"
);
},
{
closed = 1;
nodes = (
"271 580 LINE SMOOTH",
"305 580 OFFCURVE",
"351 539 OFFCURVE",
"345 496 QCURVE SMOOTH",
"333 409 LINE SMOOTH",
"329 380 OFFCURVE",
"305 339 OFFCURVE",
"270 314 OFFCURVE",
"224 303 OFFCURVE",
"199 303 QCURVE SMOOTH",
"74 303 LINE",
"113 580 LINE"
);
},
{
closed = 1;
nodes = (
"267 653 OFFCURVE",
"321 700 OFFCURVE",
"346 724 QCURVE",
"333 724 LINE",
"236 637 LINE",
"164 724 LINE",
"150 724 LINE",
"167 703 OFFCURVE",
"191 674 OFFCURVE",
"208 653 OFFCURVE",
"220 637 OFFCURVE",
"226 630 QCURVE",
"242 630 LINE"
);
}
);
userData = {
assembly = "PUSHW[ ]	/* 4 values pushed */\01246 4 37 4 \012CALL[ ]	/* CallFunction */\012PUSHW[ ]	/* 1 value pushed */\01246 \012SRP0[ ]	/* SetRefPoint0 */\012PUSHW[ ]	/* 1 value pushed */\01210 \012MDRP[10000]	/* MoveDirectRelPt */\012PUSHW[ ]	/* 1 value pushed */\01210 \012MDAP[1]	/* MoveDirectAbsPt */\012PUSHW[ ]	/* 1 value pushed */\01246 \012SRP0[ ]	/* SetRefPoint0 */\012PUSHW[ ]	/* 1 value pushed */\01232 \012MDRP[10000]	/* MoveDirectRelPt */\012PUSHW[ ]	/* 1 value pushed */\01232 \012MDAP[1]	/* MoveDirectAbsPt */\012PUSHW[ ]	/* 1 value pushed */\01246 \012SRP0[ ]	/* SetRefPoint0 */\012PUSHW[ ]	/* 1 value pushed */\01251 \012MDRP[11100]	/* MoveDirectRelPt */\012SVTCA[0]	/* SetFreedomAndProjectionVectorToAxis */\012PUSHW[ ]	/* 1 value pushed */\0120 \012RCVT[ ]	/* ReadCVT */\012IF[ ]	/* If */\012PUSHW[ ]	/* 1 value pushed */\0121 \012MDAP[1]	/* MoveDirectAbsPt */\012ELSE[ ]	/* Else */\012PUSHW[ ]	/* 2 values pushed */\0121 5 \012MIAP[0]	/* MoveIndirectAbsPt */\012EIF[ ]	/* EndIf */\012PUSHW[ ]	/* 1 value pushed */\0120 \012RCVT[ ]	/* ReadCVT */\012IF[ ]	/* If */\012PUSHW[ ]	/* 1 value pushed */\01219 \012MDAP[1]	/* MoveDirectAbsPt */\012ELSE[ ]	/* Else */\012PUSHW[ ]	/* 2 values pushed */\01219 5 \012MIAP[0]	/* MoveIndirectAbsPt */\012EIF[ ]	/* EndIf */\012PUSHW[ ]	/* 4 values pushed */\01243 3 37 4 \012CALL[ ]	/* CallFunction */\012PUSHW[ ]	/* 4 values pushed */\01215 1 18 4 \012CALL[ ]	/* CallFunction */\012PUSHW[ ]	/* 1 value pushed */\01215 \012SRP0[ ]	/* SetRefPoint0 */\012PUSHW[ ]	/* 1 value pushed */\0120 \012MDRP[10000]	/* MoveDirectRelPt */\012PUSHW[ ]	/* 1 value pushed */\0120 \012MDAP[1]	/* MoveDirectAbsPt */\012PUSHW[ ]	/* 1 value pushed */\01215 \012SRP0[ ]	/* SetRefPoint0 */\012PUSHW[ ]	/* 1 value pushed */\01225 \012MDRP[10000]	/* MoveDirectRelPt */\012PUSHW[ ]	/* 1 value pushed */\01225 \012MDAP[1]	/* MoveDirectAbsPt */\012PUSHW[ ]	/* 1 value pushed */\01243 \012SRP0[ ]	/* SetRefPoint0 */\012PUSHW[ ]	/* 1 value pushed */\01245 \012MDRP[10000]	/* MoveDirectRelPt */\012IUP[0]	/* InterpolateUntPts */\012IUP[1]	/* InterpolateUntPts */";
};
width = 390;
}
);
note = Rcaron;
rightKerningGroup = parenright;
unicode = 0158;
},
{
color = 6;
glyphname = S;
lastChange = "2021-11-13 22:45:36 +0000";
layers = (
{
hints = (
{
horizontal = 1;
place = "{-9, 12}";
type = Stem;
},
{
horizontal = 1;
place = "{583, 12}";
type = Stem;
},
{
place = "{43, 12}";
type = Stem;
},
{
place = "{291, 12}";
type = Stem;
},
{
place = "{285, 12}";
type = Stem;
},
{
place = "{40, 12}";
type = Stem;
}
);
layerId = "5E1A2ACF-25BB-4872-A226-5327BC7330DB";
paths = (
{
closed = 1;
nodes = (
"297 429 LINE",
"297 469 LINE SMOOTH",
"297 549 OFFCURVE",
"251 595 OFFCURVE",
"171 595 CURVE SMOOTH",
"79 595 OFFCURVE",
"43 544 OFFCURVE",
"43 448 CURVE SMOOTH",
"43 354 OFFCURVE",
"101 322 OFFCURVE",
"161 298 CURVE SMOOTH",
"241 269 OFFCURVE",
"291 250 OFFCURVE",
"291 146 CURVE SMOOTH",
"291 38 OFFCURVE",
"237 3 OFFCURVE",
"167 3 CURVE SMOOTH",
"99 3 OFFCURVE",
"52 38 OFFCURVE",
"52 163 CURVE SMOOTH",
"52 175 LINE",
"40 175 LINE",
"40 163 LINE SMOOTH",
"40 32 OFFCURVE",
"90 -9 OFFCURVE",
"167 -9 CURVE SMOOTH",
"244 -9 OFFCURVE",
"303 31 OFFCURVE",
"303 146 CURVE SMOOTH",
"303 202 OFFCURVE",
"290 237 OFFCURVE",
"263 260 CURVE SMOOTH",
"191 324 OFFCURVE",
"55 304 OFFCURVE",
"55 448 CURVE SMOOTH",
"55 540 OFFCURVE",
"88 583 OFFCURVE",
"171 583 CURVE SMOOTH",
"243 583 OFFCURVE",
"285 541 OFFCURVE",
"285 469 CURVE SMOOTH",
"285 429 LINE"
);
}
);
width = 344;
},
{
layerId = "9AA098C0-EDBC-463F-BC21-AFCD07A070D0";
paths = (
{
closed = 1;
nodes = (
"334 469 LINE SMOOTH",
"342 529 OFFCURVE",
"285 595 OFFCURVE",
"225 595 QCURVE SMOOTH",
"156 595 OFFCURVE",
"87 520 OFFCURVE",
"77 448 QCURVE SMOOTH",
"72 413 OFFCURVE",
"85 364 OFFCURVE",
"113 329 OFFCURVE",
"152 307 OFFCURVE",
"174 298 QCURVE SMOOTH",
"202 287 OFFCURVE",
"247 266 OFFCURVE",
"276 234 OFFCURVE",
"288 185 OFFCURVE",
"282 146 QCURVE SMOOTH",
"276 105 OFFCURVE",
"250 51 OFFCURVE",
"212 17 OFFCURVE",
"164 3 OFFCURVE",
"138 3 QCURVE SMOOTH",
"112 3 OFFCURVE",
"72 18 OFFCURVE",
"47 54 OFFCURVE",
"39 116 OFFCURVE",
"46 163 QCURVE SMOOTH",
"47 175 LINE",
"35 175 LINE",
"34 163 LINE SMOOTH",
"27 114 OFFCURVE",
"36 48 OFFCURVE",
"63 8 OFFCURVE",
"108 -9 OFFCURVE",
"137 -9 QCURVE SMOOTH",
"166 -9 OFFCURVE",
"218 7 OFFCURVE",
"259 44 OFFCURVE",
"288 103 OFFCURVE",
"294 146 QCURVE SMOOTH",
"300 188 OFFCURVE",
"287 243 OFFCURVE",
"270 260 QCURVE SMOOTH",
"254 276 OFFCURVE",
"213 297 OFFCURVE",
"169 314 OFFCURVE",
"128 334 OFFCURVE",
"98 365 OFFCURVE",
"84 412 OFFCURVE",
"89 448 QCURVE SMOOTH",
"99 517 OFFCURVE",
"162 583 OFFCURVE",
"224 583 QCURVE SMOOTH",
"278 583 OFFCURVE",
"330 523 OFFCURVE",
"322 469 QCURVE SMOOTH",
"316 429 LINE",
"328 429 LINE"
);
}
);
width = 344;
}
);
leftKerningGroup = brokenbar;
note = S;
unicode = 0053;
},
{
color = 11;
glyphname = Sacute;
lastChange = "2021-11-13 22:45:36 +0000";
layers = (
{
hints = (
{
horizontal = 1;
place = "{-9, 12}";
type = Stem;
},
{
horizontal = 1;
place = "{583, 12}";
type = Stem;
},
{
place = "{53, 12}";
type = Stem;
},
{
place = "{301, 12}";
type = Stem;
},
{
place = "{295, 12}";
type = Stem;
},
{
place = "{50, 12}";
type = Stem;
}
);
layerId = "5E1A2ACF-25BB-4872-A226-5327BC7330DB";
paths = (
{
closed = 1;
nodes = (
"307 429 LINE",
"307 469 LINE SMOOTH",
"307 549 OFFCURVE",
"261 595 OFFCURVE",
"181 595 CURVE SMOOTH",
"89 595 OFFCURVE",
"53 544 OFFCURVE",
"53 448 CURVE SMOOTH",
"53 354 OFFCURVE",
"111 322 OFFCURVE",
"171 298 CURVE SMOOTH",
"251 269 OFFCURVE",
"301 250 OFFCURVE",
"301 146 CURVE SMOOTH",
"301 38 OFFCURVE",
"247 3 OFFCURVE",
"177 3 CURVE SMOOTH",
"109 3 OFFCURVE",
"62 38 OFFCURVE",
"62 163 CURVE SMOOTH",
"62 175 LINE",
"50 175 LINE",
"50 163 LINE SMOOTH",
"50 32 OFFCURVE",
"100 -9 OFFCURVE",
"177 -9 CURVE SMOOTH",
"254 -9 OFFCURVE",
"313 31 OFFCURVE",
"313 146 CURVE SMOOTH",
"313 202 OFFCURVE",
"300 237 OFFCURVE",
"273 260 CURVE SMOOTH",
"201 324 OFFCURVE",
"65 304 OFFCURVE",
"65 448 CURVE SMOOTH",
"65 540 OFFCURVE",
"98 583 OFFCURVE",
"181 583 CURVE SMOOTH",
"253 583 OFFCURVE",
"295 541 OFFCURVE",
"295 469 CURVE SMOOTH",
"295 429 LINE"
);
},
{
closed = 1;
nodes = (
"225 716 LINE",
"203 716 LINE",
"141 630 LINE",
"152 630 LINE"
);
}
);
width = 364;
},
{
layerId = "9AA098C0-EDBC-463F-BC21-AFCD07A070D0";
paths = (
{
closed = 1;
nodes = (
"344 469 LINE SMOOTH",
"352 529 OFFCURVE",
"295 595 OFFCURVE",
"235 595 QCURVE SMOOTH",
"166 595 OFFCURVE",
"97 520 OFFCURVE",
"87 448 QCURVE SMOOTH",
"82 413 OFFCURVE",
"95 364 OFFCURVE",
"123 329 OFFCURVE",
"162 307 OFFCURVE",
"184 298 QCURVE SMOOTH",
"212 287 OFFCURVE",
"257 266 OFFCURVE",
"286 234 OFFCURVE",
"298 185 OFFCURVE",
"292 146 QCURVE SMOOTH",
"286 105 OFFCURVE",
"260 51 OFFCURVE",
"222 17 OFFCURVE",
"174 3 OFFCURVE",
"148 3 QCURVE SMOOTH",
"122 3 OFFCURVE",
"82 18 OFFCURVE",
"57 54 OFFCURVE",
"49 116 OFFCURVE",
"56 163 QCURVE SMOOTH",
"57 175 LINE",
"45 175 LINE",
"44 163 LINE SMOOTH",
"37 114 OFFCURVE",
"46 48 OFFCURVE",
"73 8 OFFCURVE",
"118 -9 OFFCURVE",
"147 -9 QCURVE SMOOTH",
"176 -9 OFFCURVE",
"228 7 OFFCURVE",
"269 44 OFFCURVE",
"298 103 OFFCURVE",
"304 146 QCURVE SMOOTH",
"310 188 OFFCURVE",
"297 243 OFFCURVE",
"280 260 QCURVE SMOOTH",
"264 276 OFFCURVE",
"223 297 OFFCURVE",
"179 314 OFFCURVE",
"138 334 OFFCURVE",
"108 365 OFFCURVE",
"94 412 OFFCURVE",
"99 448 QCURVE SMOOTH",
"109 517 OFFCURVE",
"172 583 OFFCURVE",
"234 583 QCURVE SMOOTH",
"288 583 OFFCURVE",
"340 523 OFFCURVE",
"332 469 QCURVE SMOOTH",
"326 429 LINE",
"338 429 LINE"
);
},
{
closed = 1;
nodes = (
"274 716 LINE",
"200 630 LINE",
"211 630 LINE",
"296 716 LINE"
);
}
);
userData = {
assembly = "PUSHW[ ]	/* 4 values pushed */\01256 4 59 4 \012CALL[ ]	/* CallFunction */\012PUSHW[ ]	/* 3 values pushed */\01261 59 56 \012SRP1[ ]	/* SetRefPoint1 */\012SRP2[ ]	/* SetRefPoint2 */\012IP[ ]	/* InterpolatePts */\012PUSHW[ ]	/* 1 value pushed */\01256 \012SRP0[ ]	/* SetRefPoint0 */\012PUSHW[ ]	/* 1 value pushed */\01263 \012MDRP[11100]	/* MoveDirectRelPt */\012SVTCA[0]	/* SetFreedomAndProjectionVectorToAxis */\012PUSHW[ ]	/* 4 values pushed */\01260 3 58 4 \012CALL[ ]	/* CallFunction */\012IUP[0]	/* InterpolateUntPts */\012IUP[1]	/* InterpolateUntPts */";
};
width = 364;
}
);
leftKerningGroup = brokenbar;
note = Sacute;
unicode = 015A;
},
{
color = 11;
glyphname = Scaron;
lastChange = "2021-11-13 22:45:36 +0000";
layers = (
{
hints = (
{
horizontal = 1;
place = "{-9, 12}";
type = Stem;
},
{
horizontal = 1;
place = "{583, 12}";
type = Stem;
},
{
place = "{53, 12}";
type = Stem;
},
{
place = "{301, 12}";
type = Stem;
},
{
place = "{295, 12}";
type = Stem;
},
{
place = "{50, 12}";
type = Stem;
},
{
horizontal = 1;
place = "{656, 7}";
type = Stem;
}
);
layerId = "5E1A2ACF-25BB-4872-A226-5327BC7330DB";
paths = (
{
closed = 1;
nodes = (
"307 429 LINE",
"307 469 LINE SMOOTH",
"307 549 OFFCURVE",
"261 595 OFFCURVE",
"181 595 CURVE SMOOTH",
"89 595 OFFCURVE",
"53 544 OFFCURVE",
"53 448 CURVE SMOOTH",
"53 354 OFFCURVE",
"111 322 OFFCURVE",
"171 298 CURVE SMOOTH",
"251 269 OFFCURVE",
"301 250 OFFCURVE",
"301 146 CURVE SMOOTH",
"301 38 OFFCURVE",
"247 3 OFFCURVE",
"177 3 CURVE SMOOTH",
"109 3 OFFCURVE",
"62 38 OFFCURVE",
"62 163 CURVE SMOOTH",
"62 175 LINE",
"50 175 LINE",
"50 163 LINE SMOOTH",
"50 32 OFFCURVE",
"100 -9 OFFCURVE",
"177 -9 CURVE SMOOTH",
"254 -9 OFFCURVE",
"313 31 OFFCURVE",
"313 146 CURVE SMOOTH",
"313 202 OFFCURVE",
"300 237 OFFCURVE",
"273 260 CURVE SMOOTH",
"201 324 OFFCURVE",
"65 304 OFFCURVE",
"65 448 CURVE SMOOTH",
"65 540 OFFCURVE",
"98 583 OFFCURVE",
"181 583 CURVE SMOOTH",
"253 583 OFFCURVE",
"295 541 OFFCURVE",
"295 469 CURVE SMOOTH",
"295 429 LINE"
);
},
{
closed = 1;
nodes = (
"189 656 LINE",
"218 687 OFFCURVE",
"251 718 OFFCURVE",
"280 750 CURVE",
"267 750 LINE",
"182 663 LINE",
"98 750 LINE",
"84 750 LINE",
"137 694 OFFCURVE",
"154 675 OFFCURVE",
"173 656 CURVE"
);
}
);
width = 364;
},
{
layerId = "9AA098C0-EDBC-463F-BC21-AFCD07A070D0";
paths = (
{
closed = 1;
nodes = (
"344 469 LINE SMOOTH",
"352 529 OFFCURVE",
"295 595 OFFCURVE",
"235 595 QCURVE SMOOTH",
"166 595 OFFCURVE",
"97 520 OFFCURVE",
"87 448 QCURVE SMOOTH",
"82 413 OFFCURVE",
"95 364 OFFCURVE",
"123 329 OFFCURVE",
"162 307 OFFCURVE",
"184 298 QCURVE SMOOTH",
"212 287 OFFCURVE",
"257 266 OFFCURVE",
"286 234 OFFCURVE",
"298 185 OFFCURVE",
"292 146 QCURVE SMOOTH",
"286 105 OFFCURVE",
"260 51 OFFCURVE",
"222 17 OFFCURVE",
"174 3 OFFCURVE",
"148 3 QCURVE SMOOTH",
"122 3 OFFCURVE",
"82 18 OFFCURVE",
"57 54 OFFCURVE",
"49 116 OFFCURVE",
"56 163 QCURVE SMOOTH",
"57 175 LINE",
"45 175 LINE",
"44 163 LINE SMOOTH",
"37 114 OFFCURVE",
"46 48 OFFCURVE",
"73 8 OFFCURVE",
"118 -9 OFFCURVE",
"147 -9 QCURVE SMOOTH",
"176 -9 OFFCURVE",
"228 7 OFFCURVE",
"269 44 OFFCURVE",
"298 103 OFFCURVE",
"304 146 QCURVE SMOOTH",
"310 188 OFFCURVE",
"297 243 OFFCURVE",
"280 260 QCURVE SMOOTH",
"264 276 OFFCURVE",
"223 297 OFFCURVE",
"179 314 OFFCURVE",
"138 334 OFFCURVE",
"108 365 OFFCURVE",
"94 412 OFFCURVE",
"99 448 QCURVE SMOOTH",
"109 517 OFFCURVE",
"172 583 OFFCURVE",
"234 583 QCURVE SMOOTH",
"288 583 OFFCURVE",
"340 523 OFFCURVE",
"332 469 QCURVE SMOOTH",
"326 429 LINE",
"338 429 LINE"
);
},
{
closed = 1;
nodes = (
"277 679 OFFCURVE",
"331 726 OFFCURVE",
"356 750 QCURVE",
"343 750 LINE",
"246 663 LINE",
"174 750 LINE",
"160 750 LINE",
"177 729 OFFCURVE",
"201 700 OFFCURVE",
"218 679 OFFCURVE",
"230 663 OFFCURVE",
"236 656 QCURVE",
"252 656 LINE"
);
}
);
userData = {
assembly = "SVTCA[0]	/* SetFreedomAndProjectionVectorToAxis */\012PUSHW[ ]	/* 4 values pushed */\01264 3 58 4 \012CALL[ ]	/* CallFunction */\012PUSHW[ ]	/* 1 value pushed */\01264 \012SRP0[ ]	/* SetRefPoint0 */\012PUSHW[ ]	/* 1 value pushed */\01266 \012MDRP[10000]	/* MoveDirectRelPt */\012IUP[0]	/* InterpolateUntPts */\012IUP[1]	/* InterpolateUntPts */";
};
width = 364;
}
);
leftKerningGroup = brokenbar;
note = Scaron;
unicode = 0160;
},
{
color = 11;
glyphname = Scedilla;
lastChange = "2021-11-13 22:45:36 +0000";
layers = (
{
hints = (
{
horizontal = 1;
place = "{-9, 12}";
type = Stem;
},
{
horizontal = 1;
place = "{583, 12}";
type = Stem;
},
{
place = "{53, 12}";
type = Stem;
},
{
place = "{301, 12}";
type = Stem;
},
{
place = "{295, 12}";
type = Stem;
},
{
place = "{50, 12}";
type = Stem;
},
{
place = "{181, 19}";
type = Stem;
}
);
layerId = "5E1A2ACF-25BB-4872-A226-5327BC7330DB";
paths = (
{
closed = 1;
nodes = (
"307 429 LINE",
"307 469 LINE SMOOTH",
"307 549 OFFCURVE",
"261 595 OFFCURVE",
"181 595 CURVE SMOOTH",
"89 595 OFFCURVE",
"53 544 OFFCURVE",
"53 448 CURVE SMOOTH",
"53 354 OFFCURVE",
"111 322 OFFCURVE",
"171 298 CURVE SMOOTH",
"251 269 OFFCURVE",
"301 250 OFFCURVE",
"301 146 CURVE SMOOTH",
"301 38 OFFCURVE",
"247 3 OFFCURVE",
"177 3 CURVE SMOOTH",
"109 3 OFFCURVE",
"62 38 OFFCURVE",
"62 163 CURVE SMOOTH",
"62 175 LINE",
"50 175 LINE",
"50 163 LINE SMOOTH",
"50 32 OFFCURVE",
"100 -9 OFFCURVE",
"177 -9 CURVE SMOOTH",
"254 -9 OFFCURVE",
"313 31 OFFCURVE",
"313 146 CURVE SMOOTH",
"313 202 OFFCURVE",
"300 237 OFFCURVE",
"273 260 CURVE SMOOTH",
"201 324 OFFCURVE",
"65 304 OFFCURVE",
"65 448 CURVE SMOOTH",
"65 540 OFFCURVE",
"98 583 OFFCURVE",
"181 583 CURVE SMOOTH",
"253 583 OFFCURVE",
"295 541 OFFCURVE",
"295 469 CURVE SMOOTH",
"295 429 LINE"
);
},
{
closed = 1;
nodes = (
"181 -144 OFFCURVE",
"173 -153 OFFCURVE",
"162 -168 CURVE",
"169 -169 OFFCURVE",
"172 -169 OFFCURVE",
"179 -161 CURVE SMOOTH",
"194 -145 OFFCURVE",
"200 -114 OFFCURVE",
"200 -93 CURVE SMOOTH",
"200 -82 OFFCURVE",
"196 -72 OFFCURVE",
"183 -72 CURVE SMOOTH",
"171 -72 OFFCURVE",
"165 -79 OFFCURVE",
"165 -90 CURVE SMOOTH",
"165 -97 OFFCURVE",
"169 -100 OFFCURVE",
"173 -105 CURVE SMOOTH",
"178 -110 OFFCURVE",
"181 -117 OFFCURVE",
"181 -125 CURVE SMOOTH"
);
}
);
width = 364;
},
{
layerId = "9AA098C0-EDBC-463F-BC21-AFCD07A070D0";
paths = (
{
closed = 1;
nodes = (
"366 469 LINE SMOOTH",
"374 529 OFFCURVE",
"318 595 OFFCURVE",
"258 595 QCURVE SMOOTH",
"189 595 OFFCURVE",
"120 520 OFFCURVE",
"109 448 QCURVE SMOOTH",
"104 413 OFFCURVE",
"117 364 OFFCURVE",
"145 329 OFFCURVE",
"184 307 OFFCURVE",
"206 298 QCURVE SMOOTH",
"234 287 OFFCURVE",
"280 266 OFFCURVE",
"309 234 OFFCURVE",
"320 185 OFFCURVE",
"315 146 QCURVE SMOOTH",
"309 105 OFFCURVE",
"283 51 OFFCURVE",
"245 17 OFFCURVE",
"197 3 OFFCURVE",
"171 3 QCURVE SMOOTH",
"145 3 OFFCURVE",
"105 18 OFFCURVE",
"80 54 OFFCURVE",
"72 116 OFFCURVE",
"78 163 QCURVE SMOOTH",
"80 175 LINE",
"68 175 LINE",
"66 163 LINE SMOOTH",
"59 114 OFFCURVE",
"68 48 OFFCURVE",
"96 8 OFFCURVE",
"140 -9 OFFCURVE",
"169 -9 QCURVE SMOOTH",
"198 -9 OFFCURVE",
"250 7 OFFCURVE",
"292 44 OFFCURVE",
"321 103 OFFCURVE",
"327 146 QCURVE SMOOTH",
"333 188 OFFCURVE",
"320 243 OFFCURVE",
"303 260 QCURVE SMOOTH",
"287 276 OFFCURVE",
"246 297 OFFCURVE",
"202 314 OFFCURVE",
"161 334 OFFCURVE",
"130 365 OFFCURVE",
"116 412 OFFCURVE",
"121 448 QCURVE SMOOTH",
"131 517 OFFCURVE",
"194 583 OFFCURVE",
"256 583 QCURVE SMOOTH",
"310 583 OFFCURVE",
"362 523 OFFCURVE",
"354 469 QCURVE SMOOTH",
"349 429 LINE",
"361 429 LINE"
);
},
{
closed = 1;
nodes = (
"142 -157 OFFCURVE",
"132 -168 QCURVE",
"137 -169 OFFCURVE",
"144 -167 OFFCURVE",
"150 -161 QCURVE SMOOTH",
"162 -149 OFFCURVE",
"178 -109 OFFCURVE",
"180 -93 QCURVE SMOOTH",
"182 -85 OFFCURVE",
"176 -72 OFFCURVE",
"166 -72 QCURVE SMOOTH",
"157 -72 OFFCURVE",
"147 -82 OFFCURVE",
"146 -90 QCURVE SMOOTH",
"145 -95 OFFCURVE",
"149 -101 OFFCURVE",
"151 -105 QCURVE",
"159 -113 OFFCURVE",
"157 -125 QCURVE SMOOTH",
"155 -139 OFFCURVE"
);
}
);
userData = {
assembly = "PUSHW[ ]	/* 4 values pushed */\0120 4 45 4 \012CALL[ ]	/* CallFunction */\012PUSHW[ ]	/* 1 value pushed */\01245 \012SRP0[ ]	/* SetRefPoint0 */\012PUSHW[ ]	/* 2 values pushed */\01229 4 \012MIRP[10100]	/* MoveIndirectRelPt */\012PUSHW[ ]	/* 3 values pushed */\01275 45 29 \012SRP1[ ]	/* SetRefPoint1 */\012SRP2[ ]	/* SetRefPoint2 */\012IP[ ]	/* InterpolatePts */\012IUP[0]	/* InterpolateUntPts */\012IUP[1]	/* InterpolateUntPts */";
};
width = 364;
}
);
leftKerningGroup = brokenbar;
note = Scedilla;
unicode = 015E;
},
{
color = 11;
glyphname = Scircumflex;
lastChange = "2021-11-13 22:45:36 +0000";
layers = (
{
hints = (
{
horizontal = 1;
place = "{-9, 12}";
type = Stem;
},
{
horizontal = 1;
place = "{583, 12}";
type = Stem;
},
{
place = "{53, 12}";
type = Stem;
},
{
place = "{301, 12}";
type = Stem;
},
{
place = "{295, 12}";
type = Stem;
},
{
place = "{50, 12}";
type = Stem;
},
{
horizontal = 1;
place = "{717, 7}";
type = Stem;
}
);
layerId = "5E1A2ACF-25BB-4872-A226-5327BC7330DB";
paths = (
{
closed = 1;
nodes = (
"307 429 LINE",
"307 469 LINE SMOOTH",
"307 549 OFFCURVE",
"261 595 OFFCURVE",
"181 595 CURVE SMOOTH",
"89 595 OFFCURVE",
"53 544 OFFCURVE",
"53 448 CURVE SMOOTH",
"53 354 OFFCURVE",
"111 322 OFFCURVE",
"171 298 CURVE SMOOTH",
"251 269 OFFCURVE",
"301 250 OFFCURVE",
"301 146 CURVE SMOOTH",
"301 38 OFFCURVE",
"247 3 OFFCURVE",
"177 3 CURVE SMOOTH",
"109 3 OFFCURVE",
"62 38 OFFCURVE",
"62 163 CURVE SMOOTH",
"62 175 LINE",
"50 175 LINE",
"50 163 LINE SMOOTH",
"50 32 OFFCURVE",
"100 -9 OFFCURVE",
"177 -9 CURVE SMOOTH",
"254 -9 OFFCURVE",
"313 31 OFFCURVE",
"313 146 CURVE SMOOTH",
"313 202 OFFCURVE",
"300 237 OFFCURVE",
"273 260 CURVE SMOOTH",
"201 324 OFFCURVE",
"65 304 OFFCURVE",
"65 448 CURVE SMOOTH",
"65 540 OFFCURVE",
"98 583 OFFCURVE",
"181 583 CURVE SMOOTH",
"253 583 OFFCURVE",
"295 541 OFFCURVE",
"295 469 CURVE SMOOTH",
"295 429 LINE"
);
},
{
closed = 1;
nodes = (
"175 724 LINE",
"146 693 OFFCURVE",
"113 662 OFFCURVE",
"84 630 CURVE",
"97 630 LINE",
"182 717 LINE",
"266 630 LINE",
"280 630 LINE",
"226 686 OFFCURVE",
"209 703 OFFCURVE",
"191 724 CURVE"
);
}
);
width = 364;
},
{
layerId = "9AA098C0-EDBC-463F-BC21-AFCD07A070D0";
paths = (
{
closed = 1;
nodes = (
"344 469 LINE SMOOTH",
"352 529 OFFCURVE",
"295 595 OFFCURVE",
"235 595 QCURVE SMOOTH",
"166 595 OFFCURVE",
"97 520 OFFCURVE",
"87 448 QCURVE SMOOTH",
"82 413 OFFCURVE",
"95 364 OFFCURVE",
"123 329 OFFCURVE",
"162 307 OFFCURVE",
"184 298 QCURVE SMOOTH",
"212 287 OFFCURVE",
"257 266 OFFCURVE",
"286 234 OFFCURVE",
"298 185 OFFCURVE",
"292 146 QCURVE SMOOTH",
"286 105 OFFCURVE",
"260 51 OFFCURVE",
"222 17 OFFCURVE",
"174 3 OFFCURVE",
"148 3 QCURVE SMOOTH",
"122 3 OFFCURVE",
"82 18 OFFCURVE",
"57 54 OFFCURVE",
"49 116 OFFCURVE",
"56 163 QCURVE SMOOTH",
"57 175 LINE",
"45 175 LINE",
"44 163 LINE SMOOTH",
"37 114 OFFCURVE",
"46 48 OFFCURVE",
"73 8 OFFCURVE",
"118 -9 OFFCURVE",
"147 -9 QCURVE SMOOTH",
"176 -9 OFFCURVE",
"228 7 OFFCURVE",
"269 44 OFFCURVE",
"298 103 OFFCURVE",
"304 146 QCURVE SMOOTH",
"310 188 OFFCURVE",
"297 243 OFFCURVE",
"280 260 QCURVE SMOOTH",
"264 276 OFFCURVE",
"223 297 OFFCURVE",
"179 314 OFFCURVE",
"138 334 OFFCURVE",
"108 365 OFFCURVE",
"94 412 OFFCURVE",
"99 448 QCURVE SMOOTH",
"109 517 OFFCURVE",
"172 583 OFFCURVE",
"234 583 QCURVE SMOOTH",
"288 583 OFFCURVE",
"340 523 OFFCURVE",
"332 469 QCURVE SMOOTH",
"326 429 LINE",
"338 429 LINE"
);
},
{
closed = 1;
nodes = (
"222 701 OFFCURVE",
"169 654 OFFCURVE",
"143 630 QCURVE",
"156 630 LINE",
"254 717 LINE",
"325 630 LINE",
"339 630 LINE",
"322 651 OFFCURVE",
"299 680 OFFCURVE",
"282 701 OFFCURVE",
"270 716 OFFCURVE",
"264 724 QCURVE",
"248 724 LINE"
);
}
);
userData = {
assembly = "SVTCA[0]	/* SetFreedomAndProjectionVectorToAxis */\012PUSHW[ ]	/* 4 values pushed */\01258 3 64 4 \012CALL[ ]	/* CallFunction */\012PUSHW[ ]	/* 1 value pushed */\01264 \012SRP0[ ]	/* SetRefPoint0 */\012PUSHW[ ]	/* 1 value pushed */\01266 \012MDRP[10000]	/* MoveDirectRelPt */\012IUP[0]	/* InterpolateUntPts */\012IUP[1]	/* InterpolateUntPts */";
};
width = 364;
}
);
leftKerningGroup = brokenbar;
note = Scircumflex;
unicode = 015C;
},
